<svg id="svg" version="1.1" width="400" height="260.72423398328687" viewBox="0 0 400 260.72423398328687" xmlns="http://www.w3.org/2000/svg" xmlns:xlink="http://www.w3.org/1999/xlink" ><g id="svgg"><path id="path0" d="M289.288 3.064 C 288.764 4.749,287.422 8.885,286.306 12.256 C 285.189 15.626,283.018 22.256,281.482 26.988 C 279.946 31.721,278.245 36.943,277.702 38.592 C 276.779 41.398,274.767 47.567,268.133 67.927 C 266.638 72.516,265.273 76.682,265.099 77.184 C 264.731 78.247,264.600 78.301,257.888 80.141 C 250.045 82.291,247.389 82.927,247.083 82.727 C 246.917 82.618,247.005 82.735,247.279 82.986 C 247.716 83.387,247.724 83.442,247.341 83.442 C 247.101 83.442,246.972 83.549,247.053 83.680 C 247.134 83.812,247.097 83.958,246.971 84.006 C 246.845 84.055,246.419 84.734,246.025 85.516 C 244.459 88.625,243.700 89.060,236.909 90.746 C 233.921 91.487,228.325 90.342,227.684 88.858 C 227.636 88.748,227.482 88.657,227.342 88.657 C 227.202 88.657,227.172 88.793,227.274 88.958 C 227.383 89.135,227.346 89.189,227.183 89.088 C 227.031 88.994,226.969 88.653,227.045 88.331 C 227.170 87.801,227.149 87.787,226.825 88.180 C 226.464 88.620,224.710 89.124,205.215 94.396 C 199.837 95.850,193.090 97.675,190.222 98.452 C 182.260 100.608,181.616 101.104,181.617 105.087 C 181.618 107.801,182.168 108.754,184.313 109.759 C 185.043 110.101,185.578 110.479,185.503 110.601 C 185.428 110.722,185.784 110.821,186.295 110.821 C 186.805 110.821,187.223 110.716,187.223 110.588 C 187.223 110.460,187.505 110.372,187.850 110.393 C 188.195 110.413,188.410 110.538,188.329 110.670 C 188.247 110.802,188.372 110.837,188.606 110.747 C 188.840 110.657,189.101 110.696,189.186 110.833 C 189.270 110.970,189.832 111.083,190.433 111.084 C 191.034 111.084,191.936 111.194,192.438 111.326 C 192.940 111.459,193.761 111.624,194.263 111.693 C 196.031 111.936,198.877 112.375,203.781 113.159 C 206.506 113.595,209.205 114.020,209.778 114.105 C 213.564 114.662,217.083 115.465,220.719 116.601 C 233.308 120.534,263.437 130.487,264.668 131.120 C 266.964 132.301,267.676 134.115,269.593 143.677 C 270.406 147.730,272.730 162.402,273.268 166.884 C 273.415 168.103,273.595 169.394,273.669 169.752 C 273.742 170.111,273.864 171.219,273.938 172.215 C 274.013 173.210,274.202 174.178,274.357 174.366 C 274.564 174.615,274.553 174.707,274.316 174.707 C 274.094 174.707,274.072 174.810,274.246 175.033 C 274.578 175.457,274.850 176.571,274.582 176.405 C 274.468 176.335,274.304 176.540,274.218 176.861 C 274.002 177.667,274.017 177.890,274.276 177.730 C 274.598 177.531,275.008 178.469,275.630 180.834 C 276.964 185.899,277.179 186.713,277.834 189.179 C 278.215 190.613,278.689 192.373,278.887 193.090 C 279.085 193.807,279.535 195.450,279.888 196.741 C 280.240 198.031,280.841 200.202,281.222 201.565 C 281.603 202.927,282.071 204.687,282.262 205.476 C 282.453 206.265,282.914 208.025,283.287 209.387 C 283.659 210.750,284.183 212.686,284.450 213.690 C 285.537 217.776,287.166 219.082,290.664 218.671 C 293.730 218.312,294.134 217.711,296.736 209.648 C 297.777 206.421,300.593 197.855,302.995 190.613 C 305.396 183.370,309.914 169.700,313.034 160.235 C 319.911 139.377,320.481 137.672,320.773 137.098 C 320.904 136.842,321.761 136.423,322.757 136.128 C 324.087 135.733,350.860 128.565,353.716 127.838 C 356.014 127.254,398.864 115.829,399.544 115.620 C 399.958 115.493,400.000 115.013,400.000 110.444 L 400.000 105.408 391.069 102.379 C 386.157 100.713,368.533 94.790,351.905 89.218 C 329.722 81.784,321.581 78.951,321.334 78.578 C 321.148 78.298,320.760 77.166,320.472 76.062 C 320.184 74.958,319.706 73.145,319.410 72.034 C 319.115 70.922,318.360 68.018,317.733 65.580 C 317.106 63.142,316.354 60.267,316.062 59.192 C 315.105 55.673,313.437 49.439,313.132 48.240 C 312.967 47.595,312.625 46.304,312.372 45.372 C 311.312 41.479,307.619 27.400,307.310 26.076 C 307.125 25.287,306.677 23.527,306.313 22.164 C 305.949 20.802,305.176 17.868,304.596 15.645 C 304.015 13.422,303.311 10.782,303.030 9.778 C 301.645 4.827,300.652 0.955,300.652 0.502 C 300.652 0.023,300.412 -0.000,295.446 -0.000 L 290.240 -0.000 289.288 3.064 M294.635 44.840 C 295.512 45.309,296.231 47.714,301.691 68.438 C 307.345 89.904,307.422 90.154,308.647 91.313 C 309.716 92.324,310.331 92.553,325.961 97.741 C 356.061 107.734,356.224 107.797,355.832 109.360 C 355.528 110.572,356.303 110.340,322.185 119.424 C 316.174 121.024,310.803 122.515,310.250 122.736 C 307.971 123.648,308.158 123.191,300.158 147.322 C 292.541 170.299,292.193 171.190,290.911 171.004 C 290.595 170.959,290.126 170.497,289.795 169.905 C 289.123 168.704,289.288 169.289,282.653 144.674 C 279.805 134.107,277.231 124.984,276.933 124.400 C 275.983 122.537,275.413 122.313,253.326 115.111 C 231.310 107.931,230.125 107.498,229.650 106.456 C 228.895 104.798,228.661 104.878,254.498 97.926 C 278.041 91.592,276.522 92.115,277.796 89.902 C 278.309 89.011,284.753 69.654,290.885 50.587 C 291.979 47.184,292.873 45.263,293.543 44.873 C 294.117 44.539,294.075 44.540,294.635 44.840 M105.301 45.046 C 127.435 45.082,163.576 45.082,185.614 45.046 C 207.653 45.009,189.544 44.979,145.372 44.979 C 101.199 44.979,83.168 45.009,105.301 45.046 M110.235 64.863 C 129.632 64.900,161.372 64.900,180.769 64.863 C 200.166 64.826,184.296 64.796,145.502 64.796 C 106.708 64.796,90.838 64.826,110.235 64.863 M18.318 103.178 C 18.569 103.244,18.980 103.244,19.231 103.178 C 19.482 103.113,19.276 103.059,18.774 103.059 C 18.272 103.059,18.067 103.113,18.318 103.178 M29.143 103.183 C 29.467 103.245,29.936 103.243,30.186 103.178 C 30.435 103.113,30.169 103.062,29.596 103.064 C 29.022 103.067,28.818 103.121,29.143 103.183 M55.671 134.721 C 37.695 138.555,33.685 162.926,49.413 172.753 C 63.148 181.334,81.095 171.289,81.095 155.020 C 81.095 141.599,68.937 131.892,55.671 134.721 M228.553 134.674 C 215.460 137.550,208.590 151.933,214.476 164.146 C 222.729 181.272,248.058 178.940,253.194 160.581 C 257.398 145.556,243.852 131.315,228.553 134.674 M20.681 145.111 C 20.682 145.971,20.731 146.292,20.789 145.823 C 20.847 145.355,20.846 144.651,20.786 144.259 C 20.727 143.867,20.679 144.250,20.681 145.111 M20.460 165.841 C 20.460 173.083,20.493 176.046,20.534 172.425 C 20.575 168.804,20.575 162.878,20.534 159.257 C 20.493 155.636,20.460 158.598,20.460 165.841 M20.698 190.613 C 20.698 192.262,20.741 192.937,20.792 192.112 C 20.844 191.287,20.844 189.938,20.792 189.113 C 20.741 188.289,20.698 188.963,20.698 190.613 M273.632 190.874 C 273.632 192.523,273.674 193.198,273.726 192.373 C 273.778 191.548,273.778 190.199,273.726 189.374 C 273.674 188.550,273.632 189.224,273.632 190.874 M83.004 192.336 C 81.581 193.040,81.305 194.044,81.402 198.172 C 81.503 202.490,81.757 203.050,83.858 203.585 C 86.229 204.188,209.267 203.918,210.386 203.307 C 211.782 202.545,212.046 201.540,211.949 197.359 L 211.864 193.750 211.012 192.899 L 210.159 192.047 146.996 191.987 C 90.029 191.933,83.752 191.967,83.004 192.336 M273.095 203.129 C 273.095 204.061,273.143 204.443,273.200 203.977 C 273.258 203.510,273.258 202.748,273.200 202.282 C 273.143 201.816,273.095 202.197,273.095 203.129 M272.571 208.735 C 272.572 209.596,272.621 209.916,272.679 209.448 C 272.737 208.979,272.736 208.275,272.677 207.883 C 272.617 207.491,272.570 207.875,272.571 208.735 M272.308 216.167 C 272.308 216.956,272.356 217.278,272.416 216.884 C 272.476 216.490,272.476 215.844,272.416 215.450 C 272.356 215.055,272.308 215.378,272.308 216.167 M272.047 220.078 C 272.047 220.867,272.096 221.190,272.155 220.795 C 272.215 220.401,272.215 219.756,272.155 219.361 C 272.096 218.967,272.047 219.289,272.047 220.078 M22.767 223.598 C 22.768 224.459,22.817 224.780,22.875 224.311 C 22.933 223.842,22.932 223.138,22.872 222.746 C 22.813 222.354,22.765 222.738,22.767 223.598 M30.698 231.218 C 31.161 231.276,31.983 231.277,32.524 231.220 C 33.065 231.164,32.686 231.117,31.682 231.116 C 30.678 231.114,30.235 231.161,30.698 231.218 M117.296 231.226 C 133.693 231.263,160.446 231.263,176.748 231.226 C 193.050 231.188,179.635 231.158,146.936 231.158 C 114.237 231.158,100.899 231.188,117.296 231.226 M261.213 231.221 C 261.822 231.276,262.819 231.276,263.429 231.221 C 264.038 231.166,263.540 231.121,262.321 231.121 C 261.102 231.121,260.603 231.166,261.213 231.221 M259.770 237.288 C 259.735 240.515,259.646 243.449,259.572 243.807 L 259.438 244.459 259.711 243.837 C 259.882 243.445,259.956 241.022,259.908 237.318 L 259.833 231.421 259.770 237.288 M252.934 257.236 C 252.300 257.881,251.841 258.409,251.912 258.409 C 251.984 258.409,252.561 257.881,253.194 257.236 C 253.828 256.591,254.287 256.063,254.215 256.063 C 254.144 256.063,253.567 256.591,252.934 257.236 M39.635 256.666 C 39.635 256.711,40.016 257.092,40.482 257.513 L 41.330 258.279 40.564 257.432 C 39.850 256.642,39.635 256.464,39.635 256.666 " stroke="none" fill="#ffffff" fill-rule="evenodd"></path><path id="path1" d="M62.634 44.880 C 60.076 45.306,58.736 46.473,57.652 49.220 C 57.326 50.043,56.549 51.949,55.923 53.455 C 55.297 54.961,54.539 56.838,54.239 57.627 C 53.938 58.416,53.533 59.413,53.340 59.844 C 53.146 60.274,52.613 61.565,52.155 62.712 C 51.698 63.859,51.022 65.498,50.654 66.354 C 50.286 67.209,49.475 69.175,48.852 70.721 C 48.228 72.268,47.178 74.853,46.518 76.467 C 45.858 78.080,44.583 81.219,43.685 83.442 C 42.787 85.665,41.902 87.836,41.720 88.266 C 40.899 90.197,40.017 92.341,37.112 99.478 C 36.470 101.056,35.848 102.447,35.728 102.570 C 35.609 102.693,30.602 102.815,24.601 102.840 C 11.540 102.896,7.277 103.424,1.902 105.650 L 0.022 106.428 0.006 116.793 C -0.012 128.335,-0.158 127.396,1.825 128.456 C 2.656 128.900,3.610 128.956,12.430 129.074 C 17.760 129.146,22.209 129.292,22.316 129.400 C 22.423 129.507,22.304 130.446,22.052 131.486 C 21.800 132.526,21.488 134.550,21.359 135.984 C 21.230 137.419,21.006 139.083,20.862 139.684 C 19.791 144.149,19.799 195.001,20.871 200.000 C 21.010 200.645,21.240 204.694,21.383 208.996 C 21.562 214.359,21.766 217.270,22.031 218.253 C 22.258 219.093,22.424 220.875,22.431 222.555 C 22.462 229.618,23.868 231.239,30.183 231.493 L 33.377 231.622 33.379 237.258 C 33.383 248.645,34.785 252.719,40.559 258.120 C 43.677 261.037,41.578 260.759,60.411 260.750 L 76.886 260.742 78.404 259.616 C 82.358 256.683,85.851 251.426,86.611 247.266 C 86.761 246.439,87.049 245.035,87.249 244.145 C 87.499 243.037,87.614 240.795,87.614 237.039 L 87.614 231.551 146.918 231.551 L 206.222 231.551 206.315 238.918 C 206.453 249.863,208.434 254.649,214.809 259.438 L 216.558 260.751 233.069 260.754 L 249.580 260.756 250.670 259.995 C 257.508 255.221,259.993 249.436,260.161 237.904 L 260.252 231.610 263.829 231.500 C 269.225 231.334,270.708 230.505,271.455 227.241 C 272.098 224.431,272.710 218.191,273.016 211.343 C 273.157 208.188,273.382 204.433,273.516 202.999 C 273.650 201.565,273.831 195.932,273.919 190.482 C 274.097 179.391,274.173 178.247,274.722 178.457 C 275.022 178.573,275.033 178.507,274.781 178.104 C 274.611 177.831,274.360 177.678,274.222 177.763 C 274.074 177.855,274.041 177.663,274.141 177.290 C 274.233 176.945,274.310 176.567,274.312 176.451 C 274.314 176.335,274.422 176.306,274.552 176.387 C 274.843 176.566,274.598 175.482,274.246 175.033 C 274.072 174.810,274.094 174.707,274.316 174.707 C 274.553 174.707,274.564 174.615,274.357 174.366 C 274.202 174.178,274.013 173.210,273.938 172.215 C 273.864 171.219,273.742 170.111,273.669 169.752 C 273.595 169.394,273.415 168.103,273.268 166.884 C 271.660 153.502,268.268 135.787,266.808 133.139 C 265.761 131.240,265.262 131.043,244.068 124.145 C 216.087 115.039,216.052 115.029,209.778 114.105 C 209.205 114.020,206.506 113.595,203.781 113.159 C 198.877 112.375,196.031 111.936,194.263 111.693 C 193.761 111.624,192.940 111.459,192.438 111.326 C 191.936 111.194,191.034 111.084,190.433 111.084 C 189.832 111.083,189.270 110.970,189.186 110.833 C 189.101 110.696,188.840 110.657,188.606 110.747 C 188.372 110.837,188.247 110.802,188.329 110.670 C 188.410 110.538,188.195 110.413,187.850 110.393 C 187.505 110.372,187.223 110.460,187.223 110.588 C 187.223 110.716,186.805 110.821,186.295 110.821 C 185.784 110.821,185.433 110.714,185.514 110.583 C 185.736 110.224,185.092 110.090,184.355 110.341 C 183.996 110.464,154.954 110.534,119.817 110.497 L 55.932 110.430 55.962 109.778 C 55.978 109.420,56.815 107.132,57.821 104.694 C 58.827 102.256,60.555 98.031,61.661 95.306 C 62.766 92.581,63.831 90.000,64.026 89.570 C 64.222 89.140,64.749 87.849,65.197 86.701 C 66.019 84.598,67.854 80.099,70.140 74.576 C 70.823 72.927,71.885 70.346,72.501 68.840 C 73.116 67.334,73.848 65.896,74.127 65.645 C 74.791 65.048,215.962 64.922,216.777 65.517 C 217.189 65.819,218.103 67.817,221.102 74.967 C 221.703 76.402,222.364 77.945,222.571 78.397 C 222.777 78.849,222.947 79.301,222.947 79.401 C 222.947 79.554,224.476 83.167,225.957 86.515 C 226.166 86.986,226.340 87.690,226.345 88.079 C 226.353 88.772,226.362 88.776,226.768 88.266 C 227.178 87.751,227.182 87.752,227.045 88.331 C 226.969 88.653,227.031 88.994,227.183 89.088 C 227.346 89.189,227.383 89.135,227.274 88.958 C 227.172 88.793,227.202 88.657,227.342 88.657 C 227.482 88.657,227.636 88.748,227.684 88.858 C 228.325 90.342,233.921 91.487,236.909 90.746 C 243.700 89.060,244.459 88.625,246.025 85.516 C 246.419 84.734,246.845 84.055,246.971 84.006 C 247.097 83.958,247.134 83.812,247.053 83.680 C 246.972 83.549,247.101 83.442,247.341 83.442 C 247.726 83.442,247.720 83.390,247.285 82.986 C 247.016 82.735,246.909 82.617,247.048 82.725 C 247.534 83.100,247.796 82.917,247.422 82.464 C 246.991 81.944,246.766 81.477,245.633 78.748 C 245.186 77.673,244.365 75.737,243.808 74.446 C 242.607 71.660,240.670 67.043,238.339 61.408 C 237.746 59.974,236.980 58.155,236.638 57.366 C 236.296 56.578,235.284 54.192,234.390 52.066 C 231.820 45.951,231.255 45.330,227.813 44.832 C 225.711 44.528,64.469 44.575,62.634 44.880 M293.543 44.873 C 292.873 45.263,291.979 47.184,290.885 50.587 C 284.753 69.654,278.309 89.011,277.796 89.902 C 276.522 92.115,278.041 91.592,254.498 97.926 C 228.661 104.878,228.895 104.798,229.650 106.456 C 230.125 107.498,231.310 107.931,253.326 115.111 C 275.413 122.313,275.983 122.537,276.933 124.400 C 277.231 124.984,279.805 134.107,282.653 144.674 C 289.288 169.289,289.123 168.704,289.795 169.905 C 290.126 170.497,290.595 170.959,290.911 171.004 C 292.193 171.190,292.541 170.299,300.158 147.322 C 308.158 123.191,307.971 123.648,310.250 122.736 C 310.803 122.515,316.174 121.024,322.185 119.424 C 356.303 110.340,355.528 110.572,355.832 109.360 C 356.224 107.797,356.061 107.734,325.961 97.741 C 310.331 92.553,309.716 92.324,308.647 91.313 C 307.422 90.154,307.345 89.904,301.691 68.438 C 296.231 47.714,295.512 45.309,294.635 44.840 C 294.075 44.540,294.117 44.539,293.543 44.873 M185.614 45.046 C 163.576 45.082,127.435 45.082,105.301 45.046 C 83.168 45.009,101.199 44.979,145.372 44.979 C 189.544 44.979,207.653 45.009,185.614 45.046 M180.769 64.863 C 161.372 64.900,129.632 64.900,110.235 64.863 C 90.838 64.826,106.708 64.796,145.502 64.796 C 184.296 64.796,200.166 64.826,180.769 64.863 M19.231 103.178 C 18.980 103.244,18.569 103.244,18.318 103.178 C 18.067 103.113,18.272 103.059,18.774 103.059 C 19.276 103.059,19.482 103.113,19.231 103.178 M30.186 103.178 C 29.936 103.243,29.467 103.245,29.143 103.183 C 28.818 103.121,29.022 103.067,29.596 103.064 C 30.169 103.062,30.435 103.113,30.186 103.178 M64.874 134.695 C 79.765 137.699,86.166 156.186,76.470 168.188 C 65.757 181.448,44.119 176.573,40.146 160.004 C 36.526 144.906,49.529 131.599,64.874 134.695 M237.597 134.668 C 251.966 137.713,258.601 154.624,250.238 166.884 C 241.359 179.901,221.329 178.368,214.476 164.146 C 206.895 148.415,220.517 131.048,237.597 134.668 M20.789 145.823 C 20.731 146.292,20.682 145.971,20.681 145.111 C 20.679 144.250,20.727 143.867,20.786 144.259 C 20.846 144.651,20.847 145.355,20.789 145.823 M20.534 172.425 C 20.493 176.046,20.460 173.083,20.460 165.841 C 20.460 158.598,20.493 155.636,20.534 159.257 C 20.575 162.878,20.575 168.804,20.534 172.425 M20.792 192.112 C 20.741 192.937,20.698 192.262,20.698 190.613 C 20.698 188.963,20.741 188.289,20.792 189.113 C 20.844 189.938,20.844 191.287,20.792 192.112 M273.726 192.373 C 273.674 193.198,273.632 192.523,273.632 190.874 C 273.632 189.224,273.674 188.550,273.726 189.374 C 273.778 190.199,273.778 191.548,273.726 192.373 M211.012 192.899 L 211.864 193.750 211.949 197.359 C 212.046 201.540,211.782 202.545,210.386 203.307 C 209.555 203.761,206.862 203.784,147.327 203.845 C 80.076 203.915,83.114 203.977,82.033 202.524 C 81.274 201.503,81.066 195.084,81.746 193.650 C 82.637 191.773,76.867 191.920,146.996 191.987 L 210.159 192.047 211.012 192.899 M273.200 203.977 C 273.143 204.443,273.095 204.061,273.095 203.129 C 273.095 202.197,273.143 201.816,273.200 202.282 C 273.258 202.748,273.258 203.510,273.200 203.977 M272.679 209.448 C 272.621 209.916,272.572 209.596,272.571 208.735 C 272.570 207.875,272.617 207.491,272.677 207.883 C 272.736 208.275,272.737 208.979,272.679 209.448 M272.416 216.884 C 272.356 217.278,272.308 216.956,272.308 216.167 C 272.308 215.378,272.356 215.055,272.416 215.450 C 272.476 215.844,272.476 216.490,272.416 216.884 M272.155 220.795 C 272.096 221.190,272.047 220.867,272.047 220.078 C 272.047 219.289,272.096 218.967,272.155 219.361 C 272.215 219.756,272.215 220.401,272.155 220.795 M22.875 224.311 C 22.817 224.780,22.768 224.459,22.767 223.598 C 22.765 222.738,22.813 222.354,22.872 222.746 C 22.932 223.138,22.933 223.842,22.875 224.311 M32.524 231.220 C 31.983 231.277,31.161 231.276,30.698 231.218 C 30.235 231.161,30.678 231.114,31.682 231.116 C 32.686 231.117,33.065 231.164,32.524 231.220 M176.748 231.226 C 160.446 231.263,133.693 231.263,117.296 231.226 C 100.899 231.188,114.237 231.158,146.936 231.158 C 179.635 231.158,193.050 231.188,176.748 231.226 M263.429 231.221 C 262.819 231.276,261.822 231.276,261.213 231.221 C 260.603 231.166,261.102 231.121,262.321 231.121 C 263.540 231.121,264.038 231.166,263.429 231.221 M259.711 243.837 L 259.438 244.459 259.572 243.807 C 259.646 243.449,259.735 240.515,259.770 237.288 L 259.833 231.421 259.908 237.318 C 259.956 241.022,259.882 243.445,259.711 243.837 M253.194 257.236 C 252.561 257.881,251.984 258.409,251.912 258.409 C 251.841 258.409,252.300 257.881,252.934 257.236 C 253.567 256.591,254.144 256.063,254.215 256.063 C 254.287 256.063,253.828 256.591,253.194 257.236 M40.564 257.432 L 41.330 258.279 40.482 257.513 C 39.692 256.799,39.515 256.584,39.717 256.584 C 39.761 256.584,40.143 256.965,40.564 257.432 " stroke="none" fill="#6d0204" fill-rule="evenodd"></path></g></svg>