<svg id="svg" version="1.1" width="400" height="270.5882352941177" viewBox="0 0 400 270.5882352941177" xmlns="http://www.w3.org/2000/svg" xmlns:xlink="http://www.w3.org/1999/xlink" ><g id="svgg"><path id="path0" d="M184.479 0.812 L 184.317 1.624 138.609 1.624 C 108.822 1.624,92.398 1.719,91.454 1.898 C 87.495 2.649,86.467 3.921,83.142 12.179 C 82.332 14.188,78.366 23.904,77.396 26.252 C 77.119 26.922,76.448 28.566,75.906 29.905 C 75.363 31.245,74.638 33.011,74.294 33.829 C 73.950 34.648,73.578 35.622,73.468 35.995 C 73.357 36.367,72.969 37.341,72.605 38.160 C 71.750 40.081,70.902 42.093,69.808 44.790 C 68.640 47.672,67.966 49.328,66.448 53.045 C 65.749 54.756,64.288 58.349,63.201 61.028 C 59.777 69.468,58.299 73.086,56.566 77.267 C 55.640 79.499,54.604 82.057,54.264 82.950 C 52.388 87.870,52.497 87.789,49.699 86.360 C 45.839 84.390,45.091 84.306,31.394 84.304 C 18.640 84.303,19.186 84.265,9.547 85.806 C 7.305 86.165,3.480 87.285,1.556 88.146 L 0.000 88.843 0.000 102.859 L 0.000 116.875 0.708 117.432 C 1.098 117.739,2.086 118.201,2.904 118.459 C 4.962 119.107,4.955 119.042,3.528 124.087 C 3.234 125.129,2.989 126.471,2.985 127.070 C 2.981 127.669,2.665 129.374,2.285 130.859 C 1.698 133.146,1.558 134.489,1.366 139.648 C 1.239 143.062,0.987 146.273,0.792 146.955 C 0.196 149.043,0.125 170.990,0.707 173.226 C 1.072 174.630,1.203 177.113,1.385 186.062 C 1.553 194.306,1.709 197.471,1.992 198.376 C 2.860 201.155,2.961 202.032,3.092 207.984 C 3.198 212.761,3.337 214.554,3.689 215.697 C 3.971 216.612,4.226 218.750,4.351 221.245 C 4.628 226.782,5.242 228.847,7.075 230.417 C 8.864 231.948,10.430 232.250,17.358 232.404 L 23.485 232.539 23.618 241.100 C 23.845 255.711,27.338 263.368,36.598 269.552 L 38.221 270.636 58.985 270.636 L 79.748 270.636 81.349 269.516 C 91.059 262.721,94.181 255.609,94.181 240.289 L 94.181 232.476 139.230 232.476 L 184.279 232.476 184.367 245.805 C 184.435 256.292,184.533 259.336,184.825 260.081 C 185.029 260.602,185.324 261.387,185.481 261.826 C 186.742 265.357,189.149 266.035,200.406 266.035 C 216.500 266.035,216.238 266.378,216.238 245.310 C 216.238 236.754,216.144 232.206,215.968 232.206 C 215.791 232.206,215.697 236.693,215.698 245.129 C 215.699 256.389,215.642 258.225,215.255 259.405 C 213.445 264.912,212.321 265.359,200.271 265.359 C 188.581 265.359,187.546 264.954,185.547 259.602 C 185.173 258.602,185.115 256.661,185.115 245.191 L 185.115 231.935 139.310 231.927 C 109.228 231.921,93.661 231.827,93.960 231.653 C 94.254 231.482,110.468 231.413,139.753 231.458 L 185.090 231.529 185.170 230.582 C 185.220 230.000,185.381 229.661,185.589 229.702 C 185.775 229.740,185.927 229.641,185.927 229.483 C 185.927 229.326,186.030 229.260,186.156 229.338 C 186.372 229.472,188.488 227.209,189.015 226.280 C 189.150 226.041,189.530 225.571,189.859 225.235 C 190.789 224.286,190.792 224.195,190.795 195.500 C 190.799 164.729,190.942 166.416,188.227 165.196 C 187.922 165.059,173.128 164.894,154.263 164.817 C 121.222 164.684,120.827 164.676,119.781 164.127 C 116.891 162.611,117.109 158.686,120.162 157.272 C 121.014 156.878,124.455 156.820,154.398 156.698 C 192.214 156.545,188.921 156.768,190.189 154.267 C 191.443 151.794,191.022 141.001,189.611 139.410 C 188.189 137.808,190.201 137.901,153.857 137.754 C 117.129 137.604,119.589 137.734,118.346 135.887 C 117.144 134.102,117.816 131.626,119.781 130.596 C 120.827 130.047,121.223 130.039,154.127 129.905 C 192.030 129.751,188.930 129.961,190.203 127.470 C 190.824 126.255,190.825 126.222,190.744 116.421 L 190.663 106.591 189.518 105.523 C 188.888 104.936,188.369 104.366,188.365 104.257 C 188.352 103.916,186.247 101.800,186.083 101.964 C 185.997 102.050,185.927 101.963,185.927 101.771 C 185.927 101.492,185.846 101.489,185.521 101.759 C 185.182 102.041,185.115 102.002,185.115 101.522 L 185.115 100.947 131.411 100.947 C 95.609 100.947,77.466 101.039,76.983 101.223 C 76.351 101.463,76.280 101.439,76.435 101.035 C 76.590 100.631,76.541 100.637,76.046 101.085 C 75.481 101.597,75.480 101.596,75.764 100.849 C 76.151 99.832,76.122 99.661,75.668 100.281 C 75.313 100.767,75.298 100.751,75.432 100.048 L 75.576 99.294 76.157 99.839 L 76.738 100.385 76.683 99.245 C 76.653 98.618,76.693 98.410,76.771 98.782 C 76.957 99.670,77.364 100.143,77.909 100.104 C 78.293 100.077,78.291 100.057,77.888 99.951 C 76.734 99.647,76.826 99.352,81.997 86.739 C 82.912 84.506,84.925 79.574,86.469 75.778 C 88.014 71.982,90.452 66.015,91.888 62.517 C 93.324 59.019,95.269 54.208,96.211 51.827 C 97.153 49.445,98.223 46.827,98.590 46.008 C 99.086 44.899,103.631 33.781,105.217 29.793 C 105.325 29.522,105.257 29.476,104.985 29.634 C 104.757 29.766,104.693 29.756,104.826 29.610 C 104.950 29.475,105.133 29.360,105.232 29.354 C 105.332 29.349,105.717 29.166,106.089 28.948 C 106.675 28.605,112.028 28.552,145.940 28.552 C 183.556 28.552,185.115 28.533,185.115 28.063 C 185.115 27.788,185.241 27.650,185.400 27.749 C 186.041 28.145,190.119 23.055,190.506 21.375 C 190.844 19.906,190.878 11.631,190.551 10.224 C 190.335 9.293,189.664 8.259,188.395 6.901 C 188.117 6.604,187.525 5.846,187.079 5.219 C 186.634 4.591,186.192 4.155,186.098 4.249 C 186.004 4.343,185.927 4.217,185.927 3.969 C 185.927 3.721,185.805 3.518,185.656 3.518 C 185.507 3.518,185.384 3.731,185.382 3.992 C 185.379 4.325,185.314 4.366,185.165 4.131 C 184.763 3.499,95.265 3.517,94.633 4.149 C 94.162 4.620,94.112 4.622,93.618 4.175 C 93.144 3.746,93.099 3.744,93.099 4.153 C 93.099 4.681,92.795 4.730,92.341 4.276 C 92.088 4.023,92.016 4.061,92.016 4.445 C 92.016 4.859,91.949 4.882,91.597 4.590 C 91.263 4.313,91.249 4.198,91.530 4.020 C 92.104 3.655,91.394 3.778,90.699 4.163 C 90.150 4.468,90.123 4.543,90.510 4.692 C 90.804 4.805,90.897 4.760,90.775 4.563 C 90.664 4.384,90.735 4.309,90.947 4.380 C 91.144 4.445,91.360 4.661,91.426 4.858 C 91.492 5.058,91.420 5.140,91.263 5.043 C 91.107 4.947,90.918 5.021,90.843 5.208 C 90.734 5.478,90.701 5.479,90.684 5.210 C 90.673 5.024,90.534 4.871,90.376 4.871 C 90.219 4.871,90.177 5.024,90.285 5.210 C 90.392 5.396,90.376 5.454,90.250 5.340 C 90.124 5.225,89.526 5.590,88.921 6.151 C 87.860 7.136,87.863 7.127,89.028 5.886 C 89.692 5.179,90.099 4.601,89.933 4.601 C 89.767 4.601,89.053 5.240,88.347 6.022 C 87.640 6.803,87.191 7.199,87.348 6.901 C 87.874 5.905,89.661 4.268,90.777 3.761 C 91.384 3.485,91.724 3.257,91.532 3.254 C 89.020 3.211,87.019 6.001,83.673 14.212 C 82.339 17.485,80.125 22.903,78.753 26.252 C 77.381 29.601,75.167 35.020,73.833 38.295 C 72.499 41.570,70.337 46.867,69.029 50.068 C 67.721 53.268,65.710 58.200,64.559 61.028 C 53.029 89.374,53.226 88.912,52.574 89.162 C 52.177 89.314,52.179 89.276,52.597 88.815 C 53.051 88.313,53.559 87.130,54.534 84.303 C 54.790 83.559,55.352 82.250,55.782 81.394 C 56.211 80.539,56.565 79.686,56.567 79.500 C 56.573 79.060,58.156 75.165,58.935 73.672 C 59.268 73.035,59.540 72.341,59.540 72.130 C 59.540 71.920,59.844 71.175,60.217 70.475 C 60.589 69.775,60.893 68.970,60.893 68.687 C 60.893 68.403,61.258 67.514,61.705 66.712 C 62.152 65.909,62.517 65.073,62.517 64.854 C 62.517 64.635,62.821 63.850,63.194 63.109 C 63.566 62.368,63.870 61.635,63.870 61.481 C 63.870 61.131,65.014 58.317,66.035 56.157 C 67.150 53.797,68.200 51.171,68.200 50.743 C 68.200 50.538,68.566 49.666,69.012 48.806 C 69.459 47.945,69.824 47.043,69.824 46.800 C 69.824 46.558,70.129 45.787,70.501 45.087 C 70.873 44.387,71.177 43.645,71.177 43.439 C 71.177 43.232,71.543 42.359,71.989 41.499 C 72.436 40.638,72.802 39.809,72.802 39.656 C 72.803 39.503,73.107 38.778,73.479 38.046 C 73.850 37.314,74.154 36.499,74.154 36.236 C 74.154 35.972,74.520 35.052,74.966 34.191 C 75.413 33.331,75.778 32.459,75.778 32.255 C 75.778 32.050,75.955 31.560,76.172 31.165 C 76.569 30.442,77.743 27.624,78.275 26.116 C 78.433 25.670,78.849 24.673,79.200 23.901 C 79.551 23.129,79.838 22.364,79.838 22.201 C 79.838 22.039,80.203 21.182,80.650 20.298 C 81.096 19.413,81.461 18.510,81.461 18.291 C 81.461 18.072,81.727 17.443,82.052 16.893 C 82.579 15.998,83.168 14.540,84.173 11.637 C 84.353 11.116,84.852 9.990,85.282 9.135 C 85.711 8.279,86.062 7.463,86.062 7.321 C 86.062 6.925,87.549 4.823,88.407 4.006 C 90.640 1.882,89.953 1.909,140.798 1.901 C 176.066 1.896,185.116 1.825,185.119 1.556 C 185.121 1.370,185.196 0.944,185.286 0.609 C 185.401 0.177,185.332 -0.000,185.045 -0.000 C 184.813 -0.000,184.572 0.345,184.479 0.812 M215.430 0.474 C 215.436 1.088,215.885 1.796,216.121 1.561 C 216.375 1.307,216.016 0.000,215.692 0.000 C 215.546 0.000,215.428 0.213,215.430 0.474 M93.708 2.893 C 93.968 2.961,94.394 2.961,94.655 2.893 C 94.915 2.825,94.702 2.769,94.181 2.769 C 93.660 2.769,93.447 2.825,93.708 2.893 M106.495 29.285 C 105.783 29.693,105.297 30.340,105.286 30.893 C 105.281 31.138,104.974 31.869,104.604 32.516 C 104.234 33.164,103.929 33.911,103.927 34.176 C 103.926 34.440,103.559 35.381,103.112 36.265 C 102.666 37.150,102.300 38.094,102.300 38.362 C 102.300 38.631,102.135 39.091,101.932 39.385 C 101.729 39.679,101.289 40.710,100.953 41.678 C 100.617 42.645,100.113 43.817,99.833 44.281 C 99.553 44.745,99.323 45.318,99.323 45.554 C 99.323 45.791,99.019 46.433,98.647 46.981 C 98.275 47.529,97.970 48.195,97.970 48.459 C 97.970 48.724,97.666 49.547,97.294 50.288 C 96.922 51.029,96.617 51.874,96.617 52.166 C 96.617 52.459,96.252 53.382,95.805 54.219 C 95.359 55.056,94.993 55.962,94.993 56.233 C 94.993 56.504,94.875 56.843,94.731 56.988 C 94.586 57.132,94.173 58.039,93.811 59.004 C 92.951 61.297,92.073 63.415,91.293 65.073 C 90.946 65.810,90.663 66.685,90.663 67.020 C 90.663 67.354,90.545 67.700,90.400 67.790 C 90.081 67.987,89.039 70.290,89.039 70.799 C 89.039 71.000,88.796 71.563,88.499 72.050 C 88.202 72.538,87.958 73.109,87.958 73.321 C 87.957 73.532,87.602 74.506,87.169 75.486 C 86.735 76.465,85.811 78.667,85.114 80.379 C 84.417 82.091,83.736 83.607,83.601 83.748 C 83.466 83.890,83.356 84.339,83.356 84.747 C 83.356 85.155,83.237 85.562,83.092 85.652 C 82.794 85.836,82.291 86.924,81.589 88.904 C 81.324 89.648,80.944 90.497,80.744 90.791 C 80.543 91.085,80.379 91.546,80.379 91.817 C 80.379 92.087,80.113 92.821,79.787 93.448 C 78.290 96.331,77.657 98.885,78.371 99.159 C 78.607 99.249,102.720 99.323,131.957 99.323 L 185.115 99.323 185.115 64.141 L 185.115 28.958 146.076 28.966 C 117.222 28.972,106.895 29.056,106.495 29.285 M184.303 64.141 L 184.303 98.782 131.656 98.782 C 87.021 98.782,78.987 98.725,78.865 98.407 C 78.786 98.200,79.292 96.648,79.991 94.956 C 80.690 93.265,82.025 89.993,82.959 87.686 C 83.892 85.379,85.629 81.116,86.818 78.214 C 89.616 71.383,92.899 63.324,93.654 61.434 C 93.981 60.616,94.417 59.559,94.624 59.085 C 95.457 57.180,96.669 54.216,96.928 53.451 C 97.079 53.004,97.314 52.395,97.449 52.097 C 97.584 51.800,97.990 50.765,98.352 49.797 C 98.713 48.829,99.425 47.124,99.934 46.008 C 100.443 44.892,102.049 40.995,103.502 37.348 C 105.224 33.031,106.377 30.505,106.809 30.108 L 107.473 29.499 145.888 29.499 L 184.303 29.499 184.303 64.141 M215.697 64.276 C 215.697 87.280,215.789 99.053,215.968 99.053 C 216.147 99.053,216.238 87.280,216.238 64.276 C 216.238 41.272,216.147 29.499,215.968 29.499 C 215.789 29.499,215.697 41.272,215.697 64.276 M100.672 39.535 C 100.675 39.325,100.740 39.216,100.818 39.294 C 100.896 39.372,100.879 39.646,100.781 39.903 C 100.596 40.383,100.144 40.010,100.144 39.378 C 100.144 39.229,100.262 39.290,100.406 39.513 C 100.622 39.847,100.669 39.851,100.672 39.535 M5.442 121.601 C 4.993 123.003,4.378 125.597,4.075 127.366 C 3.772 129.135,3.342 131.434,3.120 132.476 C 2.704 134.427,2.589 136.165,2.977 134.641 L 3.184 133.829 3.216 134.565 C 3.239 135.101,3.358 135.259,3.654 135.145 C 3.877 135.060,4.060 135.124,4.060 135.289 C 4.060 135.454,3.938 135.589,3.789 135.589 C 3.640 135.589,3.502 136.167,3.483 136.874 C 3.448 138.130,3.442 138.138,3.248 137.212 C 3.049 136.270,3.048 136.269,3.008 137.077 C 2.978 137.696,2.908 137.793,2.715 137.487 C 2.541 137.212,2.431 137.766,2.367 139.247 C 2.314 140.480,2.251 139.627,2.220 137.260 C 2.170 133.472,2.224 132.939,2.842 131.098 C 3.229 129.944,3.518 128.461,3.518 127.630 C 3.518 126.310,4.059 123.904,4.591 122.860 C 4.708 122.632,4.888 122.023,4.992 121.507 C 5.268 120.142,6.075 118.195,6.174 118.657 C 6.221 118.874,5.892 120.199,5.442 121.601 M91.567 126.768 C 92.138 127.051,92.930 127.773,93.326 128.372 L 94.046 129.460 94.046 148.965 C 94.046 169.553,94.053 169.428,92.909 170.787 C 91.495 172.467,92.700 172.395,66.049 172.395 C 38.756 172.395,40.228 172.499,38.913 170.472 C 37.886 168.888,37.840 167.793,37.938 147.632 C 38.040 126.627,37.911 127.427,41.339 126.495 C 43.713 125.850,90.227 126.102,91.567 126.768 M3.684 132.861 C 3.664 133.893,3.572 134.318,3.424 134.054 C 3.225 133.702,3.408 131.258,3.632 131.258 C 3.677 131.258,3.700 131.979,3.684 132.861 M2.078 146.482 C 1.651 149.027,1.597 149.789,1.874 149.391 C 2.107 149.056,2.158 149.092,2.161 149.594 C 2.163 149.929,2.275 150.173,2.409 150.135 C 2.731 150.046,2.706 149.166,2.706 160.638 C 2.706 167.346,2.614 170.746,2.436 170.636 C 2.285 170.543,2.163 170.747,2.161 171.094 C 2.158 171.607,2.106 171.646,1.874 171.313 C 1.669 171.017,1.638 171.239,1.761 172.124 C 2.253 175.665,2.298 175.595,1.190 172.995 C 0.482 171.331,0.651 149.499,1.390 147.313 C 2.019 145.448,2.310 145.097,2.078 146.482 M1.475 160.352 C 1.475 165.710,1.511 167.941,1.556 165.309 C 1.600 162.676,1.600 158.292,1.556 155.566 C 1.512 152.839,1.475 154.993,1.475 160.352 M2.016 160.352 C 2.016 165.413,2.053 167.445,2.097 164.868 C 2.142 162.290,2.142 158.150,2.097 155.666 C 2.052 153.182,2.016 155.291,2.016 160.352 M2.694 187.821 C 2.782 186.995,2.818 187.065,2.977 188.363 C 3.125 189.569,3.172 189.672,3.227 188.904 L 3.294 187.957 3.547 188.769 C 3.687 189.215,3.775 190.160,3.743 190.868 C 3.711 191.581,3.829 192.300,4.008 192.479 C 4.400 192.871,4.430 193.682,4.060 193.911 C 3.911 194.003,3.789 194.443,3.789 194.890 C 3.789 195.336,3.898 195.634,4.031 195.552 C 4.435 195.302,4.595 196.149,4.205 196.473 C 3.934 196.698,3.801 196.686,3.683 196.425 C 3.596 196.233,3.580 196.624,3.647 197.294 C 3.746 198.272,3.719 198.378,3.513 197.835 C 3.254 197.152,3.271 197.482,3.650 200.541 C 3.715 201.062,3.700 201.245,3.617 200.947 C 3.534 200.650,3.356 200.290,3.221 200.149 C 3.087 200.007,2.977 199.627,2.977 199.302 C 2.977 198.978,2.813 198.577,2.613 198.411 C 2.089 197.976,1.845 192.122,2.095 185.972 L 2.300 180.920 2.447 184.844 C 2.528 187.003,2.639 188.342,2.694 187.821 M3.310 194.317 C 3.310 194.838,3.366 195.051,3.434 194.790 C 3.502 194.530,3.502 194.104,3.434 193.843 C 3.366 193.583,3.310 193.796,3.310 194.317 M4.109 207.255 C 4.156 210.508,4.168 210.575,4.330 208.525 L 4.502 206.360 4.601 208.660 C 4.682 210.519,4.720 210.688,4.800 209.540 C 4.855 208.758,5.001 208.119,5.125 208.119 C 5.539 208.119,5.597 209.381,5.244 210.719 C 5.052 211.447,4.874 212.348,4.848 212.720 C 4.809 213.271,4.763 213.221,4.601 212.449 C 4.226 210.669,4.330 212.580,4.732 214.866 C 5.200 217.521,5.127 217.855,4.476 216.045 C 3.610 213.638,3.030 203.185,3.789 203.654 C 3.942 203.748,4.081 205.314,4.109 207.255 M5.267 213.399 C 4.894 214.680,4.880 214.694,5.005 213.667 C 5.077 213.072,5.137 212.347,5.139 212.057 C 5.141 211.720,5.236 211.623,5.401 211.788 C 5.567 211.954,5.518 212.537,5.267 213.399 M5.822 224.607 L 6.008 225.846 6.416 224.628 C 6.884 223.232,7.199 222.780,6.934 223.884 C 6.823 224.348,6.866 224.628,7.050 224.628 C 7.220 224.628,7.272 224.854,7.172 225.167 C 7.041 225.582,7.100 225.669,7.425 225.544 C 7.658 225.455,7.848 225.517,7.848 225.681 C 7.848 225.846,7.696 225.987,7.510 225.993 C 7.324 226.000,7.537 226.184,7.984 226.403 C 8.430 226.622,8.603 226.750,8.367 226.688 C 8.131 226.625,7.939 226.733,7.939 226.928 C 7.939 227.123,8.103 227.220,8.303 227.143 C 8.708 226.987,9.472 227.516,9.472 227.951 C 9.472 228.104,9.198 227.998,8.863 227.714 L 8.254 227.199 8.764 227.801 C 9.045 228.133,9.380 228.338,9.510 228.258 C 9.640 228.178,9.824 228.312,9.918 228.558 C 10.056 228.918,10.138 228.934,10.345 228.642 C 10.528 228.385,10.564 228.456,10.468 228.890 C 10.395 229.225,10.388 229.499,10.454 229.499 C 10.519 229.499,10.682 229.225,10.817 228.890 L 11.062 228.281 11.079 228.924 C 11.093 229.463,11.161 229.512,11.502 229.229 C 11.843 228.945,11.909 228.994,11.917 229.534 C 11.925 230.136,11.949 230.145,12.296 229.687 C 12.651 229.219,12.685 229.222,13.067 229.768 C 13.421 230.273,13.512 230.292,13.870 229.934 C 14.200 229.605,14.590 229.576,16.000 229.780 C 16.950 229.917,19.036 230.032,20.636 230.035 C 22.392 230.038,23.545 230.148,23.545 230.311 C 23.545 230.480,21.680 230.604,18.606 230.640 L 13.667 230.699 18.674 230.853 L 23.681 231.006 18.809 231.120 L 13.938 231.234 18.855 231.382 C 25.565 231.583,25.434 231.936,18.651 231.930 C 7.357 231.921,5.088 230.213,5.181 221.790 L 5.219 218.268 5.428 220.818 C 5.542 222.221,5.720 223.926,5.822 224.607 M6.348 223.398 C 6.244 224.088,6.099 224.592,6.024 224.518 C 5.950 224.443,5.973 223.817,6.077 223.127 C 6.181 222.437,6.326 221.933,6.401 222.007 C 6.475 222.082,6.451 222.707,6.348 223.398 M11.469 225.535 C 12.221 225.925,11.947 226.458,10.784 226.868 C 10.221 227.067,9.909 226.080,10.369 225.555 C 10.766 225.103,10.641 225.105,11.469 225.535 M8.255 228.372 C 8.701 228.869,9.310 229.401,9.608 229.556 C 9.905 229.710,10.027 229.730,9.878 229.599 C 9.729 229.469,9.121 228.937,8.526 228.416 L 7.444 227.470 8.255 228.372 M7.436 228.496 C 7.933 229.263,10.190 230.766,10.452 230.504 C 10.531 230.425,10.325 230.275,9.995 230.170 C 9.664 230.065,8.843 229.475,8.170 228.860 C 7.183 227.956,7.041 227.886,7.436 228.496 M184.303 230.311 C 184.303 230.491,169.102 230.582,139.242 230.582 C 109.382 230.582,94.181 230.491,94.181 230.311 C 94.181 230.132,109.382 230.041,139.242 230.041 C 169.102 230.041,184.303 230.132,184.303 230.311 M161.751 231.055 C 149.273 231.094,128.935 231.094,116.555 231.055 C 104.175 231.017,114.384 230.985,139.242 230.985 C 164.100 230.985,174.229 231.017,161.751 231.055 " stroke="none" fill="#abacae" fill-rule="evenodd"></path><path id="path1" d="M185.356 0.928 C 184.881 2.242,188.072 2.157,138.647 2.161 C 91.899 2.165,91.711 2.169,89.581 3.256 C 88.332 3.893,86.062 6.500,86.062 7.297 C 86.062 7.452,85.711 8.279,85.282 9.135 C 84.852 9.990,84.353 11.116,84.173 11.637 C 83.168 14.540,82.579 15.998,82.052 16.893 C 81.727 17.443,81.461 18.072,81.461 18.291 C 81.461 18.510,81.096 19.413,80.650 20.298 C 80.203 21.182,79.838 22.039,79.838 22.201 C 79.838 22.364,79.551 23.129,79.200 23.901 C 78.849 24.673,78.433 25.670,78.275 26.116 C 77.743 27.624,76.569 30.442,76.172 31.165 C 75.955 31.560,75.778 32.050,75.778 32.255 C 75.778 32.459,75.413 33.331,74.966 34.191 C 74.520 35.052,74.154 35.972,74.154 36.236 C 74.154 36.499,73.850 37.314,73.479 38.046 C 73.107 38.778,72.803 39.503,72.802 39.656 C 72.802 39.809,72.436 40.638,71.989 41.499 C 71.543 42.359,71.177 43.232,71.177 43.439 C 71.177 43.645,70.873 44.387,70.501 45.087 C 70.129 45.787,69.824 46.558,69.824 46.800 C 69.824 47.043,69.459 47.945,69.012 48.806 C 68.566 49.666,68.200 50.538,68.200 50.743 C 68.200 51.171,67.150 53.797,66.035 56.157 C 65.014 58.317,63.870 61.131,63.870 61.481 C 63.870 61.635,63.566 62.368,63.194 63.109 C 62.821 63.850,62.517 64.635,62.517 64.854 C 62.517 65.073,62.152 65.909,61.705 66.712 C 61.258 67.514,60.893 68.403,60.893 68.687 C 60.893 68.970,60.589 69.775,60.217 70.475 C 59.844 71.175,59.540 71.920,59.540 72.130 C 59.540 72.341,59.268 73.035,58.935 73.672 C 58.156 75.165,56.573 79.060,56.567 79.500 C 56.565 79.686,56.211 80.539,55.782 81.394 C 55.352 82.250,54.790 83.559,54.534 84.303 C 53.559 87.130,53.051 88.313,52.597 88.815 C 52.179 89.276,52.177 89.314,52.574 89.162 C 53.226 88.912,53.029 89.374,64.559 61.028 C 65.710 58.200,67.721 53.268,69.029 50.068 C 70.337 46.867,72.499 41.570,73.833 38.295 C 75.167 35.020,77.381 29.601,78.753 26.252 C 80.125 22.903,82.339 17.485,83.673 14.212 C 87.019 6.001,89.020 3.211,91.532 3.254 C 91.724 3.257,91.384 3.485,90.777 3.761 C 89.661 4.268,87.874 5.905,87.348 6.901 C 87.191 7.199,87.640 6.803,88.347 6.022 C 89.053 5.240,89.767 4.601,89.933 4.601 C 90.099 4.601,89.692 5.179,89.028 5.886 C 87.863 7.127,87.860 7.136,88.921 6.151 C 89.526 5.590,90.124 5.225,90.250 5.340 C 90.376 5.454,90.392 5.396,90.285 5.210 C 90.177 5.024,90.209 4.871,90.354 4.871 C 90.499 4.871,90.679 5.024,90.754 5.210 C 90.859 5.470,90.896 5.466,90.912 5.194 C 90.924 4.999,91.071 4.925,91.239 5.028 C 91.422 5.141,91.497 5.072,91.426 4.858 C 91.360 4.661,91.144 4.445,90.947 4.380 C 90.735 4.309,90.664 4.384,90.775 4.563 C 90.897 4.760,90.804 4.805,90.510 4.692 C 90.123 4.543,90.150 4.468,90.699 4.163 C 91.394 3.778,92.104 3.655,91.530 4.020 C 91.249 4.198,91.263 4.313,91.597 4.590 C 91.949 4.882,92.016 4.859,92.016 4.445 C 92.016 4.061,92.088 4.023,92.341 4.276 C 92.795 4.730,93.099 4.681,93.099 4.153 C 93.099 3.744,93.144 3.746,93.618 4.175 C 94.112 4.622,94.162 4.620,94.633 4.149 C 95.265 3.517,184.763 3.499,185.165 4.131 C 185.314 4.366,185.379 4.325,185.382 3.992 C 185.384 3.731,185.507 3.518,185.656 3.518 C 185.805 3.518,185.927 3.721,185.927 3.969 C 185.927 4.217,186.004 4.343,186.098 4.249 C 186.192 4.155,186.634 4.591,187.079 5.219 C 187.525 5.846,188.117 6.604,188.395 6.901 C 189.664 8.259,190.335 9.293,190.551 10.224 C 190.878 11.631,190.844 19.906,190.506 21.375 C 190.119 23.055,186.041 28.145,185.400 27.749 C 185.241 27.650,185.115 27.788,185.115 28.063 C 185.115 28.533,183.556 28.552,145.940 28.552 C 112.028 28.552,106.675 28.605,106.089 28.948 C 105.717 29.166,105.332 29.349,105.232 29.354 C 105.133 29.360,104.950 29.475,104.826 29.610 C 104.693 29.756,104.757 29.766,104.985 29.634 C 105.257 29.476,105.325 29.522,105.217 29.793 C 103.631 33.781,99.086 44.899,98.590 46.008 C 98.223 46.827,97.153 49.445,96.211 51.827 C 95.269 54.208,93.324 59.019,91.888 62.517 C 90.452 66.015,88.014 71.982,86.469 75.778 C 84.925 79.574,82.912 84.506,81.997 86.739 C 76.826 99.352,76.734 99.647,77.888 99.951 C 78.291 100.057,78.293 100.077,77.909 100.104 C 77.364 100.143,76.957 99.670,76.771 98.782 C 76.693 98.410,76.653 98.618,76.683 99.245 L 76.738 100.385 76.157 99.839 L 75.576 99.294 75.432 100.048 C 75.298 100.751,75.313 100.767,75.668 100.281 C 76.122 99.661,76.151 99.832,75.764 100.849 C 75.480 101.596,75.481 101.597,76.046 101.085 C 76.541 100.637,76.590 100.631,76.435 101.035 C 76.280 101.439,76.351 101.463,76.983 101.223 C 77.466 101.039,95.609 100.947,131.411 100.947 L 185.115 100.947 185.115 101.522 C 185.115 102.002,185.182 102.041,185.521 101.759 C 185.846 101.489,185.927 101.492,185.927 101.771 C 185.927 101.963,185.997 102.050,186.083 101.964 C 186.245 101.802,188.545 104.117,188.435 104.332 C 188.401 104.400,188.888 104.936,189.518 105.523 L 190.663 106.591 190.744 116.421 C 190.825 126.222,190.824 126.255,190.203 127.470 C 188.930 129.961,192.030 129.751,154.127 129.905 C 121.223 130.039,120.827 130.047,119.781 130.596 C 117.816 131.626,117.144 134.102,118.346 135.887 C 119.589 137.734,117.129 137.604,153.857 137.754 C 190.201 137.901,188.189 137.808,189.611 139.410 C 191.022 141.001,191.443 151.794,190.189 154.267 C 188.921 156.768,192.214 156.545,154.398 156.698 C 124.455 156.820,121.014 156.878,120.162 157.272 C 117.109 158.686,116.891 162.611,119.781 164.127 C 120.827 164.676,121.222 164.684,154.263 164.817 C 173.128 164.894,187.922 165.059,188.227 165.196 C 190.942 166.416,190.799 164.729,190.795 195.500 C 190.792 224.195,190.789 224.286,189.859 225.235 C 189.530 225.571,189.150 226.041,189.015 226.280 C 188.488 227.209,186.372 229.472,186.156 229.338 C 186.030 229.260,185.927 229.326,185.927 229.483 C 185.927 229.641,185.775 229.740,185.589 229.702 C 185.381 229.661,185.220 230.000,185.170 230.582 L 185.090 231.529 139.753 231.458 C 110.468 231.413,94.254 231.482,93.960 231.653 C 93.661 231.827,109.223 231.921,139.296 231.927 L 185.087 231.935 185.169 245.535 C 185.234 256.372,185.326 259.299,185.623 259.946 C 187.993 265.112,188.660 265.359,200.271 265.359 C 212.167 265.359,213.141 264.996,215.175 259.811 C 215.467 259.065,215.565 256.027,215.633 245.535 C 215.687 237.300,215.820 232.206,215.979 232.206 C 216.122 232.206,216.238 232.084,216.238 231.935 C 216.238 231.786,216.086 231.662,215.900 231.660 C 215.714 231.657,214.892 230.841,214.073 229.846 C 213.254 228.851,212.230 227.690,211.797 227.266 C 210.141 225.644,210.178 226.290,210.079 197.083 C 209.974 166.056,209.901 167.011,212.478 165.494 C 213.380 164.962,214.009 164.950,248.579 164.817 C 287.687 164.667,285.152 164.798,286.326 162.871 C 287.162 161.501,287.078 159.418,286.143 158.306 C 284.577 156.446,287.230 156.577,248.261 156.428 C 208.896 156.276,212.495 156.461,211.042 154.515 C 209.631 152.626,209.632 141.855,211.042 139.920 C 212.414 138.039,209.711 138.175,248.850 138.024 C 282.061 137.897,284.082 137.862,284.924 137.402 C 287.578 135.953,287.555 131.904,284.883 130.373 C 284.436 130.117,276.220 130.010,249.120 129.905 L 213.938 129.770 212.669 129.145 C 210.233 127.945,210.149 127.538,210.149 116.915 C 210.149 105.740,210.100 105.968,213.310 102.436 C 214.528 101.096,215.685 99.961,215.881 99.912 C 216.295 99.811,216.371 99.053,215.968 99.053 C 215.789 99.053,215.697 87.280,215.697 64.276 C 215.697 41.272,215.789 29.499,215.968 29.499 C 216.365 29.499,216.298 28.959,215.900 28.951 C 215.714 28.947,214.770 28.011,213.802 26.871 C 212.835 25.731,211.772 24.536,211.441 24.214 C 210.484 23.287,210.170 21.182,210.170 15.697 C 210.170 8.271,210.166 8.284,214.679 3.489 C 215.533 2.581,216.045 1.911,215.815 1.999 C 215.586 2.087,215.464 2.052,215.544 1.922 C 215.625 1.792,215.558 1.307,215.397 0.843 L 215.103 0.000 200.397 0.000 L 185.691 -0.000 185.356 0.928 M94.655 2.893 C 94.394 2.961,93.968 2.961,93.708 2.893 C 93.447 2.825,93.660 2.769,94.181 2.769 C 94.702 2.769,94.915 2.825,94.655 2.893 M185.115 64.109 L 185.115 99.260 184.506 99.423 C 183.688 99.643,79.923 99.577,78.894 99.357 C 77.598 99.080,77.871 97.200,79.730 93.603 C 80.087 92.913,80.379 92.162,80.379 91.934 C 80.379 91.706,80.674 90.931,81.034 90.212 C 81.395 89.492,81.781 88.539,81.891 88.092 C 82.002 87.645,82.377 86.770,82.724 86.145 C 83.072 85.521,83.356 84.785,83.356 84.508 C 83.356 84.232,83.466 83.890,83.601 83.748 C 83.736 83.607,84.417 82.091,85.114 80.379 C 85.811 78.667,86.735 76.465,87.169 75.486 C 87.602 74.506,87.957 73.532,87.958 73.321 C 87.958 73.109,88.202 72.538,88.499 72.050 C 88.796 71.563,89.039 70.978,89.039 70.750 C 89.039 70.522,89.405 69.599,89.851 68.699 C 90.298 67.799,90.663 66.916,90.663 66.737 C 90.663 66.558,90.946 65.810,91.293 65.073 C 92.073 63.415,92.951 61.297,93.811 59.004 C 94.173 58.039,94.586 57.132,94.731 56.988 C 94.875 56.843,94.993 56.504,94.993 56.233 C 94.993 55.962,95.359 55.056,95.805 54.219 C 96.252 53.382,96.617 52.459,96.617 52.166 C 96.617 51.874,96.922 51.029,97.294 50.288 C 97.666 49.547,97.970 48.724,97.970 48.459 C 97.970 48.195,98.275 47.529,98.647 46.981 C 99.019 46.433,99.323 45.791,99.323 45.554 C 99.323 45.318,99.553 44.745,99.833 44.281 C 100.113 43.817,100.617 42.645,100.953 41.678 C 101.289 40.710,101.729 39.679,101.932 39.385 C 102.135 39.091,102.300 38.631,102.300 38.362 C 102.300 38.094,102.666 37.150,103.112 36.265 C 103.559 35.381,103.926 34.440,103.927 34.176 C 103.929 33.911,104.234 33.164,104.604 32.516 C 104.974 31.869,105.281 31.138,105.286 30.893 C 105.297 30.340,105.783 29.693,106.495 29.285 C 106.895 29.056,117.222 28.972,146.076 28.966 L 185.115 28.958 185.115 64.109 M100.144 39.378 C 100.144 40.010,100.596 40.383,100.781 39.903 C 100.879 39.646,100.896 39.372,100.818 39.294 C 100.740 39.216,100.675 39.325,100.672 39.535 C 100.669 39.851,100.622 39.847,100.406 39.513 C 100.262 39.290,100.144 39.229,100.144 39.378 M5.635 119.415 C 5.386 120.049,5.096 120.991,4.992 121.507 C 4.888 122.023,4.708 122.632,4.592 122.860 C 4.182 123.666,3.722 125.735,3.508 127.740 C 3.389 128.857,3.085 130.440,2.832 131.258 C 2.500 132.334,2.355 133.910,2.309 136.942 C 2.274 139.249,2.294 140.225,2.353 139.111 C 2.428 137.712,2.539 137.210,2.715 137.487 C 2.908 137.793,2.978 137.696,3.008 137.077 C 3.048 136.269,3.049 136.270,3.248 137.212 C 3.442 138.138,3.448 138.130,3.483 136.874 C 3.502 136.167,3.640 135.589,3.789 135.589 C 3.938 135.589,4.060 135.454,4.060 135.289 C 4.060 135.124,3.877 135.060,3.654 135.145 C 3.354 135.260,3.249 135.109,3.252 134.565 C 3.254 134.149,3.342 133.964,3.455 134.140 C 3.564 134.311,3.667 133.732,3.684 132.854 C 3.723 130.736,3.625 130.841,3.220 133.350 C 3.035 134.500,2.832 135.288,2.770 135.102 C 2.707 134.915,2.907 133.517,3.213 131.995 C 3.519 130.474,3.964 128.080,4.202 126.676 C 4.440 125.271,5.000 122.982,5.447 121.587 C 6.292 118.948,6.426 117.406,5.635 119.415 M41.339 126.495 C 37.911 127.427,38.040 126.627,37.938 147.632 C 37.840 167.793,37.886 168.888,38.913 170.472 C 40.228 172.499,38.756 172.395,66.049 172.395 C 92.700 172.395,91.495 172.467,92.909 170.787 C 94.053 169.428,94.046 169.553,94.046 148.965 L 94.046 129.460 93.326 128.372 C 91.832 126.115,93.599 126.258,66.576 126.199 C 47.717 126.157,42.352 126.220,41.339 126.495 M305.982 126.397 C 302.943 127.307,302.977 127.045,302.977 149.391 L 302.977 168.742 303.654 170.090 C 304.976 172.726,302.806 172.520,330.166 172.605 C 358.931 172.695,357.987 172.803,359.007 169.295 C 359.653 167.074,359.483 129.887,358.821 128.687 C 358.215 127.589,357.290 126.795,356.184 126.424 C 355.071 126.052,307.224 126.026,305.982 126.397 M1.767 146.117 C 0.461 150.235,0.589 172.707,1.931 174.831 C 2.178 175.221,2.147 174.786,1.721 171.854 C 1.617 171.138,1.653 171.006,1.870 171.313 C 2.107 171.647,2.158 171.609,2.161 171.094 C 2.163 170.747,2.285 170.543,2.436 170.636 C 2.614 170.746,2.706 167.346,2.706 160.638 C 2.706 149.166,2.731 150.046,2.409 150.135 C 2.275 150.173,2.163 149.929,2.161 149.594 C 2.158 149.092,2.107 149.056,1.874 149.391 C 1.597 149.789,1.651 149.027,2.078 146.482 C 2.238 145.527,2.032 145.285,1.767 146.117 M1.556 165.309 C 1.511 167.941,1.475 165.710,1.475 160.352 C 1.475 154.993,1.512 152.839,1.556 155.566 C 1.600 158.292,1.600 162.676,1.556 165.309 M2.097 164.868 C 2.053 167.445,2.016 165.413,2.016 160.352 C 2.016 155.291,2.052 153.182,2.097 155.666 C 2.142 158.150,2.142 162.290,2.097 164.868 M2.162 184.438 C 1.925 190.740,2.512 199.129,3.259 200.135 C 3.370 200.284,3.529 200.650,3.614 200.947 C 3.699 201.245,3.715 201.062,3.650 200.541 C 3.271 197.482,3.254 197.152,3.513 197.835 C 3.719 198.378,3.746 198.272,3.647 197.294 C 3.580 196.624,3.596 196.233,3.683 196.425 C 3.801 196.686,3.934 196.698,4.205 196.473 C 4.595 196.149,4.435 195.302,4.031 195.552 C 3.898 195.634,3.789 195.336,3.789 194.890 C 3.789 194.443,3.911 194.003,4.060 193.911 C 4.430 193.682,4.400 192.871,4.008 192.479 C 3.829 192.300,3.711 191.581,3.743 190.868 C 3.775 190.160,3.687 189.215,3.547 188.769 L 3.294 187.957 3.227 188.904 C 3.172 189.672,3.125 189.569,2.977 188.363 C 2.818 187.065,2.782 186.995,2.694 187.821 C 2.639 188.342,2.526 187.003,2.444 184.844 L 2.294 180.920 2.162 184.438 M3.434 194.790 C 3.366 195.051,3.310 194.838,3.310 194.317 C 3.310 193.796,3.366 193.583,3.434 193.843 C 3.502 194.104,3.502 194.530,3.434 194.790 M3.530 206.953 C 3.544 211.021,3.815 213.605,4.457 215.785 C 5.098 217.960,5.211 217.584,4.732 214.866 C 4.330 212.580,4.226 210.669,4.601 212.449 C 4.763 213.221,4.809 213.271,4.848 212.720 C 4.874 212.348,5.052 211.447,5.244 210.719 C 5.597 209.381,5.539 208.119,5.125 208.119 C 5.001 208.119,4.855 208.758,4.800 209.540 C 4.720 210.688,4.682 210.519,4.601 208.660 L 4.502 206.360 4.330 208.525 C 4.168 210.575,4.156 210.508,4.109 207.255 C 4.081 205.314,3.942 203.748,3.789 203.654 C 3.614 203.545,3.522 204.708,3.530 206.953 M5.139 212.057 C 5.137 212.347,5.077 213.072,5.005 213.667 C 4.880 214.694,4.894 214.680,5.267 213.399 C 5.518 212.537,5.567 211.954,5.401 211.788 C 5.236 211.623,5.141 211.720,5.139 212.057 M5.181 221.391 C 5.073 230.122,7.459 231.917,19.193 231.930 C 25.537 231.937,25.314 231.575,18.855 231.382 L 13.938 231.234 18.809 231.120 L 23.681 231.006 18.674 230.853 L 13.667 230.699 18.606 230.640 C 21.680 230.604,23.545 230.480,23.545 230.311 C 23.545 230.148,22.392 230.038,20.636 230.035 C 19.036 230.032,16.950 229.917,16.000 229.780 C 14.590 229.576,14.200 229.605,13.870 229.934 C 13.512 230.292,13.421 230.273,13.067 229.768 C 12.685 229.222,12.651 229.219,12.296 229.687 C 11.949 230.145,11.925 230.136,11.917 229.534 C 11.909 228.994,11.843 228.945,11.502 229.229 C 11.161 229.512,11.093 229.463,11.079 228.924 L 11.062 228.281 10.817 228.890 C 10.682 229.225,10.519 229.499,10.454 229.499 C 10.388 229.499,10.395 229.225,10.468 228.890 C 10.564 228.456,10.528 228.385,10.345 228.642 C 10.138 228.934,10.056 228.918,9.918 228.558 C 9.824 228.312,9.640 228.178,9.510 228.258 C 9.380 228.338,9.045 228.133,8.764 227.801 L 8.254 227.199 8.863 227.714 C 9.198 227.998,9.472 228.104,9.472 227.951 C 9.472 227.516,8.708 226.987,8.303 227.143 C 8.103 227.220,7.939 227.123,7.939 226.928 C 7.939 226.733,8.131 226.625,8.367 226.688 C 8.603 226.750,8.430 226.622,7.984 226.403 C 7.537 226.184,7.324 226.000,7.510 225.993 C 7.696 225.987,7.848 225.846,7.848 225.681 C 7.848 225.517,7.658 225.455,7.425 225.544 C 7.100 225.669,7.041 225.582,7.172 225.167 C 7.272 224.854,7.220 224.628,7.050 224.628 C 6.866 224.628,6.823 224.348,6.934 223.884 C 7.199 222.780,6.884 223.232,6.416 224.628 L 6.008 225.846 5.822 224.607 C 5.720 223.926,5.542 222.221,5.428 220.818 L 5.219 218.268 5.181 221.391 M6.077 223.127 C 5.973 223.817,5.950 224.443,6.024 224.518 C 6.099 224.592,6.244 224.088,6.348 223.398 C 6.451 222.707,6.475 222.082,6.401 222.007 C 6.326 221.933,6.181 222.437,6.077 223.127 M10.369 225.555 C 9.909 226.080,10.221 227.067,10.784 226.868 C 11.947 226.458,12.221 225.925,11.469 225.535 C 10.641 225.105,10.766 225.103,10.369 225.555 M9.878 229.599 C 10.027 229.730,9.905 229.710,9.608 229.556 C 9.310 229.401,8.701 228.869,8.255 228.372 L 7.444 227.470 8.526 228.416 C 9.121 228.937,9.729 229.469,9.878 229.599 M9.995 230.170 C 10.325 230.275,10.531 230.425,10.452 230.504 C 10.190 230.766,7.933 229.263,7.436 228.496 C 7.041 227.886,7.183 227.956,8.170 228.860 C 8.843 229.475,9.664 230.065,9.995 230.170 M94.181 230.311 C 94.181 230.491,109.382 230.582,139.242 230.582 C 169.102 230.582,184.303 230.491,184.303 230.311 C 184.303 230.132,169.102 230.041,139.242 230.041 C 109.382 230.041,94.181 230.132,94.181 230.311 M116.555 231.055 C 128.935 231.094,149.273 231.094,161.751 231.055 C 174.229 231.017,164.100 230.985,139.242 230.985 C 114.384 230.985,104.175 231.017,116.555 231.055 " stroke="none" fill="#6d0204" fill-rule="evenodd"></path><path id="path2" d="" stroke="none" fill="#ffffff" fill-rule="evenodd"></path><path id="path3" d="M215.663 1.751 C 215.644 1.830,215.614 2.019,215.595 2.172 C 215.565 2.424,215.013 3.081,211.847 6.629 C 209.655 9.086,209.353 22.190,211.441 24.214 C 211.772 24.536,212.835 25.731,213.802 26.871 C 214.770 28.011,215.714 28.947,215.900 28.951 C 216.086 28.955,216.238 29.080,216.238 29.229 C 216.238 29.408,228.848 29.501,253.518 29.503 C 274.022 29.506,290.934 29.597,291.099 29.706 C 291.515 29.982,292.115 31.202,293.638 34.873 C 294.357 36.606,295.999 40.521,297.288 43.572 C 298.576 46.624,300.479 51.172,301.517 53.680 C 302.555 56.187,303.639 58.745,303.926 59.363 C 304.212 59.981,304.986 61.827,305.646 63.464 C 306.689 66.053,307.936 69.045,309.877 73.613 C 310.161 74.283,310.752 75.683,311.190 76.725 C 316.201 88.644,317.276 91.189,317.609 91.922 C 317.823 92.391,317.997 92.844,317.997 92.929 C 317.997 93.013,318.280 93.726,318.627 94.512 C 320.067 97.784,320.224 98.231,320.070 98.632 C 319.925 99.010,314.697 99.053,268.073 99.053 C 223.362 99.053,216.238 99.106,216.238 99.439 C 216.238 99.651,216.078 99.864,215.881 99.912 C 215.685 99.961,214.528 101.096,213.310 102.436 C 210.100 105.968,210.149 105.740,210.149 116.915 C 210.149 127.538,210.233 127.945,212.669 129.145 L 213.938 129.770 249.120 129.905 C 276.220 130.010,284.436 130.117,284.883 130.373 C 287.555 131.904,287.578 135.953,284.924 137.402 C 284.082 137.862,282.061 137.897,248.850 138.024 C 209.711 138.175,212.414 138.039,211.042 139.920 C 209.632 141.855,209.631 152.626,211.042 154.515 C 212.495 156.461,208.896 156.276,248.261 156.428 C 287.230 156.577,284.577 156.446,286.143 158.306 C 287.078 159.418,287.162 161.501,286.326 162.871 C 285.152 164.798,287.687 164.667,248.579 164.817 C 214.009 164.950,213.380 164.962,212.478 165.494 C 209.901 167.011,209.974 166.056,210.079 197.083 C 210.178 226.290,210.141 225.644,211.797 227.266 C 212.230 227.690,213.254 228.851,214.073 229.846 C 214.892 230.841,215.714 231.657,215.900 231.660 C 216.086 231.662,216.238 231.786,216.238 231.935 C 216.238 232.114,229.905 232.206,256.698 232.206 L 297.158 232.206 297.161 240.934 C 297.164 250.618,297.400 252.354,299.344 256.927 C 301.260 261.438,305.712 266.769,309.841 269.498 L 311.564 270.636 332.309 270.636 L 353.054 270.636 354.132 269.917 C 364.003 263.327,367.522 255.575,367.523 240.415 L 367.524 232.250 375.034 232.149 C 386.897 231.989,387.538 231.478,389.206 220.839 C 389.334 220.020,389.562 217.197,389.712 214.565 C 389.862 211.932,390.170 209.009,390.397 208.069 C 390.663 206.965,390.905 203.774,391.082 199.053 C 391.231 195.034,391.533 190.710,391.752 189.445 C 392.870 182.983,392.949 146.658,391.853 143.155 C 391.692 142.640,391.404 140.514,391.212 138.430 C 390.654 132.380,389.064 126.372,386.863 121.999 C 385.396 119.085,385.141 119.258,391.204 119.046 C 396.276 118.869,397.567 118.611,399.206 117.443 L 400.000 116.878 400.000 102.849 L 400.000 88.819 397.980 87.978 C 394.958 86.720,391.443 85.885,386.468 85.242 C 384.012 84.925,381.051 84.544,379.889 84.395 C 378.639 84.235,373.385 84.174,367.034 84.246 C 354.022 84.392,353.076 84.549,348.538 87.305 C 346.540 88.519,346.329 88.390,345.073 85.171 C 344.596 83.950,343.855 82.158,343.426 81.191 C 342.997 80.223,341.833 77.483,340.840 75.101 C 339.847 72.720,338.673 69.919,338.232 68.877 C 337.790 67.835,336.903 65.704,336.261 64.141 C 335.618 62.578,334.037 58.802,332.747 55.751 C 327.806 44.066,325.260 37.988,322.203 30.582 C 321.128 27.977,319.676 24.506,318.976 22.869 C 318.276 21.231,317.325 18.978,316.863 17.862 C 315.744 15.161,315.461 14.500,314.607 12.585 C 314.209 11.691,313.464 9.926,312.952 8.660 C 311.354 4.708,309.891 3.156,306.895 2.233 C 305.443 1.786,215.767 1.313,215.663 1.751 M117.659 2.097 C 129.902 2.136,149.936 2.136,162.179 2.097 C 174.422 2.058,164.405 2.027,139.919 2.027 C 115.433 2.027,105.416 2.058,117.659 2.097 M105.594 99.526 C 119.984 99.565,143.610 99.565,158.098 99.526 C 172.585 99.488,160.812 99.456,131.935 99.456 C 103.058 99.456,91.205 99.488,105.594 99.526 M356.184 126.424 C 357.290 126.795,358.215 127.589,358.821 128.687 C 359.483 129.887,359.653 167.074,359.007 169.295 C 357.987 172.803,358.931 172.695,330.166 172.605 C 302.806 172.520,304.976 172.726,303.654 170.090 L 302.977 168.742 302.977 149.391 C 302.977 127.045,302.943 127.307,305.982 126.397 C 307.224 126.026,355.071 126.052,356.184 126.424 M0.932 148.699 C 0.830 149.243,0.815 149.755,0.897 149.837 C 0.980 149.920,1.131 149.543,1.233 149.000 C 1.335 148.457,1.350 147.945,1.268 147.862 C 1.185 147.780,1.034 148.156,0.932 148.699 M0.835 171.583 C 0.827 171.955,0.938 172.442,1.083 172.666 C 1.427 173.198,1.427 172.249,1.083 171.448 C 0.870 170.952,0.849 170.964,0.835 171.583 M1.992 191.069 C 1.992 192.483,2.038 193.062,2.093 192.355 C 2.149 191.647,2.149 190.491,2.093 189.783 C 2.038 189.076,1.992 189.655,1.992 191.069 M2.186 196.127 C 2.175 197.198,2.273 198.140,2.404 198.221 C 2.538 198.304,2.588 197.568,2.517 196.546 C 2.341 193.999,2.212 193.836,2.186 196.127 " stroke="none" fill="#feffff" fill-rule="evenodd"></path></g></svg>