<svg id="svg" version="1.1" width="400" height="291.39072847682115" viewBox="0 0 400 291.39072847682115" xmlns="http://www.w3.org/2000/svg" xmlns:xlink="http://www.w3.org/1999/xlink" ><g id="svgg"><path id="path0" d="M151.408 25.292 C 177.358 25.333,219.734 25.333,245.578 25.292 C 271.421 25.250,250.190 25.217,198.397 25.217 C 146.603 25.217,125.459 25.250,151.408 25.292 M28.936 73.979 C 31.622 74.027,36.017 74.027,38.703 73.979 C 41.388 73.931,39.191 73.892,33.819 73.892 C 28.448 73.892,26.250 73.931,28.936 73.979 M360.258 73.979 C 363.014 74.027,367.606 74.027,370.462 73.979 C 373.319 73.931,371.064 73.892,365.452 73.892 C 359.840 73.892,357.502 73.931,360.258 73.979 M317.274 84.458 C 317.555 84.531,318.014 84.531,318.294 84.458 C 318.575 84.384,318.345 84.324,317.784 84.324 C 317.223 84.324,316.993 84.384,317.274 84.458 M13.211 112.755 C 15.907 112.803,20.236 112.803,22.832 112.754 C 25.427 112.706,23.222 112.667,17.930 112.667 C 12.638 112.667,10.515 112.707,13.211 112.755 M377.187 112.755 C 379.792 112.803,384.056 112.803,386.662 112.755 C 389.267 112.706,387.136 112.667,381.924 112.667 C 376.713 112.667,374.581 112.706,377.187 112.755 M77.150 118.237 C 54.594 122.719,45.953 149.777,61.735 166.507 C 73.961 179.467,96.436 177.550,106.256 162.710 C 120.380 141.367,102.010 113.298,77.150 118.237 M311.953 118.355 C 292.852 122.441,283.212 143.158,292.436 160.299 C 303.958 181.709,336.352 179.427,344.603 156.625 C 352.305 135.337,333.826 113.677,311.953 118.355 M28.062 119.096 C 28.065 119.738,28.125 119.966,28.195 119.603 C 28.264 119.240,28.262 118.716,28.189 118.437 C 28.116 118.158,28.059 118.455,28.062 119.096 M27.795 124.490 C 27.795 125.692,27.846 126.184,27.909 125.583 C 27.972 124.982,27.972 123.998,27.909 123.397 C 27.846 122.795,27.795 123.287,27.795 124.490 M26.285 135.821 C 26.054 136.591,25.967 139.799,26.011 145.952 L 26.074 154.956 26.262 145.773 C 26.366 140.722,26.549 136.163,26.670 135.641 C 26.974 134.323,26.695 134.453,26.285 135.821 M25.448 159.621 C 25.450 160.423,25.507 160.716,25.574 160.273 C 25.641 159.830,25.639 159.174,25.570 158.815 C 25.500 158.457,25.446 158.819,25.448 159.621 M26.082 178.134 C 26.095 187.696,26.189 190.996,26.465 191.545 C 26.811 192.234,26.820 192.218,26.638 191.254 C 26.531 190.692,26.359 184.657,26.254 177.843 L 26.065 165.452 26.082 178.134 M374.703 194.752 C 374.703 195.313,374.763 195.543,374.837 195.262 C 374.910 194.982,374.910 194.523,374.837 194.242 C 374.763 193.961,374.703 194.191,374.703 194.752 M114.934 196.550 C 111.750 197.266,110.680 199.569,110.833 205.380 C 110.953 209.946,111.495 211.294,113.706 212.533 L 115.015 213.265 199.125 213.342 C 289.180 213.424,285.531 213.483,287.316 211.915 C 290.740 208.909,290.153 198.940,286.443 197.085 L 284.985 196.356 200.583 196.313 C 147.495 196.286,115.718 196.374,114.934 196.550 M27.817 211.953 C 27.817 214.759,27.860 215.907,27.914 214.504 C 27.967 213.101,27.967 210.805,27.914 209.402 C 27.860 207.999,27.817 209.147,27.817 211.953 M373.688 217.951 C 373.568 218.073,373.473 218.578,373.478 219.072 C 373.486 219.833,373.533 219.891,373.789 219.452 C 374.122 218.880,374.036 217.598,373.688 217.951 M28.102 223.178 C 28.102 225.262,28.149 226.077,28.205 224.988 C 28.261 223.899,28.261 222.193,28.204 221.198 C 28.147 220.202,28.101 221.093,28.102 223.178 M372.415 227.259 C 372.415 229.184,372.462 229.933,372.519 228.924 C 372.576 227.916,372.576 226.342,372.518 225.426 C 372.461 224.510,372.414 225.335,372.415 227.259 M28.888 236.297 C 28.879 236.778,28.999 237.369,29.155 237.609 C 29.523 238.179,29.523 236.863,29.155 236.006 C 28.939 235.505,28.902 235.546,28.888 236.297 M372.079 238.776 C 372.079 239.337,372.139 239.566,372.213 239.286 C 372.286 239.005,372.286 238.546,372.213 238.265 C 372.139 237.985,372.079 238.214,372.079 238.776 M371.591 242.728 C 371.481 243.313,371.457 243.857,371.537 243.937 C 371.617 244.017,371.772 243.604,371.882 243.019 C 371.992 242.434,372.016 241.890,371.936 241.810 C 371.856 241.729,371.700 242.142,371.591 242.728 M30.362 243.149 C 30.362 243.389,30.474 243.848,30.612 244.169 C 30.770 244.537,30.863 244.591,30.863 244.315 C 30.863 244.074,30.750 243.615,30.612 243.294 C 30.454 242.927,30.362 242.873,30.362 243.149 M160.569 252.405 C 182.256 252.446,217.744 252.446,239.431 252.405 C 261.119 252.364,243.375 252.330,200.000 252.330 C 156.625 252.330,138.881 252.364,160.569 252.405 M356.102 259.913 C 356.103 263.761,356.144 265.295,356.195 263.321 C 356.245 261.348,356.245 258.199,356.194 256.324 C 356.144 254.449,356.102 256.064,356.102 259.913 M120.488 266.181 C 120.488 266.902,120.544 267.198,120.614 266.837 C 120.683 266.476,120.683 265.886,120.614 265.525 C 120.544 265.164,120.488 265.459,120.488 266.181 M44.092 266.764 C 44.092 267.165,44.192 267.886,44.315 268.367 C 44.513 269.148,44.537 269.163,44.537 268.513 C 44.537 268.112,44.437 267.391,44.315 266.910 C 44.116 266.129,44.092 266.114,44.092 266.764 M116.529 279.450 C 116.263 280.009,116.105 280.466,116.178 280.466 C 116.377 280.466,117.263 278.681,117.129 278.548 C 117.066 278.485,116.796 278.891,116.529 279.450 M111.079 286.735 C 110.371 287.456,109.857 288.047,109.937 288.047 C 110.017 288.047,110.662 287.456,111.370 286.735 C 112.078 286.013,112.592 285.423,112.512 285.423 C 112.432 285.423,111.787 286.013,111.079 286.735 M346.632 286.516 L 345.627 287.609 346.720 286.605 C 347.738 285.669,347.947 285.423,347.725 285.423 C 347.676 285.423,347.184 285.915,346.632 286.516 M54.810 287.901 C 55.354 288.462,55.865 288.921,55.945 288.921 C 56.025 288.921,55.646 288.462,55.102 287.901 C 54.558 287.340,54.047 286.880,53.967 286.880 C 53.887 286.880,54.267 287.340,54.810 287.901 M342.857 289.832 C 341.841 290.722,341.841 290.723,342.775 290.102 C 343.292 289.758,343.791 289.352,343.886 289.199 C 344.167 288.744,343.934 288.888,342.857 289.832 " stroke="none" fill="#ffffff" fill-rule="evenodd"></path><path id="path1" d="M77.497 0.655 C 76.752 1.988,76.014 3.696,75.336 5.658 C 74.953 6.765,74.395 8.086,74.096 8.592 C 73.797 9.098,73.251 10.423,72.882 11.535 C 72.512 12.647,71.826 14.410,71.358 15.452 C 70.889 16.494,70.311 17.937,70.074 18.659 C 69.836 19.380,69.269 20.692,68.812 21.574 C 68.355 22.456,67.768 23.919,67.506 24.825 C 67.245 25.731,66.691 27.174,66.276 28.032 C 65.861 28.890,65.208 30.420,64.826 31.432 C 64.444 32.445,63.794 33.938,63.382 34.751 C 62.970 35.564,62.391 36.988,62.094 37.916 C 61.798 38.844,61.347 40.007,61.091 40.500 C 60.836 40.994,60.235 42.480,59.755 43.804 C 59.275 45.127,58.616 46.698,58.290 47.295 C 57.964 47.892,57.259 49.598,56.723 51.085 C 55.111 55.558,53.641 59.196,52.444 61.673 C 51.821 62.961,51.312 64.222,51.312 64.474 C 51.312 64.726,50.937 65.640,50.480 66.504 C 50.022 67.369,49.363 68.929,49.015 69.971 C 48.198 72.420,47.600 73.188,46.495 73.202 C 46.018 73.209,41.691 73.125,36.880 73.016 C 27.355 72.801,22.499 73.076,18.513 74.059 C 17.230 74.375,14.672 74.773,12.828 74.944 C 8.116 75.379,5.942 75.883,2.763 77.278 L -0.005 78.491 0.070 94.712 L 0.146 110.933 2.041 111.869 C 4.723 113.193,6.993 113.411,18.106 113.411 C 29.099 113.411,28.294 113.176,27.732 116.222 C 27.543 117.249,27.316 120.875,27.228 124.278 C 27.073 130.228,26.827 132.088,25.870 134.548 C 25.197 136.278,24.926 156.578,25.295 177.551 L 25.544 191.691 26.325 194.023 C 27.105 196.355,27.105 196.360,27.127 205.831 C 27.162 220.283,27.887 236.557,28.584 238.484 C 28.787 239.045,29.129 239.999,29.345 240.604 C 29.561 241.208,29.738 242.062,29.738 242.501 C 29.738 249.020,34.267 253.061,41.575 253.061 L 43.393 253.061 43.504 261.297 L 43.616 269.534 44.869 273.175 C 47.680 281.344,51.185 286.519,56.706 290.652 L 57.872 291.525 82.395 291.532 L 106.919 291.538 108.197 290.634 C 112.577 287.537,116.565 282.200,118.774 276.479 C 121.089 270.485,121.046 270.753,121.198 261.443 L 121.336 253.061 199.982 253.061 L 278.628 253.061 278.800 261.006 C 278.989 269.697,279.337 272.270,280.744 275.364 C 281.182 276.327,281.840 277.871,282.206 278.797 C 282.572 279.723,283.249 281.001,283.710 281.637 C 284.171 282.273,284.548 282.882,284.548 282.990 C 284.548 283.578,289.863 289.040,292.049 290.698 L 293.149 291.532 317.676 291.533 L 342.204 291.533 343.478 290.619 C 347.880 287.461,352.305 281.592,354.064 276.579 C 354.298 275.911,354.821 274.468,355.227 273.373 C 356.604 269.648,356.851 267.626,356.851 260.111 L 356.851 253.143 360.131 252.979 C 370.788 252.448,372.424 249.926,372.931 233.236 C 373.133 226.584,373.358 222.882,373.596 222.303 C 373.794 221.822,374.130 220.969,374.342 220.408 C 375.118 218.352,375.358 206.467,375.361 169.971 C 375.365 131.005,375.351 130.597,373.877 126.399 C 373.453 125.192,373.036 123.095,372.866 121.318 C 372.706 119.653,372.320 117.368,372.007 116.240 C 371.171 113.221,370.531 113.411,381.501 113.411 C 393.568 113.411,396.935 112.941,399.198 110.941 C 400.000 110.232,400.362 108.799,399.636 109.209 C 399.344 109.374,399.344 109.336,399.636 109.022 C 399.917 108.719,400.000 105.243,400.000 93.716 L 400.000 78.802 397.360 77.575 C 394.030 76.028,391.170 75.322,386.735 74.954 C 384.810 74.794,382.187 74.389,380.904 74.053 C 376.467 72.894,363.950 72.492,354.630 73.210 C 349.616 73.596,350.016 73.809,348.396 69.889 C 347.719 68.250,347.061 66.778,346.933 66.618 C 346.805 66.458,346.361 65.356,345.948 64.171 C 345.534 62.985,344.884 61.476,344.503 60.818 C 344.122 60.160,343.643 59.096,343.438 58.455 C 343.233 57.813,342.677 56.438,342.204 55.398 C 341.730 54.358,340.983 52.521,340.543 51.316 C 340.103 50.111,339.394 48.470,338.968 47.670 C 338.541 46.869,338.192 46.037,338.192 45.819 C 338.192 45.602,337.676 44.355,337.046 43.047 C 336.415 41.740,335.446 39.490,334.891 38.047 C 333.418 34.210,332.467 31.908,331.341 29.446 C 330.791 28.243,330.001 26.407,329.585 25.364 C 329.169 24.322,328.436 22.485,327.955 21.283 C 327.475 20.080,326.645 18.178,326.111 17.055 C 325.578 15.933,324.977 14.490,324.775 13.848 C 324.574 13.207,324.056 11.961,323.624 11.079 C 323.191 10.197,322.532 8.622,322.158 7.580 C 321.785 6.538,321.385 5.554,321.270 5.394 C 321.154 5.233,320.570 3.955,319.971 2.552 L 318.882 0.003 198.373 0.001 L 77.864 -0.001 77.497 0.655 M245.578 25.292 C 219.734 25.333,177.358 25.333,151.408 25.292 C 125.459 25.250,146.603 25.217,198.397 25.217 C 250.190 25.217,271.421 25.250,245.578 25.292 M294.231 26.517 C 294.667 26.860,295.161 27.759,295.471 28.776 C 295.755 29.706,296.282 30.991,296.642 31.633 C 297.003 32.274,297.462 33.324,297.662 33.965 C 297.863 34.606,298.468 35.984,299.006 37.026 C 299.545 38.069,300.434 40.102,300.982 41.545 C 302.083 44.444,303.960 48.990,304.895 51.020 C 305.227 51.742,305.836 53.220,306.248 54.304 C 306.661 55.389,307.249 56.832,307.556 57.511 C 308.235 59.012,310.000 63.327,310.957 65.824 C 311.342 66.830,311.942 68.208,312.289 68.885 C 312.869 70.015,314.558 74.038,316.601 79.155 C 317.049 80.277,317.553 81.534,317.720 81.949 C 317.900 82.393,317.920 82.871,317.769 83.115 C 317.435 83.656,80.132 83.747,79.591 83.206 C 79.258 82.874,79.411 82.413,81.801 76.531 C 82.387 75.087,83.182 73.054,83.567 72.012 C 83.953 70.969,84.536 69.625,84.864 69.024 C 85.191 68.423,85.831 66.849,86.285 65.526 C 86.739 64.202,87.584 62.096,88.162 60.844 C 88.740 59.592,89.213 58.420,89.213 58.239 C 89.213 58.058,89.655 57.048,90.194 55.996 C 90.734 54.943,91.341 53.557,91.542 52.915 C 91.744 52.274,92.404 50.569,93.010 49.125 C 93.615 47.682,94.278 45.911,94.482 45.190 C 94.686 44.468,94.994 43.681,95.167 43.440 C 95.872 42.459,96.327 41.459,97.086 39.227 C 99.046 33.463,101.662 27.493,102.670 26.484 C 103.539 25.615,293.126 25.648,294.231 26.517 M38.703 73.979 C 36.017 74.027,31.622 74.027,28.936 73.979 C 26.250 73.931,28.448 73.892,33.819 73.892 C 39.191 73.892,41.388 73.931,38.703 73.979 M370.462 73.979 C 367.606 74.027,363.014 74.027,360.258 73.979 C 357.502 73.931,359.840 73.892,365.452 73.892 C 371.064 73.892,373.319 73.931,370.462 73.979 M318.294 84.458 C 318.014 84.531,317.555 84.531,317.274 84.458 C 316.993 84.384,317.223 84.324,317.784 84.324 C 318.345 84.324,318.575 84.384,318.294 84.458 M22.832 112.754 C 20.236 112.803,15.907 112.803,13.211 112.755 C 10.515 112.707,12.638 112.667,17.930 112.667 C 23.222 112.667,25.427 112.706,22.832 112.754 M386.662 112.755 C 384.056 112.803,379.792 112.803,377.187 112.755 C 374.581 112.706,376.713 112.667,381.924 112.667 C 387.136 112.667,389.267 112.706,386.662 112.755 M87.695 118.246 C 106.287 122.065,116.210 140.776,108.782 158.007 C 97.149 184.989,56.730 178.594,53.942 149.331 C 52.114 130.146,69.167 114.440,87.695 118.246 M322.668 118.225 C 340.584 121.624,350.798 139.504,344.603 156.625 C 336.352 179.427,303.958 181.709,292.436 160.299 C 281.041 139.125,299.250 113.783,322.668 118.225 M28.195 119.603 C 28.125 119.966,28.065 119.738,28.062 119.096 C 28.059 118.455,28.116 118.158,28.189 118.437 C 28.262 118.716,28.264 119.240,28.195 119.603 M27.909 125.583 C 27.846 126.184,27.795 125.692,27.795 124.490 C 27.795 123.287,27.846 122.795,27.909 123.397 C 27.972 123.998,27.972 124.982,27.909 125.583 M26.670 135.641 C 26.549 136.163,26.366 140.722,26.262 145.773 L 26.074 154.956 26.011 145.952 C 25.967 139.799,26.054 136.591,26.285 135.821 C 26.695 134.453,26.974 134.323,26.670 135.641 M25.574 160.273 C 25.507 160.716,25.450 160.423,25.448 159.621 C 25.446 158.819,25.500 158.457,25.570 158.815 C 25.639 159.174,25.641 159.830,25.574 160.273 M26.638 191.254 C 26.820 192.218,26.811 192.234,26.465 191.545 C 26.189 190.996,26.095 187.696,26.082 178.134 L 26.065 165.452 26.254 177.843 C 26.359 184.657,26.531 190.692,26.638 191.254 M374.837 195.262 C 374.763 195.543,374.703 195.313,374.703 194.752 C 374.703 194.191,374.763 193.961,374.837 194.242 C 374.910 194.523,374.910 194.982,374.837 195.262 M286.443 197.085 C 290.153 198.940,290.740 208.909,287.316 211.915 C 285.531 213.483,289.180 213.424,199.125 213.342 L 115.015 213.265 113.706 212.533 C 110.182 210.560,109.424 200.890,112.559 197.905 C 114.362 196.189,110.042 196.267,200.583 196.313 L 284.985 196.356 286.443 197.085 M27.914 214.504 C 27.860 215.907,27.817 214.759,27.817 211.953 C 27.817 209.147,27.860 207.999,27.914 209.402 C 27.967 210.805,27.967 213.101,27.914 214.504 M373.789 219.452 C 373.533 219.891,373.486 219.833,373.478 219.072 C 373.473 218.578,373.568 218.073,373.688 217.951 C 374.036 217.598,374.122 218.880,373.789 219.452 M28.205 224.988 C 28.149 226.077,28.102 225.262,28.102 223.178 C 28.101 221.093,28.147 220.202,28.204 221.198 C 28.261 222.193,28.261 223.899,28.205 224.988 M372.519 228.924 C 372.462 229.933,372.415 229.184,372.415 227.259 C 372.414 225.335,372.461 224.510,372.518 225.426 C 372.576 226.342,372.576 227.916,372.519 228.924 M29.421 237.318 C 29.434 237.892,29.377 237.954,29.155 237.609 C 28.999 237.369,28.879 236.778,28.888 236.297 C 28.908 235.200,29.395 236.132,29.421 237.318 M372.213 239.286 C 372.139 239.566,372.079 239.337,372.079 238.776 C 372.079 238.214,372.139 237.985,372.213 238.265 C 372.286 238.546,372.286 239.005,372.213 239.286 M371.882 243.019 C 371.772 243.604,371.617 244.017,371.537 243.937 C 371.457 243.857,371.481 243.313,371.591 242.728 C 371.700 242.142,371.856 241.729,371.936 241.810 C 372.016 241.890,371.992 242.434,371.882 243.019 M30.863 244.315 C 30.863 244.591,30.770 244.537,30.612 244.169 C 30.474 243.848,30.362 243.389,30.362 243.149 C 30.362 242.873,30.454 242.927,30.612 243.294 C 30.750 243.615,30.863 244.074,30.863 244.315 M239.431 252.405 C 217.744 252.446,182.256 252.446,160.569 252.405 C 138.881 252.364,156.625 252.330,200.000 252.330 C 243.375 252.330,261.119 252.364,239.431 252.405 M356.195 263.321 C 356.144 265.295,356.103 263.761,356.102 259.913 C 356.102 256.064,356.144 254.449,356.194 256.324 C 356.245 258.199,356.245 261.348,356.195 263.321 M120.614 266.837 C 120.544 267.198,120.488 266.902,120.488 266.181 C 120.488 265.459,120.544 265.164,120.614 265.525 C 120.683 265.886,120.683 266.476,120.614 266.837 M44.537 268.513 C 44.537 269.163,44.513 269.148,44.315 268.367 C 44.192 267.886,44.092 267.165,44.092 266.764 C 44.092 266.114,44.116 266.129,44.315 266.910 C 44.437 267.391,44.537 268.112,44.537 268.513 M116.778 279.565 C 116.137 280.803,115.930 280.707,116.529 279.450 C 116.796 278.891,117.066 278.485,117.129 278.548 C 117.192 278.611,117.034 279.069,116.778 279.565 M111.370 286.735 C 110.662 287.456,110.017 288.047,109.937 288.047 C 109.857 288.047,110.371 287.456,111.079 286.735 C 111.787 286.013,112.432 285.423,112.512 285.423 C 112.592 285.423,112.078 286.013,111.370 286.735 M347.813 285.511 C 347.813 285.560,347.321 286.052,346.720 286.605 L 345.627 287.609 346.632 286.516 C 347.567 285.498,347.813 285.289,347.813 285.511 M55.102 287.901 C 55.646 288.462,56.025 288.921,55.945 288.921 C 55.865 288.921,55.354 288.462,54.810 287.901 C 54.267 287.340,53.887 286.880,53.967 286.880 C 54.047 286.880,54.558 287.340,55.102 287.901 M343.886 289.199 C 343.791 289.352,343.292 289.758,342.775 290.102 C 341.841 290.723,341.841 290.722,342.857 289.832 C 343.934 288.888,344.167 288.744,343.886 289.199 " stroke="none" fill="#6d0204" fill-rule="evenodd"></path></g></svg>