<svg id="svg" version="1.1" width="400" height="294.03973509933775" viewBox="0 0 400 294.03973509933775" xmlns="http://www.w3.org/2000/svg" xmlns:xlink="http://www.w3.org/1999/xlink" ><g id="svgg"><path id="path0" d="M0.000 147.059 L 0.000 294.118 200.000 294.118 L 400.000 294.118 400.000 147.059 L 400.000 0.000 283.676 0.000 L 167.353 0.000 167.353 12.594 C 167.353 28.896,167.319 28.780,172.274 29.524 C 172.959 29.627,174.397 30.194,175.471 30.784 C 178.265 32.320,181.356 32.551,182.396 31.301 C 182.777 30.844,183.515 30.017,184.036 29.463 C 184.557 28.909,185.053 28.241,185.137 27.978 C 185.222 27.715,185.691 27.235,186.180 26.912 C 186.670 26.588,187.415 25.794,187.837 25.147 C 188.258 24.500,188.922 23.640,189.311 23.235 C 190.395 22.110,192.554 19.413,193.519 17.978 C 193.995 17.271,194.645 16.510,194.962 16.287 C 195.280 16.065,195.825 15.421,196.174 14.857 C 196.783 13.871,197.882 13.180,199.382 12.840 C 200.325 12.625,202.058 13.542,203.766 15.160 C 204.526 15.879,205.249 16.468,205.373 16.469 C 205.497 16.470,206.183 17.033,206.897 17.721 C 209.152 19.889,210.227 20.810,211.133 21.345 C 211.617 21.631,212.169 22.156,212.360 22.512 C 212.550 22.869,213.222 23.450,213.853 23.805 C 214.483 24.159,215.130 24.693,215.290 24.992 C 215.450 25.291,216.079 25.843,216.687 26.220 C 217.296 26.596,218.522 27.530,219.412 28.296 C 220.301 29.061,221.610 30.188,222.319 30.800 C 223.028 31.411,224.203 32.474,224.931 33.162 C 225.658 33.849,226.366 34.412,226.503 34.412 C 226.639 34.412,226.965 34.738,227.226 35.137 C 227.705 35.867,226.960 37.647,226.176 37.647 C 226.036 37.647,225.832 37.931,225.722 38.278 C 225.612 38.625,225.036 39.452,224.442 40.116 C 223.849 40.780,222.982 41.892,222.515 42.586 C 222.049 43.281,221.493 43.946,221.281 44.065 C 221.068 44.184,220.559 44.741,220.149 45.303 C 219.115 46.720,217.715 48.361,216.307 49.805 C 215.651 50.479,214.817 51.519,214.454 52.117 C 214.091 52.715,213.569 53.277,213.294 53.365 C 213.019 53.453,212.351 54.353,211.808 55.365 L 210.823 57.206 211.600 59.265 C 212.027 60.397,212.877 62.051,213.489 62.941 C 214.100 63.831,214.832 65.184,215.115 65.948 C 215.625 67.320,216.898 68.678,218.072 69.098 C 218.999 69.430,226.593 68.617,228.477 67.985 C 231.948 66.819,240.903 65.600,243.046 66.002 C 245.360 66.436,245.870 67.757,246.589 75.169 C 246.816 77.509,247.184 79.683,247.435 80.169 C 248.158 81.572,248.771 84.612,249.119 88.529 C 249.469 92.458,250.016 95.351,250.892 97.913 C 252.101 101.445,250.172 102.940,243.824 103.390 C 242.268 103.501,239.921 103.917,238.529 104.329 C 236.124 105.042,229.660 106.144,227.758 106.166 C 224.413 106.205,223.290 107.789,222.745 113.235 C 222.526 115.419,222.233 117.934,222.093 118.824 C 221.782 120.801,221.917 121.081,223.800 122.365 C 224.621 122.925,225.293 123.470,225.294 123.577 C 225.294 123.684,225.923 124.072,226.691 124.440 C 227.460 124.808,228.732 125.548,229.518 126.084 C 230.305 126.620,231.137 127.059,231.367 127.059 C 231.862 127.059,233.126 127.824,234.020 128.665 C 234.371 128.995,235.297 129.514,236.079 129.818 C 236.861 130.123,237.966 130.733,238.535 131.175 C 239.104 131.616,240.301 132.323,241.195 132.746 C 244.758 134.432,245.283 137.590,242.516 140.698 C 241.958 141.324,241.412 142.246,241.302 142.747 C 241.052 143.885,240.654 144.611,239.665 145.735 C 239.238 146.221,238.799 146.914,238.690 147.276 C 238.385 148.290,237.040 150.588,236.751 150.588 C 236.610 150.588,236.335 151.119,236.141 151.767 C 235.947 152.415,235.351 153.456,234.816 154.081 C 234.282 154.705,233.559 155.980,233.209 156.914 C 232.860 157.847,232.194 159.009,231.728 159.496 C 231.263 159.983,230.882 160.501,230.882 160.648 C 230.882 161.194,229.711 163.411,228.986 164.237 C 228.573 164.707,228.235 165.238,228.235 165.416 C 228.235 167.611,224.804 167.634,222.353 165.456 C 221.949 165.097,220.978 164.567,220.196 164.279 C 219.415 163.992,218.386 163.376,217.911 162.912 C 217.436 162.447,216.686 161.977,216.244 161.867 C 215.318 161.637,213.611 160.732,212.879 160.082 C 212.603 159.837,211.738 159.340,210.958 158.979 C 210.179 158.618,209.320 158.102,209.051 157.832 C 208.781 157.563,207.671 156.943,206.583 156.455 C 205.495 155.967,204.279 155.241,203.880 154.843 C 202.798 153.760,202.194 154.066,198.789 157.426 C 198.174 158.033,197.587 158.529,197.485 158.529 C 197.249 158.529,196.035 159.478,194.706 160.701 C 194.140 161.222,193.246 161.901,192.721 162.211 C 191.573 162.887,191.567 162.983,192.500 165.763 C 192.904 166.968,193.235 168.127,193.235 168.340 C 193.235 169.069,194.453 172.436,194.866 172.849 C 195.093 173.076,195.418 173.818,195.588 174.499 C 196.258 177.179,196.863 179.010,197.358 179.853 C 197.873 180.730,200.294 188.468,200.294 189.236 C 200.294 189.874,198.999 190.556,196.844 191.054 C 195.749 191.307,194.588 191.741,194.265 192.020 C 193.344 192.813,192.377 193.189,190.031 193.664 C 188.835 193.906,187.643 194.290,187.384 194.516 C 186.489 195.298,185.089 195.850,183.131 196.191 C 182.051 196.379,180.739 196.816,180.216 197.163 C 178.717 198.157,177.921 198.475,176.029 198.832 C 175.059 199.016,173.338 199.642,172.206 200.223 C 170.466 201.117,169.775 201.300,167.747 201.411 L 165.346 201.542 164.852 200.586 C 164.580 200.060,164.159 198.963,163.917 198.147 C 163.675 197.331,163.279 196.362,163.037 195.993 C 162.593 195.315,162.066 193.780,161.303 190.948 C 161.074 190.095,160.687 189.094,160.445 188.723 C 160.005 188.053,159.069 185.352,158.695 183.676 C 158.408 182.392,155.907 177.269,155.357 176.838 C 155.014 176.570,153.155 176.471,148.459 176.471 L 142.031 176.471 141.318 177.240 C 140.875 177.717,140.473 178.675,140.260 179.762 C 140.070 180.725,139.761 181.669,139.573 181.860 C 138.822 182.621,137.971 184.660,137.648 186.471 C 137.460 187.522,137.088 188.713,136.820 189.118 C 135.987 190.375,135.368 191.923,135.159 193.268 C 134.861 195.191,134.432 196.400,133.987 196.571 C 133.770 196.654,133.306 197.644,132.958 198.770 C 131.900 202.186,129.882 202.536,124.876 200.172 C 123.731 199.631,122.331 199.091,121.765 198.972 C 120.033 198.607,118.129 197.900,117.304 197.316 C 116.872 197.010,115.549 196.544,114.363 196.281 C 112.207 195.802,110.831 195.258,110.000 194.557 C 109.757 194.352,108.566 193.962,107.353 193.689 C 106.140 193.417,104.221 192.747,103.088 192.199 C 101.956 191.651,100.451 191.055,99.745 190.875 C 96.797 190.123,96.701 186.568,99.477 181.029 C 100.045 179.897,100.604 178.309,100.719 177.500 C 100.834 176.691,101.367 175.235,101.903 174.265 C 102.439 173.294,103.037 171.706,103.232 170.735 C 103.427 169.765,103.990 168.117,104.483 167.074 C 105.848 164.188,105.893 162.938,104.660 162.228 C 104.119 161.917,103.610 161.586,103.529 161.493 C 103.163 161.071,100.915 159.221,100.286 158.824 C 99.903 158.581,99.130 157.886,98.569 157.279 C 96.294 154.817,93.975 153.874,93.012 155.021 C 92.517 155.609,90.344 156.765,89.732 156.765 C 89.567 156.765,88.979 157.163,88.425 157.649 C 87.872 158.135,86.643 158.874,85.695 159.292 C 84.746 159.710,83.772 160.228,83.529 160.444 C 83.287 160.659,82.360 161.198,81.471 161.641 C 80.581 162.084,79.578 162.738,79.243 163.094 C 78.907 163.451,77.848 164.035,76.890 164.392 C 75.931 164.749,74.816 165.346,74.412 165.720 C 72.015 167.932,69.960 167.563,68.539 164.666 C 68.171 163.916,67.563 162.945,67.188 162.509 C 66.813 162.072,66.425 161.345,66.326 160.892 C 66.226 160.439,65.708 159.557,65.175 158.932 C 64.641 158.306,64.026 157.265,63.808 156.618 C 63.460 155.584,62.288 153.653,61.755 153.235 C 61.652 153.154,61.231 152.360,60.821 151.471 C 60.410 150.581,59.819 149.588,59.508 149.265 C 59.197 148.941,58.708 148.081,58.420 147.353 C 58.133 146.625,57.451 145.368,56.905 144.559 C 56.359 143.750,55.828 142.738,55.726 142.311 C 55.624 141.883,55.096 141.048,54.553 140.455 C 51.752 137.397,52.396 134.407,56.228 132.669 C 57.273 132.195,58.317 131.577,58.549 131.295 C 58.781 131.012,59.909 130.346,61.057 129.815 C 62.204 129.283,63.312 128.645,63.519 128.395 C 63.725 128.146,64.673 127.593,65.624 127.166 C 66.575 126.739,67.353 126.273,67.353 126.129 C 67.353 125.985,68.349 125.414,69.567 124.859 C 70.784 124.304,71.952 123.678,72.162 123.469 C 72.372 123.260,73.157 122.625,73.906 122.059 C 75.561 120.809,75.597 120.732,75.261 119.098 C 74.794 116.826,74.434 114.288,74.168 111.398 C 73.771 107.078,73.056 106.461,67.941 106.025 C 66.728 105.922,64.941 105.662,63.971 105.447 C 63.000 105.232,60.684 104.721,58.824 104.311 C 56.963 103.900,53.944 103.427,52.114 103.259 C 47.001 102.789,45.749 101.555,46.602 97.826 C 47.408 94.298,47.661 92.747,47.932 89.666 C 48.234 86.231,48.387 85.368,48.974 83.798 C 49.479 82.447,49.886 80.182,50.449 75.588 C 51.540 66.675,52.323 65.284,55.922 65.861 C 56.790 66.000,59.221 66.279,61.324 66.480 C 63.853 66.722,65.844 67.093,67.206 67.576 C 69.194 68.281,70.535 68.513,75.882 69.074 C 79.702 69.475,81.214 68.667,82.176 65.709 C 82.444 64.886,83.053 63.839,83.529 63.382 C 84.006 62.926,84.618 61.879,84.888 61.055 C 85.159 60.232,85.461 59.493,85.558 59.412 C 87.076 58.152,87.252 56.970,86.070 55.977 C 85.526 55.521,84.909 54.819,84.699 54.417 C 84.490 54.016,83.843 53.195,83.262 52.594 C 82.681 51.992,81.610 50.756,80.882 49.847 C 80.154 48.938,79.055 47.651,78.438 46.986 C 77.822 46.322,77.173 45.504,76.996 45.168 C 76.624 44.465,74.451 41.884,72.923 40.330 C 70.442 37.808,69.591 35.658,70.723 34.768 C 71.121 34.455,71.601 33.859,71.791 33.443 C 71.980 33.027,72.510 32.531,72.969 32.342 C 73.427 32.152,74.171 31.578,74.622 31.067 C 75.072 30.556,76.037 29.755,76.765 29.286 C 78.123 28.411,80.086 26.816,82.039 25.000 C 82.647 24.434,83.849 23.375,84.708 22.647 C 85.568 21.919,86.746 20.846,87.327 20.263 C 87.907 19.680,88.698 19.037,89.085 18.834 C 89.471 18.631,90.199 18.084,90.702 17.618 C 91.206 17.153,92.544 16.014,93.676 15.089 C 94.809 14.163,95.919 13.226,96.143 13.007 C 96.915 12.253,100.118 13.100,100.451 14.147 C 100.598 14.612,101.603 15.779,104.350 18.676 C 104.810 19.162,105.442 19.951,105.755 20.430 C 106.068 20.909,106.721 21.704,107.206 22.195 C 107.691 22.686,108.311 23.434,108.583 23.856 C 109.457 25.213,111.796 27.998,114.704 31.144 C 115.986 32.532,118.821 32.386,121.857 30.775 C 122.939 30.201,124.651 29.588,125.662 29.413 C 129.990 28.663,129.706 29.782,129.706 13.510 L 129.706 0.000 64.853 0.000 L 0.000 0.000 0.000 147.059 M141.176 52.232 C 140.125 52.458,137.989 52.836,136.430 53.074 C 134.356 53.390,133.200 53.739,132.120 54.376 C 131.308 54.854,129.810 55.460,128.789 55.721 C 127.769 55.982,126.863 56.291,126.776 56.407 C 126.400 56.907,124.764 57.878,123.712 58.224 C 123.084 58.431,122.091 59.030,121.506 59.554 C 120.920 60.079,119.978 60.742,119.412 61.029 C 118.846 61.315,117.839 62.046,117.175 62.653 C 116.511 63.260,115.717 63.838,115.410 63.937 C 115.104 64.036,114.552 64.559,114.185 65.100 C 113.818 65.641,113.211 66.247,112.838 66.447 C 112.464 66.647,111.916 67.231,111.619 67.744 C 111.323 68.257,110.646 69.165,110.116 69.762 C 109.585 70.359,108.927 71.285,108.652 71.821 C 108.378 72.356,107.758 73.248,107.275 73.802 C 106.792 74.357,106.202 75.283,105.964 75.861 C 105.725 76.439,105.243 77.309,104.892 77.794 C 104.039 78.972,103.620 79.888,103.225 81.439 C 103.044 82.149,102.600 83.208,102.239 83.792 C 101.223 85.432,100.935 86.400,100.600 89.308 C 100.429 90.787,100.092 92.471,99.851 93.048 C 99.248 94.490,99.214 107.003,99.807 108.713 C 100.025 109.340,100.366 111.110,100.565 112.647 C 100.976 115.816,101.325 117.043,102.250 118.561 C 102.605 119.145,103.046 120.204,103.230 120.914 C 103.674 122.632,104.292 123.946,104.888 124.441 C 105.155 124.663,105.629 125.438,105.939 126.163 C 106.250 126.888,106.941 128.015,107.475 128.667 C 108.009 129.319,108.549 130.183,108.677 130.585 C 108.804 130.988,109.418 131.765,110.042 132.312 C 110.666 132.859,111.176 133.469,111.176 133.668 C 111.176 133.867,111.805 134.639,112.574 135.382 C 113.342 136.126,114.299 137.072,114.700 137.485 C 115.101 137.898,115.588 138.235,115.783 138.235 C 115.977 138.235,116.421 138.635,116.769 139.124 C 117.118 139.613,117.916 140.275,118.543 140.595 C 119.170 140.915,119.920 141.426,120.209 141.730 C 120.499 142.034,121.525 142.701,122.490 143.212 C 123.455 143.723,124.454 144.331,124.710 144.563 C 124.967 144.795,125.765 145.190,126.485 145.440 C 127.205 145.691,128.856 146.424,130.153 147.069 C 131.773 147.874,133.339 148.385,135.153 148.701 C 136.606 148.955,138.191 149.342,138.676 149.562 C 140.600 150.435,142.103 150.585,148.824 150.574 C 154.398 150.565,155.963 150.473,156.912 150.099 C 157.559 149.845,159.478 149.329,161.176 148.953 C 165.370 148.026,166.024 147.815,168.391 146.623 C 169.519 146.055,170.643 145.590,170.889 145.589 C 171.135 145.589,171.797 145.209,172.359 144.746 C 173.529 143.782,175.550 142.647,176.096 142.647 C 176.299 142.647,176.632 142.371,176.836 142.034 C 177.039 141.697,177.727 141.153,178.364 140.824 C 179.641 140.165,187.941 131.938,187.941 131.332 C 187.941 131.123,188.471 130.422,189.118 129.775 C 189.765 129.128,190.294 128.510,190.294 128.401 C 190.294 127.872,191.626 125.361,192.228 124.755 C 192.603 124.378,193.198 123.187,193.552 122.108 C 193.905 121.030,194.366 119.948,194.576 119.705 C 195.186 119.002,195.586 117.721,196.230 114.414 C 196.560 112.714,197.000 110.993,197.207 110.588 C 198.270 108.506,198.640 97.704,197.766 94.265 C 196.895 90.840,195.950 86.602,195.758 85.262 C 195.652 84.516,195.244 83.472,194.853 82.941 C 194.461 82.410,193.863 81.079,193.524 79.981 C 193.184 78.884,192.601 77.678,192.227 77.302 C 191.854 76.926,191.181 75.890,190.733 75.000 C 190.284 74.110,189.472 72.839,188.929 72.176 C 188.386 71.512,187.941 70.822,187.941 70.642 C 187.941 70.463,186.386 68.795,184.485 66.935 C 182.585 65.076,180.566 63.099,180.000 62.541 C 179.434 61.984,178.390 61.239,177.681 60.885 C 176.972 60.531,176.092 59.943,175.727 59.577 C 175.361 59.211,174.506 58.690,173.826 58.418 C 173.146 58.146,172.091 57.522,171.481 57.032 C 170.857 56.530,169.617 55.951,168.642 55.707 C 166.748 55.231,165.858 54.861,164.642 54.041 C 164.146 53.707,162.693 53.351,160.818 53.102 C 159.155 52.882,157.199 52.493,156.471 52.238 C 154.714 51.621,144.043 51.618,141.176 52.232 M266.940 164.442 C 267.453 165.008,267.512 165.722,267.647 172.911 C 267.831 182.715,267.465 181.946,272.561 183.233 C 273.242 183.405,273.882 183.681,273.984 183.846 C 274.104 184.039,274.292 184.046,274.511 183.864 C 274.699 183.709,275.339 183.491,275.933 183.380 C 276.900 183.200,279.936 180.376,280.941 178.723 C 281.258 178.201,283.169 176.070,285.343 173.812 L 287.304 171.776 288.651 172.372 C 289.391 172.699,290.441 173.425,290.984 173.984 C 291.527 174.543,292.125 175.000,292.313 175.000 C 292.501 175.000,293.311 175.629,294.113 176.397 C 294.914 177.165,296.137 178.278,296.829 178.869 C 302.374 183.604,305.000 186.146,305.000 186.781 C 305.000 187.546,303.921 189.553,302.915 190.657 C 302.287 191.347,301.209 192.554,300.519 193.339 C 299.829 194.124,298.786 195.249,298.202 195.839 C 297.617 196.429,296.916 197.349,296.642 197.883 C 296.369 198.417,295.950 198.929,295.712 199.020 C 294.740 199.393,294.701 200.171,295.583 201.562 C 296.053 202.303,296.600 203.479,296.799 204.175 C 297.502 206.639,299.878 208.117,302.073 207.457 C 302.793 207.240,305.301 206.882,307.647 206.662 C 309.993 206.442,312.375 206.061,312.941 205.817 C 315.010 204.923,317.639 207.201,317.653 209.897 C 317.665 212.341,319.170 221.555,319.654 222.150 C 319.810 222.342,320.081 223.426,320.255 224.557 C 320.944 229.035,319.389 229.920,309.412 230.731 C 304.096 231.163,302.488 232.686,302.166 237.596 L 301.978 240.476 302.918 241.194 C 303.435 241.589,304.267 242.276,304.767 242.721 C 305.266 243.165,305.795 243.529,305.942 243.529 C 306.520 243.529,308.839 244.748,309.595 245.449 C 310.035 245.857,310.724 246.273,311.127 246.374 C 313.479 246.965,316.738 250.053,316.069 251.058 C 315.864 251.366,315.534 252.182,315.335 252.873 C 315.136 253.563,314.586 254.568,314.113 255.107 C 313.640 255.646,312.981 256.721,312.649 257.495 C 312.318 258.269,311.674 259.381,311.220 259.966 C 310.765 260.551,310.169 261.605,309.894 262.308 C 309.619 263.011,309.010 264.070,308.540 264.661 C 308.071 265.252,307.453 266.331,307.166 267.059 C 306.525 268.689,306.022 269.227,304.736 269.662 C 303.300 270.147,303.078 270.102,301.926 269.091 C 301.357 268.591,300.207 267.922,299.371 267.604 C 298.534 267.287,297.354 266.602,296.747 266.082 C 296.140 265.563,295.135 264.959,294.513 264.740 C 293.891 264.521,293.118 264.108,292.794 263.823 C 291.055 262.289,288.034 262.191,287.134 263.639 C 287.012 263.836,286.284 264.514,285.518 265.147 C 283.463 266.840,282.845 270.374,284.232 272.492 C 285.361 274.214,285.807 275.272,286.154 277.047 C 286.358 278.092,286.906 279.703,287.372 280.627 C 288.257 282.380,288.227 283.038,287.181 284.803 C 286.849 285.363,283.925 286.471,282.778 286.471 C 282.415 286.471,281.344 286.882,280.398 287.384 C 278.752 288.257,278.191 288.457,274.338 289.541 C 273.408 289.802,272.647 290.151,272.647 290.316 C 272.647 291.512,269.333 292.780,266.707 292.591 L 265.441 292.500 265.072 290.588 C 264.868 289.537,264.253 287.750,263.703 286.618 C 263.154 285.485,262.544 283.765,262.348 282.794 C 261.992 281.036,261.139 279.017,260.615 278.693 C 260.463 278.599,260.253 278.127,260.146 277.644 C 259.822 276.167,259.073 275.882,255.508 275.882 C 252.409 275.882,250.588 276.313,250.588 277.045 C 250.588 277.191,250.383 277.516,250.133 277.767 C 249.882 278.017,249.482 279.185,249.244 280.361 C 248.796 282.577,248.475 283.427,247.589 284.745 C 247.114 285.451,246.836 286.373,245.785 290.724 C 245.465 292.049,245.338 292.205,244.407 292.416 C 242.885 292.760,238.824 292.081,238.824 291.482 C 238.824 290.941,237.161 289.681,236.101 289.418 C 233.666 288.814,232.483 288.412,231.148 287.732 C 230.404 287.354,228.644 286.727,227.235 286.340 C 224.202 285.505,223.306 284.979,223.068 283.893 C 222.971 283.451,222.838 282.915,222.772 282.703 C 222.548 281.985,223.255 279.621,223.934 278.813 C 224.306 278.371,224.772 277.366,224.970 276.578 C 225.787 273.321,225.941 272.882,226.597 271.914 C 228.192 269.563,227.590 266.996,224.974 265.000 C 224.232 264.434,223.131 263.584,222.527 263.111 L 221.429 262.252 219.906 262.782 C 219.068 263.074,218.240 263.487,218.066 263.701 C 217.893 263.914,216.873 264.495,215.801 264.991 C 214.729 265.487,213.765 266.033,213.660 266.203 C 213.555 266.373,212.625 266.915,211.593 267.408 C 210.561 267.901,209.417 268.601,209.050 268.964 C 207.721 270.278,204.412 270.125,204.412 268.749 C 204.412 268.162,203.374 266.273,202.443 265.168 C 201.908 264.532,201.466 263.804,201.461 263.550 C 201.455 263.296,201.067 262.559,200.598 261.912 C 200.129 261.265,199.329 259.875,198.821 258.824 C 198.312 257.772,197.720 256.774,197.505 256.606 C 197.290 256.437,196.636 255.312,196.050 254.106 C 195.465 252.899,194.757 251.540,194.478 251.086 C 193.990 250.293,193.993 250.244,194.559 249.831 C 194.882 249.594,195.610 248.967,196.176 248.438 C 197.532 247.170,198.482 246.592,199.616 246.343 C 200.129 246.231,200.720 245.931,200.931 245.676 C 201.416 245.092,203.083 244.055,204.376 243.533 C 204.923 243.313,205.671 242.858,206.040 242.522 C 207.164 241.497,207.610 241.176,207.912 241.176 C 209.837 241.176,208.630 234.679,206.241 232.180 C 205.426 231.327,203.790 230.952,198.676 230.448 C 190.142 229.606,189.892 229.251,191.312 220.000 C 191.572 218.301,192.041 216.303,192.353 215.558 C 192.668 214.806,193.002 213.106,193.103 211.735 C 193.303 209.047,193.914 206.712,194.558 206.177 C 195.086 205.739,198.497 205.687,199.279 206.105 C 199.610 206.282,201.725 206.575,203.980 206.755 C 206.234 206.935,208.676 207.286,209.407 207.536 L 210.735 207.990 212.146 206.421 C 214.829 203.440,216.220 198.529,214.383 198.529 C 214.237 198.529,214.118 198.347,214.118 198.123 C 214.118 197.900,213.743 197.337,213.285 196.873 C 212.826 196.409,212.158 195.540,211.799 194.942 C 211.441 194.343,210.887 193.771,210.569 193.670 C 210.250 193.569,209.731 192.978,209.413 192.356 C 209.096 191.735,208.445 190.947,207.965 190.605 C 207.486 190.264,207.002 189.690,206.890 189.331 C 206.777 188.971,206.601 188.610,206.498 188.529 C 205.451 187.709,205.358 186.869,206.206 185.897 C 206.675 185.360,207.059 184.810,207.059 184.676 C 207.059 184.542,207.708 183.931,208.502 183.319 C 210.984 181.406,215.383 177.768,216.765 176.486 C 217.493 175.811,218.510 174.962,219.025 174.598 C 219.540 174.234,220.202 173.645,220.495 173.289 C 221.519 172.048,223.910 171.719,224.740 172.704 C 225.126 173.162,225.919 174.046,226.503 174.669 C 227.088 175.292,227.811 176.217,228.111 176.724 C 228.411 177.232,228.886 177.721,229.167 177.810 C 229.447 177.899,229.972 178.461,230.334 179.059 C 230.695 179.658,231.463 180.663,232.040 181.294 C 234.712 184.216,234.433 184.112,237.647 183.378 C 243.111 182.129,243.235 181.888,243.235 172.517 L 243.235 165.633 244.140 164.729 L 245.045 163.824 255.712 163.824 C 266.178 163.824,266.390 163.835,266.940 164.442 M248.971 197.003 C 248.162 197.306,247.103 197.756,246.618 198.003 C 246.132 198.251,244.878 198.601,243.830 198.782 C 242.516 199.010,241.467 199.425,240.448 200.122 C 239.635 200.678,238.574 201.307,238.088 201.519 C 237.603 201.731,236.676 202.401,236.029 203.007 C 232.173 206.620,230.879 207.989,230.159 209.217 C 229.717 209.973,229.188 210.690,228.984 210.810 C 228.780 210.931,228.149 211.956,227.581 213.088 C 227.013 214.221,226.334 215.555,226.072 216.053 C 225.809 216.552,225.391 218.074,225.143 219.436 C 224.894 220.797,224.488 222.465,224.241 223.140 C 223.118 226.208,224.631 238.331,226.443 240.782 C 226.787 241.248,227.387 242.411,227.776 243.367 C 228.164 244.322,228.887 245.545,229.382 246.085 C 229.878 246.625,230.474 247.437,230.708 247.889 C 231.208 248.855,233.294 251.033,234.574 251.925 C 235.068 252.269,235.796 252.846,236.192 253.206 C 237.227 254.148,241.258 256.760,241.681 256.763 C 242.203 256.766,244.611 257.612,246.315 258.391 C 249.884 260.022,262.053 260.121,263.965 258.534 C 264.367 258.200,267.230 257.234,268.762 256.914 C 269.295 256.803,270.023 256.411,270.380 256.043 C 270.737 255.675,271.750 254.992,272.631 254.525 C 273.513 254.058,274.638 253.303,275.131 252.847 C 275.625 252.390,276.391 251.826,276.833 251.592 C 277.275 251.358,277.825 250.805,278.054 250.363 C 278.283 249.921,278.875 249.199,279.370 248.758 C 279.865 248.318,280.494 247.524,280.767 246.994 C 281.253 246.050,282.604 244.115,282.981 243.824 C 283.085 243.743,283.340 243.081,283.548 242.353 C 283.756 241.625,284.018 240.897,284.130 240.735 C 287.067 236.485,287.505 221.892,284.844 216.950 C 284.310 215.958,283.777 214.627,283.659 213.991 C 283.527 213.283,283.026 212.372,282.363 211.638 C 281.768 210.980,281.114 210.022,280.909 209.510 C 280.384 208.194,273.329 201.471,272.473 201.471 C 272.278 201.471,271.434 200.957,270.598 200.328 C 269.492 199.498,268.582 199.094,267.260 198.846 C 266.259 198.659,265.176 198.388,264.853 198.243 C 261.296 196.649,261.552 196.697,255.882 196.572 C 251.099 196.467,250.264 196.519,248.971 197.003 " stroke="none" fill="#ffffff" fill-rule="evenodd"></path><path id="path1" d="M129.706 13.510 C 129.706 29.782,129.990 28.663,125.662 29.413 C 124.651 29.588,122.939 30.201,121.857 30.775 C 118.821 32.386,115.986 32.532,114.704 31.144 C 111.796 27.998,109.457 25.213,108.583 23.856 C 108.311 23.434,107.691 22.686,107.206 22.195 C 106.721 21.704,106.068 20.909,105.755 20.430 C 105.442 19.951,104.810 19.162,104.350 18.676 C 101.603 15.779,100.598 14.612,100.451 14.147 C 100.118 13.100,96.915 12.253,96.143 13.007 C 95.919 13.226,94.809 14.163,93.676 15.089 C 92.544 16.014,91.206 17.153,90.702 17.618 C 90.199 18.084,89.471 18.631,89.085 18.834 C 88.698 19.037,87.907 19.680,87.327 20.263 C 86.746 20.846,85.568 21.919,84.708 22.647 C 83.849 23.375,82.647 24.434,82.039 25.000 C 80.086 26.816,78.123 28.411,76.765 29.286 C 76.037 29.755,75.072 30.556,74.622 31.067 C 74.171 31.578,73.427 32.152,72.969 32.342 C 72.510 32.531,71.980 33.027,71.791 33.443 C 71.601 33.859,71.121 34.455,70.723 34.768 C 69.591 35.658,70.442 37.808,72.923 40.330 C 74.451 41.884,76.624 44.465,76.996 45.168 C 77.173 45.504,77.822 46.322,78.438 46.986 C 79.055 47.651,80.154 48.938,80.882 49.847 C 81.610 50.756,82.681 51.992,83.262 52.594 C 83.843 53.195,84.490 54.016,84.699 54.417 C 84.909 54.819,85.526 55.521,86.070 55.977 C 87.252 56.970,87.076 58.152,85.558 59.412 C 85.461 59.493,85.159 60.232,84.888 61.055 C 84.618 61.879,84.006 62.926,83.529 63.382 C 83.053 63.839,82.444 64.886,82.176 65.709 C 81.214 68.667,79.702 69.475,75.882 69.074 C 70.535 68.513,69.194 68.281,67.206 67.576 C 65.844 67.093,63.853 66.722,61.324 66.480 C 59.221 66.279,56.790 66.000,55.922 65.861 C 52.323 65.284,51.540 66.675,50.449 75.588 C 49.886 80.182,49.479 82.447,48.974 83.798 C 48.387 85.368,48.234 86.231,47.932 89.666 C 47.661 92.747,47.408 94.298,46.602 97.826 C 45.749 101.555,47.001 102.789,52.114 103.259 C 53.944 103.427,56.963 103.900,58.824 104.311 C 60.684 104.721,63.000 105.232,63.971 105.447 C 64.941 105.662,66.728 105.922,67.941 106.025 C 73.056 106.461,73.771 107.078,74.168 111.398 C 74.434 114.288,74.794 116.826,75.261 119.098 C 75.597 120.732,75.561 120.809,73.906 122.059 C 73.157 122.625,72.372 123.260,72.162 123.469 C 71.952 123.678,70.784 124.304,69.567 124.859 C 68.349 125.414,67.353 125.985,67.353 126.129 C 67.353 126.273,66.575 126.739,65.624 127.166 C 64.673 127.593,63.725 128.146,63.519 128.395 C 63.312 128.645,62.204 129.283,61.057 129.815 C 59.909 130.346,58.781 131.012,58.549 131.295 C 58.317 131.577,57.273 132.195,56.228 132.669 C 52.396 134.407,51.752 137.397,54.553 140.455 C 55.096 141.048,55.624 141.883,55.726 142.311 C 55.828 142.738,56.359 143.750,56.905 144.559 C 57.451 145.368,58.133 146.625,58.420 147.353 C 58.708 148.081,59.197 148.941,59.508 149.265 C 59.819 149.588,60.410 150.581,60.821 151.471 C 61.231 152.360,61.652 153.154,61.755 153.235 C 62.288 153.653,63.460 155.584,63.808 156.618 C 64.026 157.265,64.641 158.306,65.175 158.932 C 65.708 159.557,66.226 160.439,66.326 160.892 C 66.425 161.345,66.813 162.072,67.188 162.509 C 67.563 162.945,68.171 163.916,68.539 164.666 C 69.960 167.563,72.015 167.932,74.412 165.720 C 74.816 165.346,75.931 164.749,76.890 164.392 C 77.848 164.035,78.907 163.451,79.243 163.094 C 79.578 162.738,80.581 162.084,81.471 161.641 C 82.360 161.198,83.287 160.659,83.529 160.444 C 83.772 160.228,84.746 159.710,85.695 159.292 C 86.643 158.874,87.872 158.135,88.425 157.649 C 88.979 157.163,89.567 156.765,89.732 156.765 C 90.344 156.765,92.517 155.609,93.012 155.021 C 93.975 153.874,96.294 154.817,98.569 157.279 C 99.130 157.886,99.903 158.581,100.286 158.824 C 100.915 159.221,103.163 161.071,103.529 161.493 C 103.610 161.586,104.119 161.917,104.660 162.228 C 105.893 162.938,105.848 164.188,104.483 167.074 C 103.990 168.117,103.427 169.765,103.232 170.735 C 103.037 171.706,102.439 173.294,101.903 174.265 C 101.367 175.235,100.834 176.691,100.719 177.500 C 100.604 178.309,100.045 179.897,99.477 181.029 C 96.701 186.568,96.797 190.123,99.745 190.875 C 100.451 191.055,101.956 191.651,103.088 192.199 C 104.221 192.747,106.140 193.417,107.353 193.689 C 108.566 193.962,109.757 194.352,110.000 194.557 C 110.831 195.258,112.207 195.802,114.363 196.281 C 115.549 196.544,116.872 197.010,117.304 197.316 C 118.129 197.900,120.033 198.607,121.765 198.972 C 122.331 199.091,123.731 199.631,124.876 200.172 C 129.882 202.536,131.900 202.186,132.958 198.770 C 133.306 197.644,133.770 196.654,133.987 196.571 C 134.432 196.400,134.861 195.191,135.159 193.268 C 135.368 191.923,135.987 190.375,136.820 189.118 C 137.088 188.713,137.460 187.522,137.648 186.471 C 137.971 184.660,138.822 182.621,139.573 181.860 C 139.761 181.669,140.070 180.725,140.260 179.762 C 140.473 178.675,140.875 177.717,141.318 177.240 L 142.031 176.471 148.459 176.471 C 153.155 176.471,155.014 176.570,155.357 176.838 C 155.907 177.269,158.408 182.392,158.695 183.676 C 159.069 185.352,160.005 188.053,160.445 188.723 C 160.687 189.094,161.074 190.095,161.303 190.948 C 162.066 193.780,162.593 195.315,163.037 195.993 C 163.279 196.362,163.675 197.331,163.917 198.147 C 164.159 198.963,164.580 200.060,164.852 200.586 L 165.346 201.542 167.747 201.411 C 169.775 201.300,170.466 201.117,172.206 200.223 C 173.338 199.642,175.059 199.016,176.029 198.832 C 177.921 198.475,178.717 198.157,180.216 197.163 C 180.739 196.816,182.051 196.379,183.131 196.191 C 185.089 195.850,186.489 195.298,187.384 194.516 C 187.643 194.290,188.835 193.906,190.031 193.664 C 192.377 193.189,193.344 192.813,194.265 192.020 C 194.588 191.741,195.749 191.307,196.844 191.054 C 198.999 190.556,200.294 189.874,200.294 189.236 C 200.294 188.468,197.873 180.730,197.358 179.853 C 196.863 179.010,196.258 177.179,195.588 174.499 C 195.418 173.818,195.093 173.076,194.866 172.849 C 194.453 172.436,193.235 169.069,193.235 168.340 C 193.235 168.127,192.904 166.968,192.500 165.763 C 191.567 162.983,191.573 162.887,192.721 162.211 C 193.246 161.901,194.140 161.222,194.706 160.701 C 196.035 159.478,197.249 158.529,197.485 158.529 C 197.587 158.529,198.174 158.033,198.789 157.426 C 202.194 154.066,202.798 153.760,203.880 154.843 C 204.279 155.241,205.495 155.967,206.583 156.455 C 207.671 156.943,208.781 157.563,209.051 157.832 C 209.320 158.102,210.179 158.618,210.958 158.979 C 211.738 159.340,212.603 159.837,212.879 160.082 C 213.611 160.732,215.318 161.637,216.244 161.867 C 216.686 161.977,217.436 162.447,217.911 162.912 C 218.386 163.376,219.415 163.992,220.196 164.279 C 220.978 164.567,221.949 165.097,222.353 165.456 C 224.804 167.634,228.235 167.611,228.235 165.416 C 228.235 165.238,228.573 164.707,228.986 164.237 C 229.711 163.411,230.882 161.194,230.882 160.648 C 230.882 160.501,231.263 159.983,231.728 159.496 C 232.194 159.009,232.860 157.847,233.209 156.914 C 233.559 155.980,234.282 154.705,234.816 154.081 C 235.351 153.456,235.947 152.415,236.141 151.767 C 236.335 151.119,236.610 150.588,236.751 150.588 C 237.040 150.588,238.385 148.290,238.690 147.276 C 238.799 146.914,239.238 146.221,239.665 145.735 C 240.654 144.611,241.052 143.885,241.302 142.747 C 241.412 142.246,241.958 141.324,242.516 140.698 C 245.283 137.590,244.758 134.432,241.195 132.746 C 240.301 132.323,239.104 131.616,238.535 131.175 C 237.966 130.733,236.861 130.123,236.079 129.818 C 235.297 129.514,234.371 128.995,234.020 128.665 C 233.126 127.824,231.862 127.059,231.367 127.059 C 231.137 127.059,230.305 126.620,229.518 126.084 C 228.732 125.548,227.460 124.808,226.691 124.440 C 225.923 124.072,225.294 123.684,225.294 123.577 C 225.293 123.470,224.621 122.925,223.800 122.365 C 221.917 121.081,221.782 120.801,222.093 118.824 C 222.233 117.934,222.526 115.419,222.745 113.235 C 223.290 107.789,224.413 106.205,227.758 106.166 C 229.660 106.144,236.124 105.042,238.529 104.329 C 239.921 103.917,242.268 103.501,243.824 103.390 C 250.172 102.940,252.101 101.445,250.892 97.913 C 250.016 95.351,249.469 92.458,249.119 88.529 C 248.771 84.612,248.158 81.572,247.435 80.169 C 247.184 79.683,246.816 77.509,246.589 75.169 C 245.870 67.757,245.360 66.436,243.046 66.002 C 240.903 65.600,231.948 66.819,228.477 67.985 C 226.593 68.617,218.999 69.430,218.072 69.098 C 216.898 68.678,215.625 67.320,215.115 65.948 C 214.832 65.184,214.100 63.831,213.489 62.941 C 212.877 62.051,212.027 60.397,211.600 59.265 L 210.823 57.206 211.808 55.365 C 212.351 54.353,213.019 53.453,213.294 53.365 C 213.569 53.277,214.091 52.715,214.454 52.117 C 214.817 51.519,215.651 50.479,216.307 49.805 C 217.715 48.361,219.115 46.720,220.149 45.303 C 220.559 44.741,221.068 44.184,221.281 44.065 C 221.493 43.946,222.049 43.281,222.515 42.586 C 222.982 41.892,223.849 40.780,224.442 40.116 C 225.036 39.452,225.612 38.625,225.722 38.278 C 225.832 37.931,226.036 37.647,226.176 37.647 C 226.960 37.647,227.705 35.867,227.226 35.137 C 226.965 34.738,226.639 34.412,226.503 34.412 C 226.366 34.412,225.658 33.849,224.931 33.162 C 224.203 32.474,223.028 31.411,222.319 30.800 C 221.610 30.188,220.301 29.061,219.412 28.296 C 218.522 27.530,217.296 26.596,216.687 26.220 C 216.079 25.843,215.450 25.291,215.290 24.992 C 215.130 24.693,214.483 24.159,213.853 23.805 C 213.222 23.450,212.550 22.869,212.360 22.512 C 212.169 22.156,211.617 21.631,211.133 21.345 C 210.227 20.810,209.152 19.889,206.897 17.721 C 206.183 17.033,205.497 16.470,205.373 16.469 C 205.249 16.468,204.526 15.879,203.766 15.160 C 202.058 13.542,200.325 12.625,199.382 12.840 C 197.882 13.180,196.783 13.871,196.174 14.857 C 195.825 15.421,195.280 16.065,194.962 16.287 C 194.645 16.510,193.995 17.271,193.519 17.978 C 192.554 19.413,190.395 22.110,189.311 23.235 C 188.922 23.640,188.258 24.500,187.837 25.147 C 187.415 25.794,186.670 26.588,186.180 26.912 C 185.691 27.235,185.222 27.715,185.137 27.978 C 185.053 28.241,184.557 28.909,184.036 29.463 C 183.515 30.017,182.777 30.844,182.396 31.301 C 181.356 32.551,178.265 32.320,175.471 30.784 C 174.397 30.194,172.959 29.627,172.274 29.524 C 167.319 28.780,167.353 28.896,167.353 12.594 L 167.353 0.000 148.529 0.000 L 129.706 0.000 129.706 13.510 M156.471 52.238 C 157.199 52.493,159.155 52.882,160.818 53.102 C 162.693 53.351,164.146 53.707,164.642 54.041 C 165.858 54.861,166.748 55.231,168.642 55.707 C 169.617 55.951,170.857 56.530,171.481 57.032 C 172.091 57.522,173.146 58.146,173.826 58.418 C 174.506 58.690,175.361 59.211,175.727 59.577 C 176.092 59.943,176.972 60.531,177.681 60.885 C 178.390 61.239,179.434 61.984,180.000 62.541 C 180.566 63.099,182.585 65.076,184.485 66.935 C 186.386 68.795,187.941 70.463,187.941 70.642 C 187.941 70.822,188.386 71.512,188.929 72.176 C 189.472 72.839,190.284 74.110,190.733 75.000 C 191.181 75.890,191.854 76.926,192.227 77.302 C 192.601 77.678,193.184 78.884,193.524 79.981 C 193.863 81.079,194.461 82.410,194.853 82.941 C 195.244 83.472,195.652 84.516,195.758 85.262 C 195.950 86.602,196.895 90.840,197.766 94.265 C 198.640 97.704,198.270 108.506,197.207 110.588 C 197.000 110.993,196.560 112.714,196.230 114.414 C 195.586 117.721,195.186 119.002,194.576 119.705 C 194.366 119.948,193.905 121.030,193.552 122.108 C 193.198 123.187,192.603 124.378,192.228 124.755 C 191.626 125.361,190.294 127.872,190.294 128.401 C 190.294 128.510,189.765 129.128,189.118 129.775 C 188.471 130.422,187.941 131.123,187.941 131.332 C 187.941 131.938,179.641 140.165,178.364 140.824 C 177.727 141.153,177.039 141.697,176.836 142.034 C 176.632 142.371,176.299 142.647,176.096 142.647 C 175.550 142.647,173.529 143.782,172.359 144.746 C 171.797 145.209,171.135 145.589,170.889 145.589 C 170.643 145.590,169.519 146.055,168.391 146.623 C 166.024 147.815,165.370 148.026,161.176 148.953 C 159.478 149.329,157.559 149.845,156.912 150.099 C 155.963 150.473,154.398 150.565,148.824 150.574 C 142.103 150.585,140.600 150.435,138.676 149.562 C 138.191 149.342,136.606 148.955,135.153 148.701 C 133.339 148.385,131.773 147.874,130.153 147.069 C 128.856 146.424,127.205 145.691,126.485 145.440 C 125.765 145.190,124.967 144.795,124.710 144.563 C 124.454 144.331,123.455 143.723,122.490 143.212 C 121.525 142.701,120.499 142.034,120.209 141.730 C 119.920 141.426,119.170 140.915,118.543 140.595 C 117.916 140.275,117.118 139.613,116.769 139.124 C 116.421 138.635,115.977 138.235,115.783 138.235 C 115.588 138.235,115.101 137.898,114.700 137.485 C 114.299 137.072,113.342 136.126,112.574 135.382 C 111.805 134.639,111.176 133.867,111.176 133.668 C 111.176 133.469,110.666 132.859,110.042 132.312 C 109.418 131.765,108.804 130.988,108.677 130.585 C 108.549 130.183,108.009 129.319,107.475 128.667 C 106.941 128.015,106.250 126.888,105.939 126.163 C 105.629 125.438,105.155 124.663,104.888 124.441 C 104.292 123.946,103.674 122.632,103.230 120.914 C 103.046 120.204,102.605 119.145,102.250 118.561 C 101.325 117.043,100.976 115.816,100.565 112.647 C 100.366 111.110,100.025 109.340,99.807 108.713 C 99.214 107.003,99.248 94.490,99.851 93.048 C 100.092 92.471,100.429 90.787,100.600 89.308 C 100.935 86.400,101.223 85.432,102.239 83.792 C 102.600 83.208,103.044 82.149,103.225 81.439 C 103.620 79.888,104.039 78.972,104.892 77.794 C 105.243 77.309,105.725 76.439,105.964 75.861 C 106.202 75.283,106.792 74.357,107.275 73.802 C 107.758 73.248,108.378 72.356,108.652 71.821 C 108.927 71.285,109.585 70.359,110.116 69.762 C 110.646 69.165,111.323 68.257,111.619 67.744 C 111.916 67.231,112.464 66.647,112.838 66.447 C 113.211 66.247,113.818 65.641,114.185 65.100 C 114.552 64.559,115.104 64.036,115.410 63.937 C 115.717 63.838,116.511 63.260,117.175 62.653 C 117.839 62.046,118.846 61.315,119.412 61.029 C 119.978 60.742,120.920 60.079,121.506 59.554 C 122.091 59.030,123.084 58.431,123.712 58.224 C 124.764 57.878,126.400 56.907,126.776 56.407 C 126.863 56.291,127.769 55.982,128.789 55.721 C 129.810 55.460,131.308 54.854,132.120 54.376 C 133.200 53.739,134.356 53.390,136.430 53.074 C 137.989 52.836,140.125 52.458,141.176 52.232 C 144.043 51.618,154.714 51.621,156.471 52.238 M244.140 164.729 L 243.235 165.633 243.235 172.517 C 243.235 181.888,243.111 182.129,237.647 183.378 C 235.048 183.972,234.491 183.937,233.737 183.132 C 231.665 180.922,230.923 180.034,230.334 179.059 C 229.972 178.461,229.447 177.899,229.167 177.810 C 228.886 177.721,228.411 177.232,228.111 176.724 C 227.811 176.217,227.088 175.292,226.503 174.669 C 225.919 174.046,225.126 173.162,224.740 172.704 C 223.910 171.719,221.519 172.048,220.495 173.289 C 220.202 173.645,219.540 174.234,219.025 174.598 C 218.510 174.962,217.493 175.811,216.765 176.486 C 215.383 177.768,210.984 181.406,208.502 183.319 C 207.708 183.931,207.059 184.542,207.059 184.676 C 207.059 184.810,206.675 185.360,206.206 185.897 C 205.358 186.869,205.451 187.709,206.498 188.529 C 206.601 188.610,206.777 188.971,206.890 189.331 C 207.002 189.690,207.486 190.264,207.965 190.605 C 208.445 190.947,209.096 191.735,209.413 192.356 C 209.731 192.978,210.250 193.569,210.569 193.670 C 210.887 193.771,211.441 194.343,211.799 194.942 C 212.158 195.540,212.826 196.409,213.285 196.873 C 213.743 197.337,214.118 197.900,214.118 198.123 C 214.118 198.347,214.237 198.529,214.383 198.529 C 216.220 198.529,214.829 203.440,212.146 206.421 L 210.735 207.990 209.407 207.536 C 208.676 207.286,206.234 206.935,203.980 206.755 C 201.725 206.575,199.610 206.282,199.279 206.105 C 198.497 205.687,195.086 205.739,194.558 206.177 C 193.914 206.712,193.303 209.047,193.103 211.735 C 193.002 213.106,192.668 214.806,192.353 215.558 C 192.041 216.303,191.572 218.301,191.312 220.000 C 189.892 229.251,190.142 229.606,198.676 230.448 C 203.790 230.952,205.426 231.327,206.241 232.180 C 208.630 234.679,209.837 241.176,207.912 241.176 C 207.610 241.176,207.164 241.497,206.040 242.522 C 205.671 242.858,204.923 243.313,204.376 243.533 C 203.083 244.055,201.416 245.092,200.931 245.676 C 200.720 245.931,200.129 246.231,199.616 246.343 C 198.482 246.592,197.532 247.170,196.176 248.438 C 195.610 248.967,194.882 249.594,194.559 249.831 C 193.993 250.244,193.990 250.293,194.478 251.086 C 194.757 251.540,195.465 252.899,196.050 254.106 C 196.636 255.312,197.290 256.437,197.505 256.606 C 197.720 256.774,198.312 257.772,198.821 258.824 C 199.329 259.875,200.129 261.265,200.598 261.912 C 201.067 262.559,201.455 263.296,201.461 263.550 C 201.466 263.804,201.908 264.532,202.443 265.168 C 203.374 266.273,204.412 268.162,204.412 268.749 C 204.412 270.125,207.721 270.278,209.050 268.964 C 209.417 268.601,210.561 267.901,211.593 267.408 C 212.625 266.915,213.555 266.373,213.660 266.203 C 213.765 266.033,214.729 265.487,215.801 264.991 C 216.873 264.495,217.893 263.914,218.066 263.701 C 218.240 263.487,219.068 263.074,219.906 262.782 L 221.429 262.252 222.527 263.111 C 223.131 263.584,224.232 264.434,224.974 265.000 C 227.590 266.996,228.192 269.563,226.597 271.914 C 225.941 272.882,225.787 273.321,224.970 276.578 C 224.772 277.366,224.306 278.371,223.934 278.813 C 223.255 279.621,222.548 281.985,222.772 282.703 C 222.838 282.915,222.971 283.451,223.068 283.893 C 223.306 284.979,224.202 285.505,227.235 286.340 C 228.644 286.727,230.404 287.354,231.148 287.732 C 232.483 288.412,233.666 288.814,236.101 289.418 C 237.161 289.681,238.824 290.941,238.824 291.482 C 238.824 292.081,242.885 292.760,244.407 292.416 C 245.338 292.205,245.465 292.049,245.785 290.724 C 246.836 286.373,247.114 285.451,247.589 284.745 C 248.475 283.427,248.796 282.577,249.244 280.361 C 249.482 279.185,249.882 278.017,250.133 277.767 C 250.383 277.516,250.588 277.191,250.588 277.045 C 250.588 276.313,252.409 275.882,255.508 275.882 C 259.073 275.882,259.822 276.167,260.146 277.644 C 260.253 278.127,260.463 278.599,260.615 278.693 C 261.139 279.017,261.992 281.036,262.348 282.794 C 262.544 283.765,263.154 285.485,263.703 286.618 C 264.253 287.750,264.868 289.537,265.072 290.588 L 265.441 292.500 266.707 292.591 C 269.333 292.780,272.647 291.512,272.647 290.316 C 272.647 290.151,273.408 289.802,274.338 289.541 C 278.191 288.457,278.752 288.257,280.398 287.384 C 281.344 286.882,282.415 286.471,282.778 286.471 C 283.925 286.471,286.849 285.363,287.181 284.803 C 288.227 283.038,288.257 282.380,287.372 280.627 C 286.906 279.703,286.358 278.092,286.154 277.047 C 285.807 275.272,285.361 274.214,284.232 272.492 C 282.845 270.374,283.463 266.840,285.518 265.147 C 286.284 264.514,287.012 263.836,287.134 263.639 C 288.034 262.191,291.055 262.289,292.794 263.823 C 293.118 264.108,293.891 264.521,294.513 264.740 C 295.135 264.959,296.140 265.563,296.747 266.082 C 297.354 266.602,298.534 267.287,299.371 267.604 C 300.207 267.922,301.357 268.591,301.926 269.091 C 303.078 270.102,303.300 270.147,304.736 269.662 C 306.022 269.227,306.525 268.689,307.166 267.059 C 307.453 266.331,308.071 265.252,308.540 264.661 C 309.010 264.070,309.619 263.011,309.894 262.308 C 310.169 261.605,310.765 260.551,311.220 259.966 C 311.674 259.381,312.318 258.269,312.649 257.495 C 312.981 256.721,313.640 255.646,314.113 255.107 C 314.586 254.568,315.136 253.563,315.335 252.873 C 315.534 252.182,315.864 251.366,316.069 251.058 C 316.738 250.053,313.479 246.965,311.127 246.374 C 310.724 246.273,310.035 245.857,309.595 245.449 C 308.839 244.748,306.520 243.529,305.942 243.529 C 305.795 243.529,305.266 243.165,304.767 242.721 C 304.267 242.276,303.435 241.589,302.918 241.194 L 301.978 240.476 302.166 237.596 C 302.488 232.686,304.096 231.163,309.412 230.731 C 319.389 229.920,320.944 229.035,320.255 224.557 C 320.081 223.426,319.810 222.342,319.654 222.150 C 319.170 221.555,317.665 212.341,317.653 209.897 C 317.639 207.201,315.010 204.923,312.941 205.817 C 312.375 206.061,309.993 206.442,307.647 206.662 C 305.301 206.882,302.793 207.240,302.073 207.457 C 299.878 208.117,297.502 206.639,296.799 204.175 C 296.600 203.479,296.053 202.303,295.583 201.562 C 294.701 200.171,294.740 199.393,295.712 199.020 C 295.950 198.929,296.369 198.417,296.642 197.883 C 296.916 197.349,297.617 196.429,298.202 195.839 C 298.786 195.249,299.829 194.124,300.519 193.339 C 301.209 192.554,302.287 191.347,302.915 190.657 C 303.921 189.553,305.000 187.546,305.000 186.781 C 305.000 186.146,302.374 183.604,296.829 178.869 C 296.137 178.278,294.914 177.165,294.113 176.397 C 293.311 175.629,292.501 175.000,292.313 175.000 C 292.125 175.000,291.527 174.543,290.984 173.984 C 290.441 173.425,289.391 172.699,288.651 172.372 L 287.304 171.776 285.343 173.812 C 283.169 176.070,281.258 178.201,280.941 178.723 C 279.936 180.376,276.900 183.200,275.933 183.380 C 275.339 183.491,274.699 183.709,274.511 183.864 C 274.292 184.046,274.104 184.039,273.984 183.846 C 273.882 183.681,273.242 183.405,272.561 183.233 C 267.465 181.946,267.831 182.715,267.647 172.911 C 267.454 162.619,269.037 163.824,255.712 163.824 L 245.045 163.824 244.140 164.729 M262.794 197.336 C 263.603 197.690,264.529 198.098,264.853 198.243 C 265.176 198.388,266.259 198.659,267.260 198.846 C 268.582 199.094,269.492 199.498,270.598 200.328 C 271.434 200.957,272.278 201.471,272.473 201.471 C 273.329 201.471,280.384 208.194,280.909 209.510 C 281.114 210.022,281.768 210.980,282.363 211.638 C 283.026 212.372,283.527 213.283,283.659 213.991 C 283.777 214.627,284.310 215.958,284.844 216.950 C 287.505 221.892,287.067 236.485,284.130 240.735 C 284.018 240.897,283.756 241.625,283.548 242.353 C 283.340 243.081,283.085 243.743,282.981 243.824 C 282.604 244.115,281.253 246.050,280.767 246.994 C 280.494 247.524,279.865 248.318,279.370 248.758 C 278.875 249.199,278.283 249.921,278.054 250.363 C 277.825 250.805,277.275 251.358,276.833 251.592 C 276.391 251.826,275.625 252.390,275.131 252.847 C 274.638 253.303,273.513 254.058,272.631 254.525 C 271.750 254.992,270.737 255.675,270.380 256.043 C 270.023 256.411,269.295 256.803,268.762 256.914 C 267.230 257.234,264.367 258.200,263.965 258.534 C 262.053 260.121,249.884 260.022,246.315 258.391 C 244.611 257.612,242.203 256.766,241.681 256.763 C 241.258 256.760,237.227 254.148,236.192 253.206 C 235.796 252.846,235.068 252.269,234.574 251.925 C 233.294 251.033,231.208 248.855,230.708 247.889 C 230.474 247.437,229.878 246.625,229.382 246.085 C 228.887 245.545,228.164 244.322,227.776 243.367 C 227.387 242.411,226.787 241.248,226.443 240.782 C 224.631 238.331,223.118 226.208,224.241 223.140 C 224.488 222.465,224.894 220.797,225.143 219.436 C 225.391 218.074,225.809 216.552,226.072 216.053 C 226.334 215.555,227.013 214.221,227.581 213.088 C 228.149 211.956,228.780 210.931,228.984 210.810 C 229.188 210.690,229.717 209.973,230.159 209.217 C 230.879 207.989,232.173 206.620,236.029 203.007 C 236.676 202.401,237.603 201.731,238.088 201.519 C 238.574 201.307,239.635 200.678,240.448 200.122 C 241.467 199.425,242.516 199.010,243.830 198.782 C 244.878 198.601,246.132 198.251,246.618 198.003 C 249.449 196.560,250.180 196.447,255.882 196.572 C 260.676 196.678,261.499 196.768,262.794 197.336 " stroke="none" fill="#6d0204" fill-rule="evenodd"></path></g></svg>