<svg id="svg" version="1.1" width="400" height="269.17293233082705" viewBox="0 0 400 269.17293233082705" xmlns="http://www.w3.org/2000/svg" xmlns:xlink="http://www.w3.org/1999/xlink" ><g id="svgg"><path id="path0" d="M106.121 11.642 L 106.191 23.284 120.390 23.354 L 134.590 23.423 134.590 30.150 L 134.590 36.878 116.050 36.878 C 96.137 36.878,95.903 36.888,95.667 37.829 C 95.582 38.166,95.282 38.502,95.001 38.576 C 94.719 38.649,94.369 39.024,94.223 39.409 C 94.064 39.826,93.749 40.108,93.441 40.108 C 92.819 40.108,92.598 40.608,92.598 42.014 C 92.598 43.006,92.550 43.069,91.790 43.069 C 91.108 43.069,90.983 43.173,90.983 43.742 C 90.983 44.280,90.848 44.415,90.310 44.415 C 89.741 44.415,89.637 44.540,89.637 45.222 C 89.637 45.940,89.547 46.030,88.829 46.030 C 88.147 46.030,88.022 46.134,88.022 46.703 C 88.022 47.241,87.887 47.376,87.349 47.376 C 86.780 47.376,86.676 47.501,86.676 48.183 C 86.676 48.901,86.586 48.991,85.868 48.991 C 85.192 48.991,85.061 49.097,85.061 49.646 C 85.061 50.160,84.902 50.319,84.320 50.386 C 83.744 50.452,83.562 50.631,83.497 51.195 C 83.438 51.701,83.236 51.944,82.824 52.002 C 82.411 52.061,82.209 52.303,82.151 52.810 C 82.086 53.370,81.903 53.553,81.343 53.618 C 80.836 53.676,80.594 53.878,80.535 54.290 C 80.483 54.657,80.229 54.911,79.862 54.963 C 79.446 55.022,79.248 55.264,79.188 55.787 C 79.132 56.277,78.945 56.528,78.636 56.528 C 78.039 56.528,77.524 57.043,77.524 57.639 C 77.524 57.918,77.280 58.140,76.918 58.191 C 76.529 58.247,76.282 58.494,76.226 58.883 C 76.175 59.245,75.953 59.489,75.674 59.489 C 75.072 59.489,74.563 60.005,74.563 60.616 C 74.563 61.071,73.890 61.102,62.651 61.168 L 50.740 61.238 50.489 62.651 C 50.271 63.877,50.156 64.065,49.614 64.065 C 49.133 64.065,48.991 64.214,48.991 64.720 C 48.991 65.234,48.832 65.393,48.250 65.460 C 47.669 65.527,47.492 65.704,47.425 66.285 C 47.358 66.867,47.199 67.026,46.685 67.026 C 46.136 67.026,46.030 67.157,46.030 67.833 C 46.030 68.431,45.904 68.641,45.545 68.641 C 44.768 68.641,44.415 69.204,44.415 70.444 C 44.415 71.499,44.355 71.602,43.742 71.602 C 43.208 71.602,43.069 71.737,43.069 72.257 C 43.069 72.771,42.910 72.930,42.328 72.997 C 41.747 73.064,41.570 73.241,41.503 73.822 C 41.436 74.402,41.277 74.563,40.768 74.563 C 40.315 74.563,40.071 74.749,39.963 75.178 C 39.878 75.517,39.543 75.910,39.218 76.053 L 38.627 76.312 38.558 93.472 L 38.489 110.633 30.955 110.633 L 23.421 110.633 23.353 84.320 L 23.284 58.008 11.642 57.938 L 0.000 57.868 0.000 125.569 L 0.000 193.271 11.709 193.271 L 23.419 193.271 23.419 169.179 L 23.419 145.087 30.954 145.087 L 38.490 145.087 38.559 174.226 L 38.627 203.365 39.233 203.630 C 39.566 203.777,39.838 204.085,39.838 204.317 C 39.838 204.880,40.373 205.384,40.969 205.384 C 41.306 205.384,41.454 205.588,41.454 206.057 C 41.454 206.625,41.579 206.729,42.261 206.729 C 42.979 206.729,43.069 206.819,43.069 207.537 C 43.069 208.219,43.173 208.345,43.742 208.345 C 44.345 208.345,44.415 208.454,44.415 209.402 C 44.415 210.474,44.944 211.306,45.627 211.306 C 45.829 211.306,46.032 211.639,46.079 212.046 C 46.139 212.569,46.337 212.811,46.753 212.870 C 47.120 212.922,47.374 213.176,47.426 213.543 C 47.485 213.955,47.727 214.157,48.234 214.215 C 48.794 214.280,48.977 214.464,49.042 215.023 C 49.099 215.522,49.303 215.772,49.697 215.829 C 50.143 215.892,50.302 216.151,50.416 217.005 C 50.497 217.607,50.700 218.237,50.867 218.404 C 51.087 218.624,58.087 218.728,76.326 218.781 L 101.480 218.853 101.480 219.521 C 101.480 220.083,101.608 220.188,102.288 220.188 C 103.006 220.188,103.096 220.278,103.096 220.996 C 103.096 221.714,103.185 221.803,103.903 221.803 C 104.621 221.803,104.711 221.893,104.711 222.611 C 104.711 223.281,104.819 223.419,105.349 223.419 C 105.910 223.419,106.008 223.578,106.163 224.747 C 106.310 225.849,106.441 226.089,106.938 226.160 C 107.365 226.220,107.562 226.458,107.622 226.985 C 107.688 227.554,107.851 227.725,108.329 227.725 C 108.804 227.725,108.988 227.916,109.112 228.533 C 109.239 229.167,109.415 229.341,109.935 229.341 C 110.457 229.341,110.615 229.497,110.682 230.081 C 110.749 230.662,110.926 230.839,111.507 230.906 C 112.089 230.973,112.248 231.132,112.248 231.646 C 112.248 232.166,112.387 232.301,112.921 232.301 C 113.489 232.301,113.594 232.427,113.594 233.109 C 113.594 233.827,113.683 233.917,114.401 233.917 C 115.173 233.917,115.209 233.967,115.209 235.074 C 115.209 236.305,115.562 236.878,116.320 236.878 C 116.599 236.878,116.821 237.122,116.872 237.483 C 116.927 237.867,117.175 238.120,117.548 238.173 C 117.960 238.231,118.162 238.474,118.221 238.980 C 118.280 239.494,118.480 239.729,118.910 239.790 C 119.350 239.852,119.515 240.056,119.515 240.537 C 119.515 241.056,119.689 241.233,120.323 241.359 C 120.948 241.484,121.131 241.665,121.131 242.160 C 121.131 242.691,121.268 242.799,121.938 242.799 C 122.656 242.799,122.746 242.889,122.746 243.607 C 122.746 244.277,122.854 244.415,123.384 244.415 C 123.946 244.415,124.043 244.574,124.200 245.758 C 124.349 246.875,124.486 247.128,125.019 247.261 C 125.398 247.356,125.727 247.688,125.823 248.072 C 125.922 248.467,126.182 248.721,126.486 248.721 C 126.825 248.721,127.037 248.980,127.147 249.529 C 127.275 250.170,127.448 250.336,127.988 250.336 C 128.535 250.336,128.668 250.469,128.668 251.016 C 128.668 251.556,128.834 251.729,129.475 251.857 C 130.100 251.982,130.283 252.163,130.283 252.658 C 130.283 253.161,130.427 253.297,130.956 253.297 C 131.524 253.297,131.629 253.423,131.629 254.105 C 131.629 254.823,131.718 254.913,132.436 254.913 C 133.154 254.913,133.244 255.002,133.244 255.720 C 133.244 256.394,133.351 256.528,133.891 256.528 C 134.464 256.528,134.560 256.683,134.724 257.873 C 134.886 259.052,134.987 259.219,135.539 259.219 C 136.026 259.219,136.188 259.387,136.254 259.960 C 136.321 260.541,136.498 260.718,137.079 260.785 C 137.699 260.856,137.820 260.999,137.820 261.660 C 137.820 262.323,137.928 262.450,138.493 262.450 C 139.031 262.450,139.166 262.584,139.166 263.122 C 139.166 263.691,139.291 263.795,139.973 263.795 C 140.691 263.795,140.781 263.885,140.781 264.603 C 140.781 265.279,140.887 265.410,141.436 265.410 C 141.950 265.410,142.109 265.569,142.176 266.151 C 142.243 266.732,142.420 266.909,143.001 266.976 C 143.669 267.053,143.742 267.165,143.742 268.120 L 143.742 269.179 219.650 269.179 C 286.945 269.179,295.559 269.133,295.559 268.775 C 295.559 268.524,295.813 268.371,296.231 268.371 C 296.770 268.371,296.904 268.237,296.904 267.699 C 296.904 267.130,297.030 267.026,297.712 267.026 C 298.430 267.026,298.520 266.936,298.520 266.218 C 298.520 265.500,298.609 265.410,299.327 265.410 C 300.045 265.410,300.135 265.321,300.135 264.603 C 300.135 263.921,300.239 263.795,300.808 263.795 C 301.346 263.795,301.480 263.661,301.480 263.122 C 301.480 262.554,301.606 262.450,302.288 262.450 C 303.006 262.450,303.096 262.360,303.096 261.642 C 303.096 260.960,303.200 260.834,303.769 260.834 C 304.302 260.834,304.441 260.699,304.441 260.179 C 304.441 259.665,304.600 259.506,305.182 259.439 C 305.763 259.372,305.940 259.195,306.007 258.614 C 306.074 258.032,306.233 257.873,306.747 257.873 C 307.267 257.873,307.402 257.734,307.402 257.201 C 307.402 256.632,307.528 256.528,308.210 256.528 C 308.928 256.528,309.017 256.438,309.017 255.720 C 309.017 255.002,309.107 254.913,309.825 254.913 C 310.543 254.913,310.633 254.823,310.633 254.105 C 310.633 253.423,310.737 253.297,311.306 253.297 C 311.839 253.297,311.978 253.162,311.978 252.642 C 311.978 252.128,312.137 251.969,312.719 251.902 C 313.300 251.835,313.477 251.658,313.544 251.077 C 313.611 250.495,313.770 250.336,314.284 250.336 L 314.939 250.336 314.939 234.590 L 314.939 218.843 323.282 218.843 L 331.624 218.843 331.694 234.522 L 331.763 250.202 356.460 250.271 L 381.157 250.339 381.157 249.683 C 381.157 249.167,381.316 249.008,381.898 248.941 C 382.598 248.861,382.642 248.773,382.719 247.308 C 382.794 245.867,382.845 245.760,383.459 245.760 C 384.079 245.760,384.118 245.672,384.118 244.280 C 384.118 242.814,384.127 242.799,384.926 242.799 C 385.725 242.799,385.734 242.785,385.734 241.319 C 385.734 240.073,385.810 239.838,386.218 239.838 C 386.992 239.838,387.349 239.276,387.349 238.054 C 387.349 237.078,387.435 236.903,387.954 236.829 C 388.482 236.754,388.570 236.561,388.641 235.330 C 388.698 234.349,388.836 233.917,389.093 233.917 C 389.772 233.917,390.310 233.088,390.310 232.042 C 390.310 231.170,390.412 230.988,390.983 230.845 C 391.598 230.691,391.655 230.550,391.655 229.201 C 391.655 227.960,391.732 227.725,392.140 227.725 C 392.907 227.725,393.271 227.166,393.271 225.986 C 393.271 225.110,393.391 224.839,393.876 224.626 C 394.361 224.414,394.498 224.106,394.564 223.082 C 394.628 222.077,394.746 221.803,395.116 221.803 C 395.979 221.803,396.231 221.213,396.231 219.192 L 396.231 217.227 397.039 217.227 C 397.838 217.227,397.847 217.213,397.847 215.747 C 397.847 214.347,397.883 214.266,398.520 214.266 C 399.156 214.266,399.192 214.186,399.192 212.786 C 399.192 211.649,399.286 211.306,399.596 211.306 C 399.954 211.306,400.000 205.787,400.000 163.257 C 400.000 120.727,399.954 115.209,399.596 115.209 C 399.286 115.209,399.192 114.865,399.192 113.728 C 399.192 112.336,399.153 112.248,398.533 112.248 C 397.919 112.248,397.868 112.141,397.793 110.700 C 397.717 109.242,397.670 109.147,396.985 109.068 C 396.312 108.991,396.253 108.881,396.178 107.588 C 396.102 106.288,396.046 106.185,395.357 106.106 C 394.650 106.025,394.616 105.954,394.616 104.558 C 394.616 103.178,394.579 103.096,393.943 103.096 C 393.307 103.096,393.271 103.015,393.271 101.615 C 393.271 100.150,393.262 100.135,392.463 100.135 C 391.664 100.135,391.655 100.120,391.655 98.654 C 391.655 97.263,391.616 97.174,390.997 97.174 C 390.392 97.174,390.331 97.058,390.256 95.760 C 390.181 94.449,390.123 94.341,389.448 94.263 C 388.764 94.184,388.716 94.088,388.640 92.648 C 388.569 91.294,388.490 91.107,387.954 91.031 C 387.419 90.955,387.349 90.790,387.349 89.611 C 387.349 88.344,387.308 88.269,386.541 88.116 C 385.764 87.960,385.734 87.900,385.734 86.507 C 385.734 85.079,385.723 85.061,384.926 85.061 C 384.127 85.061,384.118 85.046,384.118 83.580 C 384.118 82.189,384.079 82.100,383.460 82.100 C 382.855 82.100,382.794 81.984,382.719 80.686 C 382.643 79.368,382.588 79.267,381.898 79.188 C 381.278 79.117,381.157 78.975,381.157 78.313 L 381.157 77.524 355.720 77.524 L 330.283 77.524 330.283 92.598 L 330.283 107.672 323.421 107.672 L 316.559 107.672 316.489 92.665 L 316.420 77.658 299.933 77.589 L 283.445 77.519 283.445 65.543 L 283.445 53.567 282.638 53.567 C 281.920 53.567,281.830 53.477,281.830 52.759 C 281.830 52.088,281.722 51.952,281.189 51.952 C 280.774 51.952,280.498 51.762,280.407 51.414 C 280.329 51.118,280.006 50.780,279.688 50.662 C 279.370 50.545,278.962 50.151,278.781 49.787 C 278.513 49.246,278.220 49.110,277.181 49.043 C 275.970 48.965,275.908 48.922,275.908 48.168 C 275.908 47.502,275.801 47.376,275.236 47.376 C 274.697 47.376,274.563 47.241,274.563 46.703 C 274.563 46.138,274.436 46.030,273.773 46.030 C 273.112 46.030,272.969 45.909,272.898 45.289 C 272.831 44.708,272.654 44.531,272.073 44.464 C 271.491 44.397,271.332 44.238,271.332 43.724 C 271.332 43.214,271.191 43.069,270.693 43.069 C 270.198 43.069,270.017 42.886,269.892 42.261 C 269.766 41.631,269.588 41.454,269.080 41.454 C 268.616 41.454,268.383 41.266,268.266 40.799 C 268.164 40.392,267.874 40.112,267.499 40.059 C 267.151 40.009,266.854 39.746,266.795 39.435 C 266.656 38.695,266.274 38.502,264.939 38.497 C 263.849 38.493,263.795 38.455,263.795 37.685 L 263.795 36.878 235.262 36.878 L 206.729 36.878 206.729 30.148 L 206.729 23.419 221.803 23.419 L 236.878 23.419 236.878 11.709 L 236.878 0.000 171.464 0.000 L 106.051 0.000 106.121 11.642 M109.690 126.084 C 113.822 127.766,116.333 130.522,117.434 134.584 C 118.550 138.700,118.689 139.369,118.698 140.673 C 118.704 141.428,118.575 142.428,118.412 142.894 L 118.117 143.742 112.769 143.742 C 106.532 143.742,107.027 144.017,106.762 140.403 C 106.359 134.921,104.088 132.629,100.078 133.658 C 97.225 134.390,96.327 135.737,94.975 141.319 C 94.273 144.216,94.494 165.441,95.254 168.139 C 96.254 171.692,96.497 172.246,97.535 173.341 C 99.339 175.244,103.675 175.499,104.880 173.772 C 106.598 171.309,106.624 171.232,106.897 167.726 C 107.237 163.369,106.785 163.661,113.198 163.661 L 118.352 163.661 118.665 164.347 C 119.174 165.464,118.617 170.452,117.666 173.290 C 115.946 178.425,113.713 180.807,109.017 182.515 L 106.460 183.445 101.615 183.425 C 97.304 183.407,96.621 183.341,95.424 182.832 C 94.684 182.518,93.533 182.122,92.867 181.954 C 89.255 181.040,85.326 176.483,84.240 171.949 C 84.052 171.166,83.736 170.135,83.537 169.658 C 82.435 167.015,82.378 140.891,83.470 138.850 C 83.622 138.566,83.969 137.489,84.239 136.457 C 84.510 135.426,84.846 134.432,84.986 134.249 C 85.125 134.066,85.403 133.493,85.603 132.974 C 86.362 131.008,89.499 127.815,91.655 126.814 C 96.448 124.590,105.155 124.238,109.690 126.084 M238.762 126.004 C 242.293 127.414,244.271 129.119,245.754 132.032 C 247.385 135.236,248.394 141.097,247.651 143.051 L 247.389 143.742 242.031 143.742 L 236.674 143.742 236.394 143.001 C 236.240 142.594,236.045 141.231,235.961 139.973 C 235.626 134.956,233.314 132.665,229.551 133.620 C 226.787 134.321,226.095 135.142,224.870 139.166 L 224.092 141.723 224.097 154.374 L 224.102 167.026 224.837 169.146 C 225.241 170.312,225.572 171.436,225.572 171.642 C 225.572 172.620,227.697 174.348,229.324 174.694 C 233.736 175.630,235.883 173.414,236.233 167.564 C 236.480 163.419,236.095 163.661,242.443 163.661 L 247.656 163.661 247.961 164.330 C 248.188 164.828,248.188 165.809,247.962 168.166 C 247.378 174.248,245.602 177.922,241.781 180.948 C 238.770 183.333,229.035 184.373,224.668 182.775 C 223.907 182.497,222.742 182.128,222.080 181.956 C 221.418 181.784,220.530 181.352,220.108 180.996 C 219.685 180.641,219.248 180.350,219.137 180.350 C 217.755 180.350,214.103 174.638,213.469 171.485 C 213.307 170.681,213.050 169.873,212.897 169.689 C 212.110 168.740,211.882 142.872,212.635 139.838 C 214.610 131.872,217.712 127.578,222.360 126.376 C 223.312 126.129,224.248 125.798,224.439 125.641 C 225.802 124.513,235.655 124.764,238.762 126.004 M138.035 126.568 C 138.275 126.808,138.358 129.461,138.358 136.843 C 138.358 149.185,137.482 147.779,145.175 147.779 C 152.978 147.779,152.086 149.170,152.086 137.003 C 152.086 128.148,152.132 127.080,152.530 126.750 C 153.125 126.256,162.498 126.036,163.357 126.495 L 163.933 126.804 163.864 154.317 L 163.795 181.830 158.312 181.903 C 154.494 181.954,152.715 181.883,152.457 181.669 C 152.152 181.415,152.086 179.195,152.086 169.156 C 152.086 157.364,152.068 156.941,151.565 156.672 C 150.733 156.226,139.039 156.301,138.663 156.754 C 138.455 157.004,138.342 160.894,138.293 169.472 L 138.223 181.830 132.740 181.903 C 128.922 181.954,127.143 181.883,126.885 181.669 C 126.361 181.234,126.327 127.273,126.851 126.840 C 127.594 126.226,137.453 125.986,138.035 126.568 M203.130 126.646 L 204.089 127.047 203.996 130.796 C 203.945 132.858,203.802 134.646,203.679 134.769 C 203.556 134.892,199.502 135.028,194.671 135.071 C 183.751 135.168,184.926 134.404,184.926 141.407 C 184.926 148.520,183.917 147.779,193.599 147.779 C 203.286 147.779,202.423 147.358,202.423 152.086 C 202.423 156.813,203.275 156.393,193.674 156.393 C 188.876 156.393,185.771 156.498,185.447 156.672 C 184.702 157.070,184.633 172.043,185.371 172.859 C 185.786 173.317,186.443 173.351,194.934 173.351 L 204.051 173.351 204.314 174.042 C 204.701 175.061,204.652 181.243,204.253 181.642 C 203.827 182.068,174.395 182.111,173.603 181.686 C 172.946 181.335,172.765 127.381,173.419 126.840 C 174.266 126.139,201.492 125.961,203.130 126.646 M267.119 126.749 C 267.518 127.080,267.564 128.146,267.564 137.120 C 267.564 146.003,267.614 147.192,268.011 147.759 L 268.458 148.397 269.224 146.944 C 269.646 146.145,270.459 144.748,271.031 143.839 C 271.603 142.930,272.254 141.840,272.477 141.416 C 273.889 138.742,274.569 137.530,275.325 136.339 C 275.795 135.599,276.425 134.483,276.725 133.860 C 277.024 133.237,277.384 132.657,277.524 132.571 C 277.663 132.484,278.023 131.904,278.322 131.281 C 279.192 129.474,280.633 127.263,281.287 126.733 C 282.130 126.050,292.115 125.991,293.074 126.663 L 293.671 127.081 293.154 128.094 C 292.870 128.651,292.446 129.265,292.213 129.459 C 291.981 129.652,291.790 129.949,291.790 130.119 C 291.790 130.289,291.063 131.504,290.175 132.818 C 289.287 134.132,288.560 135.349,288.560 135.524 C 288.560 135.699,288.257 136.126,287.887 136.474 C 287.517 136.821,287.213 137.236,287.212 137.396 C 287.211 137.555,286.605 138.573,285.866 139.658 C 285.127 140.742,284.522 141.683,284.522 141.748 C 284.522 141.813,284.124 142.500,283.638 143.275 C 282.370 145.296,282.139 145.669,281.621 146.530 C 281.366 146.954,280.892 147.681,280.568 148.145 C 278.756 150.743,278.720 152.506,280.425 154.990 C 280.701 155.392,281.140 156.295,281.401 156.999 C 281.662 157.702,281.978 158.277,282.104 158.277 C 282.230 158.277,282.414 158.550,282.514 158.883 C 282.727 159.597,284.829 163.868,285.726 165.410 C 288.256 169.760,293.691 181.217,293.394 181.574 C 293.129 181.894,292.005 181.965,287.217 181.965 C 280.633 181.965,280.185 181.845,279.835 179.978 C 279.740 179.472,279.424 178.755,279.132 178.383 C 278.839 178.012,278.600 177.621,278.600 177.514 C 278.600 177.408,278.255 176.640,277.834 175.807 C 277.412 174.975,276.912 173.809,276.722 173.217 C 276.532 172.624,276.258 171.991,276.114 171.809 C 275.724 171.317,273.755 167.346,273.755 167.051 C 273.755 166.705,271.860 162.818,271.445 162.315 C 271.263 162.093,270.976 161.394,270.807 160.762 C 270.639 160.129,270.204 159.174,269.840 158.638 C 269.476 158.102,269.175 157.469,269.170 157.230 C 269.151 156.228,268.465 155.765,267.994 156.437 C 267.615 156.978,267.564 158.508,267.564 169.206 C 267.564 179.203,267.498 181.415,267.193 181.669 C 266.935 181.883,265.156 181.954,261.338 181.903 L 255.855 181.830 255.786 154.403 C 255.733 133.230,255.792 126.887,256.044 126.583 C 256.499 126.034,266.437 126.183,267.119 126.749 " stroke="none" fill="#ffffff" fill-rule="evenodd"></path><path id="path1" d="M97.174 125.166 C 95.796 125.372,92.897 126.238,91.655 126.814 C 89.499 127.815,86.362 131.008,85.603 132.974 C 85.403 133.493,85.125 134.066,84.986 134.249 C 84.846 134.432,84.510 135.426,84.239 136.457 C 83.969 137.489,83.622 138.566,83.470 138.850 C 82.378 140.891,82.435 167.015,83.537 169.658 C 83.736 170.135,84.052 171.166,84.240 171.949 C 85.326 176.483,89.255 181.040,92.867 181.954 C 93.533 182.122,94.684 182.518,95.424 182.832 C 96.621 183.341,97.304 183.407,101.615 183.425 L 106.460 183.445 109.017 182.515 C 113.713 180.807,115.946 178.425,117.666 173.290 C 118.617 170.452,119.174 165.464,118.665 164.347 L 118.352 163.661 113.198 163.661 C 106.785 163.661,107.237 163.369,106.897 167.726 C 106.624 171.232,106.598 171.309,104.880 173.772 C 103.675 175.499,99.339 175.244,97.535 173.341 C 96.497 172.246,96.254 171.692,95.254 168.139 C 94.494 165.441,94.273 144.216,94.975 141.319 C 96.327 135.737,97.225 134.390,100.078 133.658 C 104.088 132.629,106.359 134.921,106.762 140.403 C 107.027 144.017,106.532 143.742,112.769 143.742 L 118.117 143.742 118.412 142.894 C 118.816 141.737,118.768 139.602,118.300 137.820 C 117.186 133.585,116.889 132.707,116.104 131.326 C 113.251 126.313,105.775 123.880,97.174 125.166 M226.458 125.148 C 225.538 125.261,224.630 125.483,224.439 125.641 C 224.248 125.798,223.312 126.129,222.360 126.376 C 217.712 127.578,214.610 131.872,212.635 139.838 C 211.882 142.872,212.110 168.740,212.897 169.689 C 213.050 169.873,213.307 170.681,213.469 171.485 C 214.103 174.638,217.755 180.350,219.137 180.350 C 219.248 180.350,219.685 180.641,220.108 180.996 C 220.530 181.352,221.418 181.784,222.080 181.956 C 222.742 182.128,223.907 182.497,224.668 182.775 C 229.035 184.373,238.770 183.333,241.781 180.948 C 245.602 177.922,247.378 174.248,247.962 168.166 C 248.188 165.809,248.188 164.828,247.961 164.330 L 247.656 163.661 242.443 163.661 C 236.095 163.661,236.480 163.419,236.233 167.564 C 235.883 173.414,233.736 175.630,229.324 174.694 C 227.697 174.348,225.572 172.620,225.572 171.642 C 225.572 171.436,225.241 170.312,224.837 169.146 L 224.102 167.026 224.097 154.374 L 224.092 141.723 224.870 139.166 C 226.095 135.142,226.787 134.321,229.551 133.620 C 233.314 132.665,235.626 134.956,235.961 139.973 C 236.045 141.231,236.240 142.594,236.394 143.001 L 236.674 143.742 242.031 143.742 L 247.389 143.742 247.651 143.051 C 248.394 141.097,247.385 135.236,245.754 132.032 C 242.873 126.373,236.110 123.960,226.458 125.148 M127.995 126.444 C 127.550 126.509,127.036 126.687,126.851 126.840 C 126.327 127.273,126.361 181.234,126.885 181.669 C 127.143 181.883,128.922 181.954,132.740 181.903 L 138.223 181.830 138.293 169.472 C 138.342 160.894,138.455 157.004,138.663 156.754 C 139.039 156.301,150.733 156.226,151.565 156.672 C 152.068 156.941,152.086 157.364,152.086 169.156 C 152.086 179.195,152.152 181.415,152.457 181.669 C 152.715 181.883,154.494 181.954,158.312 181.903 L 163.795 181.830 163.864 154.317 L 163.933 126.804 163.357 126.495 C 162.498 126.036,153.125 126.256,152.530 126.750 C 152.132 127.080,152.086 128.148,152.086 137.003 C 152.086 149.170,152.978 147.779,145.175 147.779 C 137.482 147.779,138.358 149.185,138.358 136.843 C 138.358 129.461,138.275 126.808,138.035 126.568 C 137.720 126.253,129.959 126.156,127.995 126.444 M174.563 126.444 C 172.989 126.674,173.082 124.917,173.082 154.263 C 173.082 180.825,173.093 181.414,173.603 181.686 C 174.395 182.111,203.827 182.068,204.253 181.642 C 204.652 181.243,204.701 175.061,204.314 174.042 L 204.051 173.351 194.934 173.351 C 186.443 173.351,185.786 173.317,185.371 172.859 C 184.633 172.043,184.702 157.070,185.447 156.672 C 185.771 156.498,188.876 156.393,193.674 156.393 C 203.275 156.393,202.423 156.813,202.423 152.086 C 202.423 147.358,203.286 147.779,193.599 147.779 C 183.917 147.779,184.926 148.520,184.926 141.407 C 184.926 134.404,183.751 135.168,194.671 135.071 C 199.502 135.028,203.556 134.892,203.679 134.769 C 203.802 134.646,203.945 132.858,203.996 130.796 L 204.089 127.047 203.130 126.646 C 202.207 126.260,177.035 126.082,174.563 126.444 M256.044 126.583 C 255.792 126.887,255.733 133.230,255.786 154.403 L 255.855 181.830 261.338 181.903 C 265.156 181.954,266.935 181.883,267.193 181.669 C 267.498 181.415,267.564 179.203,267.564 169.206 C 267.564 158.508,267.615 156.978,267.994 156.437 C 268.465 155.765,269.151 156.228,269.170 157.230 C 269.175 157.469,269.476 158.102,269.840 158.638 C 270.204 159.174,270.639 160.129,270.807 160.762 C 270.976 161.394,271.263 162.093,271.445 162.315 C 271.860 162.818,273.755 166.705,273.755 167.051 C 273.755 167.346,275.724 171.317,276.114 171.809 C 276.258 171.991,276.532 172.624,276.722 173.217 C 276.912 173.809,277.412 174.975,277.834 175.807 C 278.255 176.640,278.600 177.408,278.600 177.514 C 278.600 177.621,278.839 178.012,279.132 178.383 C 279.424 178.755,279.740 179.472,279.835 179.978 C 280.185 181.845,280.633 181.965,287.217 181.965 C 292.005 181.965,293.129 181.894,293.394 181.574 C 293.691 181.217,288.256 169.760,285.726 165.410 C 284.829 163.868,282.727 159.597,282.514 158.883 C 282.414 158.550,282.230 158.277,282.104 158.277 C 281.978 158.277,281.662 157.702,281.401 156.999 C 281.140 156.295,280.701 155.392,280.425 154.990 C 278.720 152.506,278.756 150.743,280.568 148.145 C 280.892 147.681,281.366 146.954,281.621 146.530 C 282.139 145.669,282.370 145.296,283.638 143.275 C 284.124 142.500,284.522 141.813,284.522 141.748 C 284.522 141.683,285.127 140.742,285.866 139.658 C 286.605 138.573,287.211 137.555,287.212 137.396 C 287.213 137.236,287.517 136.821,287.887 136.474 C 288.257 136.126,288.560 135.699,288.560 135.524 C 288.560 135.349,289.287 134.132,290.175 132.818 C 291.063 131.504,291.790 130.289,291.790 130.119 C 291.790 129.949,291.981 129.652,292.213 129.459 C 292.446 129.265,292.870 128.651,293.154 128.094 L 293.671 127.081 293.074 126.663 C 292.115 125.991,282.130 126.050,281.287 126.733 C 280.633 127.263,279.192 129.474,278.322 131.281 C 278.023 131.904,277.663 132.484,277.524 132.571 C 277.384 132.657,277.024 133.237,276.725 133.860 C 276.425 134.483,275.795 135.599,275.325 136.339 C 274.569 137.530,273.889 138.742,272.477 141.416 C 272.254 141.840,271.603 142.930,271.031 143.839 C 270.459 144.748,269.646 146.145,269.224 146.944 L 268.458 148.397 268.011 147.759 C 267.614 147.192,267.564 146.003,267.564 137.120 C 267.564 128.146,267.518 127.080,267.119 126.749 C 266.437 126.183,256.499 126.034,256.044 126.583 " stroke="none" fill="#6d0204" fill-rule="evenodd"></path></g></svg>