<svg id="svg" version="1.1" width="400" height="198.16993464052288" viewBox="0 0 400 198.16993464052288" xmlns="http://www.w3.org/2000/svg" xmlns:xlink="http://www.w3.org/1999/xlink" ><g id="svgg"><path id="path0" d="M164.381 28.989 C 164.278 29.125,163.868 30.040,163.470 31.021 C 163.073 32.002,162.116 34.366,161.345 36.274 C 160.573 38.181,159.861 39.921,159.762 40.139 C 159.664 40.357,158.987 42.007,158.259 43.806 C 153.665 55.151,154.092 54.318,153.117 53.853 C 150.480 52.596,139.031 53.866,138.149 55.515 C 137.680 56.390,138.534 59.932,139.398 60.695 C 139.424 60.718,141.809 60.785,144.698 60.844 C 149.209 60.936,149.945 60.993,149.915 61.249 C 149.895 61.412,149.703 62.037,149.488 62.636 C 147.967 66.882,147.807 80.953,149.058 100.586 C 149.298 104.345,149.071 104.035,151.638 104.106 L 153.717 104.163 153.828 108.028 C 153.890 110.154,154.034 112.163,154.149 112.493 C 156.385 118.924,165.680 120.646,170.690 115.558 C 172.666 113.551,172.882 112.856,173.026 108.028 L 173.142 104.163 199.880 104.112 C 218.562 104.077,226.694 104.126,226.872 104.273 C 227.059 104.428,227.143 105.519,227.190 108.387 C 227.266 112.986,227.500 113.750,229.421 115.671 C 234.084 120.333,242.985 119.012,245.635 113.265 C 246.045 112.376,246.091 111.944,246.151 108.425 C 246.229 103.768,246.050 104.063,248.790 104.063 C 251.439 104.063,251.239 104.399,251.525 99.474 C 251.641 97.474,251.777 95.570,251.827 95.243 C 252.134 93.223,252.356 78.371,252.144 74.007 C 251.759 66.105,251.187 63.843,249.068 61.853 C 248.030 60.877,248.107 60.862,254.460 60.806 L 260.357 60.753 261.081 59.291 C 263.293 54.826,261.147 53.530,251.533 53.522 C 247.307 53.518,247.261 53.523,246.538 54.014 C 245.398 54.788,245.486 54.887,243.901 51.041 C 242.595 47.868,242.012 46.474,241.832 46.085 C 241.436 45.231,240.363 42.673,239.517 40.566 C 238.769 38.704,237.874 36.600,237.058 34.787 C 236.960 34.569,236.616 33.722,236.294 32.904 C 235.971 32.086,235.522 31.042,235.297 30.584 C 235.071 30.126,234.886 29.664,234.886 29.558 C 234.886 29.451,234.746 29.224,234.575 29.053 C 234.154 28.632,164.698 28.569,164.381 28.989 M231.164 34.044 C 231.626 34.572,240.683 56.253,240.539 56.486 C 240.305 56.865,158.984 56.760,158.838 56.381 C 158.721 56.076,159.472 54.108,162.841 45.887 C 163.780 43.598,165.251 39.993,166.111 37.876 C 166.971 35.759,167.790 33.954,167.931 33.865 C 168.520 33.491,230.834 33.667,231.164 34.044 M166.223 65.219 C 173.035 67.559,174.446 77.066,168.561 80.976 C 162.924 84.722,155.707 81.638,154.618 75.018 C 153.553 68.540,160.012 63.086,166.223 65.219 M239.214 65.123 C 242.412 66.072,244.916 68.943,245.429 72.248 C 246.766 80.847,236.440 86.087,230.335 79.908 C 223.943 73.437,230.492 62.532,239.214 65.123 M227.367 89.402 C 227.895 89.685,227.958 94.031,227.437 94.231 C 227.027 94.388,172.973 94.388,172.563 94.231 C 172.072 94.042,172.102 89.699,172.597 89.411 C 173.083 89.128,226.838 89.119,227.367 89.402 " stroke="none" fill="#6d0204" fill-rule="evenodd"></path><path id="path1" d="M0.000 0.666 C 0.000 1.335,7.504 8.896,34.381 35.305 C 38.706 39.555,45.188 45.970,64.903 65.510 C 67.433 68.018,71.773 72.299,74.548 75.025 C 77.323 77.750,86.281 86.581,94.454 94.648 C 102.628 102.716,111.768 111.723,114.767 114.665 C 117.765 117.607,124.627 124.386,130.015 129.729 C 139.445 139.081,143.681 143.266,154.609 154.026 C 157.389 156.763,164.212 163.507,169.772 169.012 C 175.332 174.517,184.263 183.340,189.618 188.619 L 199.355 198.216 200.410 198.216 L 201.466 198.216 204.476 195.193 C 207.834 191.820,234.675 165.157,246.792 153.158 C 251.105 148.886,264.886 135.221,277.416 122.790 C 289.946 110.359,304.212 96.225,309.118 91.382 C 314.024 86.538,321.293 79.338,325.273 75.382 C 359.045 41.805,367.244 33.668,390.040 11.108 C 399.001 2.240,400.000 1.188,400.000 0.625 L 400.000 0.000 200.000 0.000 L 0.000 0.000 0.000 0.666 M234.575 29.053 C 234.746 29.224,234.886 29.451,234.886 29.558 C 234.886 29.664,235.071 30.126,235.297 30.584 C 235.522 31.042,235.971 32.086,236.294 32.904 C 236.616 33.722,236.960 34.569,237.058 34.787 C 237.874 36.600,238.769 38.704,239.517 40.566 C 240.363 42.673,241.436 45.231,241.832 46.085 C 242.012 46.474,242.595 47.868,243.901 51.041 C 245.486 54.887,245.398 54.788,246.538 54.014 C 247.261 53.523,247.307 53.518,251.533 53.522 C 261.147 53.530,263.293 54.826,261.081 59.291 L 260.357 60.753 254.460 60.806 C 248.107 60.862,248.030 60.877,249.068 61.853 C 251.187 63.843,251.759 66.105,252.144 74.007 C 252.356 78.371,252.134 93.223,251.827 95.243 C 251.777 95.570,251.641 97.474,251.525 99.474 C 251.239 104.399,251.439 104.063,248.790 104.063 C 246.050 104.063,246.229 103.768,246.151 108.425 C 246.091 111.944,246.045 112.376,245.635 113.265 C 242.985 119.012,234.084 120.333,229.421 115.671 C 227.500 113.750,227.266 112.986,227.190 108.387 C 227.143 105.519,227.059 104.428,226.872 104.273 C 226.694 104.126,218.562 104.077,199.880 104.112 L 173.142 104.163 173.026 108.028 C 172.882 112.856,172.666 113.551,170.690 115.558 C 165.680 120.646,156.385 118.924,154.149 112.493 C 154.034 112.163,153.890 110.154,153.828 108.028 L 153.717 104.163 151.638 104.106 C 149.071 104.035,149.298 104.345,149.058 100.586 C 147.807 80.953,147.967 66.882,149.488 62.636 C 149.703 62.037,149.895 61.412,149.915 61.249 C 149.945 60.993,149.209 60.936,144.698 60.844 C 141.809 60.785,139.424 60.718,139.398 60.695 C 138.534 59.932,137.680 56.390,138.149 55.515 C 139.031 53.866,150.480 52.596,153.117 53.853 C 154.092 54.318,153.665 55.151,158.259 43.806 C 158.987 42.007,159.664 40.357,159.762 40.139 C 159.861 39.921,160.573 38.181,161.345 36.274 C 162.116 34.366,163.073 32.002,163.470 31.021 C 163.868 30.040,164.278 29.125,164.381 28.989 C 164.698 28.569,234.154 28.632,234.575 29.053 M167.931 33.865 C 167.790 33.954,166.971 35.759,166.111 37.876 C 165.251 39.993,163.780 43.598,162.841 45.887 C 159.472 54.108,158.721 56.076,158.838 56.381 C 158.984 56.760,240.305 56.865,240.539 56.486 C 240.683 56.253,231.626 34.572,231.164 34.044 C 230.834 33.667,168.520 33.491,167.931 33.865 M160.441 65.285 C 152.201 68.348,152.665 79.949,161.121 82.293 C 169.337 84.571,175.642 74.768,170.291 68.035 C 168.038 65.200,163.829 64.025,160.441 65.285 M233.991 65.173 C 227.589 67.387,225.657 75.172,230.335 79.908 C 236.440 86.087,246.766 80.847,245.429 72.248 C 244.611 66.985,238.924 63.468,233.991 65.173 M172.597 89.411 C 172.102 89.699,172.072 94.042,172.563 94.231 C 172.973 94.388,227.027 94.388,227.437 94.231 C 227.958 94.031,227.895 89.685,227.367 89.402 C 226.838 89.119,173.083 89.128,172.597 89.411 " stroke="none" fill="#feffff" fill-rule="evenodd"></path></g></svg>