<svg id="svg" version="1.1" width="400" height="241.02564102564102" viewBox="0 0 400 241.02564102564102" xmlns="http://www.w3.org/2000/svg" xmlns:xlink="http://www.w3.org/1999/xlink" ><g id="svgg"><path id="path0" d="M183.884 0.163 C 183.598 0.449,183.703 56.525,183.991 57.352 C 184.187 57.913,184.435 58.127,185.012 58.231 C 186.704 58.537,215.514 58.241,215.841 57.914 C 216.094 57.662,216.167 52.038,216.219 28.801 L 216.284 -0.000 200.165 -0.000 C 191.300 -0.000,183.973 0.073,183.884 0.163 M25.558 18.741 C 25.226 18.801,24.792 18.992,24.593 19.164 C 24.394 19.337,23.558 19.554,22.735 19.647 C 21.913 19.740,21.117 19.963,20.968 20.143 C 20.818 20.323,20.208 20.544,19.612 20.633 C 19.002 20.725,18.328 21.010,18.070 21.287 C 17.819 21.557,17.338 21.808,17.002 21.843 C 16.667 21.879,16.107 22.133,15.759 22.407 C 15.410 22.681,14.996 22.905,14.838 22.905 C 14.680 22.905,14.299 23.173,13.991 23.501 C 13.684 23.828,13.352 24.046,13.253 23.986 C 13.012 23.836,12.500 24.475,12.701 24.676 C 12.788 24.763,12.696 24.834,12.495 24.834 C 11.788 24.834,6.107 30.164,6.366 30.584 C 6.449 30.718,6.298 30.897,6.031 30.981 C 5.764 31.066,5.546 31.237,5.546 31.362 C 5.546 31.487,5.274 31.824,4.943 32.113 C 4.611 32.401,4.340 32.763,4.340 32.918 C 4.340 33.072,4.123 33.395,3.858 33.635 C 3.593 33.875,3.376 34.202,3.376 34.363 C 3.376 34.523,3.165 34.922,2.908 35.249 C 2.651 35.575,2.362 36.160,2.266 36.547 C 2.169 36.934,1.940 37.362,1.757 37.497 C 1.574 37.633,1.366 38.273,1.295 38.921 C 1.206 39.732,1.002 40.232,0.643 40.523 L 0.121 40.946 0.121 130.158 L 0.121 219.370 0.663 219.948 C 0.961 220.265,1.206 220.818,1.206 221.175 C 1.206 221.533,1.423 222.011,1.688 222.238 C 1.953 222.465,2.170 222.898,2.170 223.200 C 2.170 223.502,2.376 223.955,2.628 224.207 C 2.879 224.459,3.159 225.002,3.250 225.414 C 3.341 225.827,3.623 226.276,3.877 226.412 C 4.132 226.548,4.342 226.791,4.344 226.952 C 4.349 227.237,5.349 228.824,5.977 229.542 C 7.405 231.176,7.958 231.736,7.965 231.555 C 7.970 231.439,8.105 231.570,8.267 231.845 C 8.428 232.121,8.885 232.638,9.283 232.995 C 9.681 233.351,10.549 234.129,11.212 234.723 C 11.875 235.317,12.601 235.803,12.825 235.804 C 13.050 235.804,13.376 235.995,13.550 236.227 C 14.046 236.889,15.358 237.731,16.137 237.887 C 16.527 237.965,16.902 238.173,16.970 238.350 C 17.038 238.527,17.506 238.747,18.010 238.840 C 18.514 238.933,19.174 239.201,19.477 239.436 C 19.779 239.671,20.484 239.939,21.044 240.030 C 21.604 240.122,22.263 240.375,22.509 240.593 C 23.195 241.200,376.493 241.204,376.938 240.597 C 377.101 240.373,377.770 240.130,378.499 240.030 C 379.243 239.928,379.947 239.669,380.189 239.408 C 380.418 239.163,381.011 238.917,381.507 238.863 C 382.003 238.808,382.597 238.599,382.826 238.398 C 383.055 238.196,383.477 237.961,383.763 237.873 C 384.049 237.786,384.340 237.567,384.410 237.385 C 384.479 237.204,384.874 236.981,385.288 236.891 C 385.701 236.800,386.168 236.519,386.326 236.265 C 386.484 236.012,386.747 235.805,386.909 235.805 C 387.071 235.805,387.320 235.588,387.462 235.322 C 387.604 235.057,387.852 234.840,388.013 234.840 C 388.541 234.839,391.561 232.232,391.561 231.777 C 391.561 231.605,391.688 231.492,391.843 231.525 C 391.998 231.558,392.242 231.362,392.385 231.090 C 392.529 230.817,393.053 230.166,393.550 229.643 C 394.047 229.120,394.524 228.475,394.609 228.210 C 394.695 227.945,394.966 227.586,395.212 227.412 C 395.459 227.239,395.660 226.958,395.660 226.787 C 395.660 226.616,395.867 226.289,396.121 226.059 C 396.374 225.830,396.654 225.352,396.742 224.997 C 396.831 224.642,397.055 224.184,397.240 223.978 C 397.581 223.599,397.779 222.872,397.812 221.881 C 397.822 221.575,397.983 221.338,398.180 221.338 C 398.480 221.338,399.030 220.031,399.034 219.308 C 399.035 219.186,399.225 218.876,399.458 218.619 C 400.095 217.915,400.117 42.088,399.480 41.622 C 399.260 41.461,399.001 40.804,398.905 40.162 C 398.809 39.520,398.528 38.793,398.280 38.545 C 398.033 38.298,397.830 37.824,397.830 37.492 C 397.830 37.161,397.629 36.688,397.383 36.442 C 397.137 36.196,396.868 35.728,396.786 35.402 C 396.705 35.076,396.418 34.555,396.149 34.245 C 395.880 33.935,395.660 33.552,395.660 33.394 C 395.660 33.236,395.443 32.910,395.178 32.670 C 394.913 32.430,394.696 32.108,394.696 31.953 C 394.696 31.799,394.451 31.450,394.153 31.179 C 393.855 30.907,393.296 30.294,392.912 29.817 C 392.528 29.339,392.121 29.006,392.008 29.076 C 391.895 29.145,391.802 29.082,391.802 28.934 C 391.802 28.592,387.917 24.834,387.562 24.834 C 387.416 24.834,387.100 24.617,386.860 24.352 C 386.620 24.087,386.223 23.870,385.978 23.870 C 385.734 23.870,385.533 23.769,385.533 23.646 C 385.533 23.246,383.296 21.899,382.414 21.769 C 381.942 21.699,381.415 21.465,381.243 21.249 C 381.072 21.033,380.855 20.847,380.761 20.836 C 380.158 20.767,379.088 20.383,378.782 20.126 C 378.583 19.959,377.715 19.745,376.854 19.650 C 375.961 19.552,375.094 19.308,374.839 19.082 C 374.068 18.400,222.751 18.358,222.069 19.040 C 221.520 19.589,221.319 35.348,221.842 36.849 C 222.211 37.907,217.787 37.848,297.288 37.849 C 364.106 37.850,371.456 37.887,371.705 38.225 C 371.856 38.431,372.290 38.656,372.669 38.725 C 373.048 38.793,373.574 39.047,373.840 39.288 C 374.105 39.530,374.591 39.810,374.921 39.910 C 375.615 40.121,379.732 44.213,379.777 44.736 C 379.794 44.929,379.821 45.191,379.837 45.318 C 379.854 45.445,380.064 45.692,380.304 45.868 C 380.604 46.087,380.745 46.514,380.754 47.233 C 380.764 47.921,380.924 48.435,381.222 48.733 C 381.862 49.373,381.944 210.516,381.304 211.222 C 381.100 211.448,380.877 212.098,380.808 212.668 C 380.740 213.237,380.473 213.970,380.215 214.298 C 379.958 214.625,379.747 214.990,379.747 215.109 C 379.747 215.228,379.320 215.865,378.798 216.525 C 378.276 217.185,377.787 217.922,377.711 218.162 C 377.634 218.402,377.193 218.780,376.731 219.000 C 376.268 219.221,375.889 219.512,375.889 219.646 C 375.889 219.781,375.743 219.892,375.565 219.892 C 375.386 219.892,375.044 220.108,374.804 220.374 C 374.564 220.639,374.119 220.856,373.816 220.856 C 373.513 220.856,373.117 221.066,372.937 221.323 C 372.706 221.653,372.234 221.822,371.319 221.903 C 370.477 221.976,369.952 222.150,369.811 222.400 C 369.469 223.012,30.764 222.989,30.088 222.378 C 29.806 222.122,29.081 221.930,28.140 221.862 C 27.037 221.783,26.560 221.636,26.327 221.305 C 26.154 221.058,25.873 220.856,25.702 220.856 C 25.531 220.856,25.195 220.639,24.955 220.374 C 24.715 220.108,24.373 219.892,24.196 219.892 C 23.738 219.892,20.579 216.683,20.365 216.000 C 20.267 215.687,19.985 215.172,19.738 214.856 C 19.491 214.540,19.289 214.030,19.289 213.724 C 19.289 213.418,19.071 213.016,18.806 212.830 C 18.042 212.295,18.042 48.433,18.806 47.620 C 19.071 47.337,19.289 46.831,19.289 46.496 C 19.289 46.160,19.506 45.689,19.771 45.449 C 20.036 45.209,20.253 44.883,20.253 44.725 C 20.253 44.567,20.443 44.207,20.675 43.925 C 20.907 43.643,21.357 43.057,21.674 42.622 C 22.300 41.766,24.269 40.128,24.990 39.864 C 25.236 39.775,25.696 39.502,26.012 39.260 C 26.328 39.017,26.839 38.819,27.148 38.819 C 27.456 38.819,27.912 38.601,28.160 38.334 C 28.610 37.851,28.805 37.850,102.986 37.853 C 166.945 37.856,177.427 37.808,177.831 37.513 C 178.485 37.035,178.681 19.584,178.039 18.942 C 177.680 18.582,27.522 18.385,25.558 18.741 M31.452 46.634 C 30.961 46.993,30.679 214.346,31.166 216.087 C 31.546 217.443,26.993 217.360,101.199 217.360 L 169.969 217.360 170.518 216.811 L 171.067 216.261 171.129 131.761 C 171.190 47.557,171.188 47.258,170.708 46.778 C 170.068 46.138,32.325 45.996,31.452 46.634 M95.419 59.720 C 95.187 59.781,94.997 59.934,94.997 60.060 C 94.997 60.311,94.135 60.688,93.153 60.866 C 92.808 60.928,92.350 61.132,92.134 61.319 C 91.919 61.505,91.372 61.728,90.920 61.813 C 90.467 61.899,89.956 62.170,89.783 62.417 C 89.573 62.717,89.273 62.829,88.881 62.754 C 88.493 62.679,88.120 62.815,87.782 63.152 C 87.482 63.453,86.868 63.702,86.294 63.757 C 85.757 63.809,85.121 64.028,84.882 64.245 C 84.643 64.461,84.051 64.702,83.565 64.781 C 83.079 64.860,82.582 65.112,82.459 65.341 C 82.316 65.607,81.837 65.803,81.132 65.882 C 80.525 65.951,79.843 66.170,79.616 66.370 C 79.390 66.570,78.859 66.807,78.437 66.896 C 78.016 66.986,77.544 67.212,77.388 67.399 C 77.233 67.586,76.711 67.813,76.229 67.904 C 75.746 67.994,74.883 68.317,74.311 68.621 C 73.740 68.925,73.121 69.116,72.938 69.045 C 72.754 68.975,72.462 69.143,72.289 69.419 C 72.108 69.710,71.721 69.923,71.371 69.924 C 71.038 69.925,70.223 70.193,69.560 70.519 C 68.897 70.845,68.178 71.115,67.962 71.120 C 67.746 71.124,67.437 71.287,67.275 71.482 C 67.113 71.678,66.608 71.907,66.154 71.993 C 65.700 72.078,65.192 72.342,65.026 72.580 C 64.832 72.856,64.291 73.060,63.529 73.144 C 62.862 73.217,62.216 73.440,62.064 73.648 C 61.914 73.853,61.505 74.020,61.155 74.020 C 60.805 74.020,60.318 74.221,60.074 74.465 C 59.829 74.710,59.205 74.977,58.687 75.060 C 56.462 75.414,55.827 78.843,57.987 78.843 C 58.277 78.843,58.701 79.049,58.930 79.301 C 59.158 79.553,59.738 79.833,60.220 79.924 C 60.702 80.014,61.360 80.296,61.683 80.550 C 62.007 80.805,62.582 81.013,62.962 81.013 C 63.342 81.013,63.870 81.230,64.135 81.495 C 64.400 81.760,64.885 81.977,65.212 81.977 C 65.562 81.977,65.913 82.178,66.068 82.467 C 66.212 82.736,66.460 82.932,66.619 82.902 C 67.020 82.826,68.041 83.179,68.475 83.544 C 68.674 83.712,69.108 83.929,69.439 84.027 C 69.771 84.124,70.220 84.360,70.438 84.551 C 70.656 84.742,71.102 84.926,71.430 84.961 C 71.758 84.996,72.327 85.261,72.694 85.550 C 73.077 85.851,73.705 86.076,74.165 86.076 C 74.721 86.076,75.047 86.224,75.226 86.558 C 75.371 86.829,75.731 87.040,76.046 87.040 C 76.355 87.040,76.892 87.264,77.239 87.537 C 77.586 87.810,78.170 88.054,78.537 88.079 C 78.904 88.105,79.346 88.315,79.519 88.547 C 79.692 88.778,80.255 89.035,80.770 89.118 C 81.285 89.200,81.760 89.407,81.825 89.578 C 81.891 89.749,82.304 89.965,82.744 90.058 C 83.184 90.152,83.726 90.389,83.949 90.585 C 84.172 90.781,84.796 91.041,85.337 91.163 C 85.878 91.284,86.536 91.600,86.801 91.864 C 87.065 92.128,87.556 92.345,87.892 92.345 C 88.228 92.345,88.563 92.505,88.638 92.700 C 88.713 92.895,89.171 93.128,89.656 93.217 C 90.140 93.306,90.795 93.580,91.111 93.826 C 91.428 94.072,91.899 94.274,92.158 94.274 C 92.418 94.274,92.891 94.478,93.209 94.729 C 93.527 94.979,94.174 95.256,94.647 95.345 C 95.119 95.434,95.717 95.717,95.975 95.975 C 96.233 96.233,96.698 96.444,97.009 96.444 C 97.320 96.444,97.771 96.661,98.011 96.926 C 98.607 97.585,100.036 97.566,100.897 96.888 C 101.261 96.602,101.878 96.343,102.270 96.312 C 102.661 96.282,103.111 96.097,103.269 95.902 C 103.427 95.707,104.075 95.408,104.708 95.239 C 105.342 95.069,105.938 94.799,106.034 94.639 C 106.130 94.478,106.627 94.281,107.138 94.201 C 107.650 94.120,108.196 93.880,108.352 93.666 C 108.508 93.453,108.950 93.244,109.333 93.202 C 109.717 93.160,110.164 92.943,110.327 92.721 C 110.493 92.494,111.061 92.273,111.623 92.217 C 112.174 92.162,112.905 91.897,113.247 91.628 C 113.589 91.359,114.091 91.139,114.363 91.139 C 114.635 91.139,115.094 90.917,115.383 90.645 C 115.673 90.373,116.222 90.114,116.605 90.070 C 116.987 90.025,117.381 89.976,117.480 89.961 C 117.580 89.946,117.661 89.782,117.661 89.597 C 117.661 89.381,118.005 89.228,118.626 89.169 C 119.156 89.118,119.590 89.161,119.590 89.264 C 119.590 89.367,119.509 89.460,119.409 89.469 C 118.626 89.547,117.991 89.756,117.674 90.040 C 117.468 90.224,116.896 90.450,116.404 90.541 C 115.892 90.636,115.453 90.878,115.381 91.104 C 115.305 91.344,114.977 91.511,114.552 91.525 C 114.166 91.539,113.554 91.783,113.191 92.068 C 112.829 92.353,112.280 92.586,111.971 92.586 C 111.662 92.586,111.301 92.788,111.169 93.035 C 111.018 93.317,110.560 93.534,109.936 93.617 C 109.390 93.691,108.754 93.923,108.522 94.133 C 108.289 94.343,107.933 94.515,107.729 94.515 C 107.525 94.515,107.058 94.751,106.691 95.040 C 106.324 95.329,105.702 95.600,105.310 95.643 C 104.917 95.686,104.320 95.938,103.983 96.203 C 103.646 96.468,103.118 96.685,102.809 96.685 C 102.494 96.685,102.134 96.897,101.989 97.167 C 101.822 97.479,101.484 97.649,101.030 97.649 C 100.581 97.649,100.195 97.840,99.957 98.180 L 99.585 98.712 99.090 98.180 C 98.812 97.883,98.305 97.649,97.934 97.649 C 97.571 97.649,97.088 97.432,96.861 97.167 C 96.634 96.902,96.191 96.685,95.876 96.685 C 95.561 96.685,95.013 96.457,94.658 96.178 C 94.304 95.899,93.647 95.637,93.199 95.595 C 92.751 95.553,92.159 95.293,91.883 95.017 C 91.606 94.741,91.126 94.515,90.815 94.515 C 90.504 94.515,90.065 94.311,89.840 94.063 C 89.615 93.814,89.157 93.611,88.822 93.611 C 88.474 93.611,88.059 93.391,87.854 93.098 C 87.657 92.816,87.245 92.586,86.939 92.586 C 86.633 92.586,86.086 92.353,85.724 92.068 C 85.361 91.783,84.750 91.539,84.365 91.525 C 83.981 91.512,83.666 91.423,83.665 91.329 C 83.664 91.038,82.630 90.583,81.753 90.486 C 81.283 90.434,80.779 90.190,80.592 89.923 C 80.393 89.639,79.983 89.451,79.561 89.451 C 79.108 89.451,78.769 89.282,78.603 88.972 C 78.462 88.708,78.268 88.504,78.172 88.518 C 77.603 88.604,77.095 88.427,76.660 87.992 C 76.388 87.720,75.789 87.464,75.329 87.422 C 74.869 87.381,74.278 87.152,74.015 86.914 C 73.397 86.356,72.436 86.737,72.076 87.683 C 71.618 88.889,71.888 118.480,72.362 119.022 C 72.577 119.268,72.828 120.066,72.920 120.796 C 73.012 121.527,73.282 122.338,73.522 122.604 C 73.761 122.869,74.021 123.507,74.099 124.020 C 74.177 124.534,74.430 125.163,74.661 125.418 C 74.892 125.673,75.107 126.064,75.140 126.286 C 75.172 126.508,75.350 126.801,75.534 126.937 C 75.719 127.074,75.943 127.480,76.033 127.841 C 76.123 128.202,76.399 128.691,76.646 128.926 C 76.893 129.162,77.165 129.582,77.249 129.859 C 77.334 130.136,78.107 131.108,78.967 132.021 C 79.827 132.933,80.530 133.764,80.530 133.868 C 80.530 133.972,80.620 134.057,80.730 134.057 C 80.839 134.057,81.461 134.545,82.111 135.142 C 82.761 135.738,83.415 136.227,83.564 136.227 C 83.713 136.227,84.128 136.498,84.486 136.829 C 84.844 137.161,85.282 137.432,85.460 137.432 C 85.638 137.432,85.842 137.585,85.913 137.771 C 85.985 137.958,86.403 138.187,86.843 138.280 C 87.283 138.374,87.825 138.611,88.048 138.807 C 88.270 139.003,88.920 139.268,89.491 139.397 C 90.062 139.525,90.719 139.802,90.952 140.012 C 91.244 140.277,92.014 140.428,93.448 140.502 C 95.103 140.588,95.619 140.706,96.002 141.089 C 96.655 141.743,102.370 141.676,103.110 141.006 C 103.422 140.723,104.114 140.574,105.415 140.510 C 106.699 140.447,107.409 140.296,107.712 140.022 C 107.953 139.804,108.612 139.551,109.177 139.461 C 109.812 139.359,110.296 139.125,110.445 138.847 C 110.596 138.566,110.950 138.397,111.387 138.397 C 111.793 138.397,112.221 138.210,112.403 137.953 C 112.577 137.710,113.043 137.430,113.440 137.331 C 114.146 137.156,114.495 136.903,115.543 135.805 C 115.828 135.506,116.181 135.262,116.328 135.262 C 116.674 135.262,119.590 132.360,119.590 132.015 C 119.590 131.871,119.888 131.470,120.253 131.124 C 121.360 130.075,122.953 127.899,122.961 127.424 C 122.964 127.290,123.183 127.045,123.448 126.879 C 123.713 126.714,123.930 126.322,123.930 126.010 C 123.930 125.697,124.145 125.168,124.408 124.834 C 124.671 124.500,124.947 123.721,125.021 123.103 C 125.099 122.459,125.357 121.780,125.628 121.509 C 126.004 121.133,126.100 120.704,126.100 119.407 C 126.100 118.050,126.179 117.728,126.572 117.483 C 127.032 117.195,127.044 116.811,127.059 102.495 L 127.074 87.802 126.484 87.120 L 125.895 86.438 124.989 86.920 C 124.491 87.185,123.933 87.368,123.748 87.327 C 123.563 87.286,123.257 87.381,123.068 87.537 C 122.862 87.708,122.725 87.725,122.725 87.578 C 122.725 87.293,123.294 87.040,123.936 87.040 C 124.183 87.040,124.532 86.830,124.712 86.573 C 124.917 86.280,125.430 86.059,126.083 85.980 C 126.656 85.911,127.330 85.669,127.580 85.443 C 127.830 85.216,128.332 85.000,128.695 84.961 C 129.058 84.923,129.518 84.697,129.717 84.459 C 129.916 84.221,130.390 84.004,130.771 83.977 C 131.151 83.950,131.640 83.770,131.856 83.578 C 132.072 83.385,132.737 83.099,133.333 82.942 C 133.930 82.784,134.610 82.485,134.843 82.276 C 135.077 82.067,135.550 81.867,135.894 81.830 C 136.239 81.793,136.707 81.594,136.935 81.388 C 137.163 81.182,137.585 81.013,137.873 81.013 C 138.161 81.013,138.614 80.796,138.879 80.530 C 139.144 80.265,139.585 80.048,139.859 80.048 C 140.539 80.048,141.290 79.618,141.290 79.228 C 141.290 79.052,141.521 78.614,141.803 78.255 C 142.574 77.276,142.157 76.572,140.583 76.194 C 139.909 76.033,139.253 75.722,139.126 75.503 C 138.998 75.284,138.890 75.200,138.886 75.316 C 138.882 75.432,138.724 75.398,138.535 75.241 C 138.346 75.084,138.027 74.989,137.825 75.031 C 137.624 75.072,137.317 74.914,137.144 74.680 C 136.971 74.445,136.457 74.207,136.002 74.149 C 135.547 74.092,135.083 73.881,134.971 73.681 C 134.859 73.480,134.363 73.244,133.869 73.156 C 133.376 73.067,132.791 72.838,132.571 72.646 C 132.350 72.453,132.025 72.270,131.848 72.238 C 130.598 72.011,129.980 71.774,129.867 71.478 C 129.794 71.290,129.304 71.067,128.776 70.983 C 128.249 70.898,127.762 70.685,127.695 70.509 C 127.627 70.333,127.159 70.115,126.655 70.025 C 126.151 69.935,125.563 69.708,125.349 69.522 C 125.136 69.336,124.756 69.143,124.506 69.093 C 123.264 68.846,122.749 68.645,122.642 68.367 C 122.578 68.199,122.081 67.990,121.540 67.903 C 120.998 67.817,120.555 67.643,120.555 67.517 C 120.555 67.392,120.093 67.157,119.530 66.996 C 118.966 66.836,118.327 66.554,118.109 66.370 C 117.745 66.063,116.988 65.881,115.899 65.839 C 115.659 65.830,115.525 65.722,115.602 65.598 C 115.722 65.403,115.361 65.020,115.009 64.969 C 114.244 64.859,113.321 64.537,113.321 64.381 C 113.321 64.141,111.848 63.599,111.673 63.774 C 111.604 63.843,111.306 63.670,111.010 63.392 C 110.713 63.113,110.071 62.848,109.583 62.803 C 109.096 62.758,108.563 62.539,108.401 62.316 C 108.238 62.094,107.743 61.870,107.300 61.818 C 106.858 61.767,106.348 61.514,106.168 61.257 C 105.988 61.000,105.652 60.798,105.422 60.808 C 104.997 60.825,104.286 60.539,103.195 59.909 C 102.667 59.604,105.977 59.561,129.777 59.558 L 156.962 59.554 156.962 131.404 L 156.962 203.255 101.025 203.255 L 45.087 203.255 45.087 131.404 L 45.087 59.554 70.464 59.582 C 84.421 59.597,95.651 59.660,95.419 59.720 M122.181 88.146 C 121.930 88.397,120.313 88.684,120.313 88.478 C 120.313 88.302,120.856 88.160,121.981 88.041 C 122.169 88.021,122.259 88.069,122.181 88.146 M214.196 95.716 C 213.457 96.015,213.402 96.476,213.401 102.421 C 213.400 107.435,213.432 107.826,213.872 108.266 C 214.339 108.733,215.180 108.739,286.311 108.739 L 358.278 108.739 358.661 108.154 C 359.293 107.190,359.083 96.303,358.423 95.821 C 357.885 95.428,215.167 95.324,214.196 95.716 M84.455 104.065 C 84.558 104.239,85.034 104.454,85.513 104.544 C 85.991 104.634,86.585 104.910,86.832 105.157 C 87.079 105.404,87.556 105.606,87.892 105.606 C 88.228 105.606,88.563 105.766,88.638 105.961 C 88.713 106.156,89.159 106.388,89.628 106.476 C 90.098 106.564,90.684 106.838,90.931 107.085 C 91.178 107.333,91.637 107.535,91.951 107.535 C 92.264 107.535,92.811 107.763,93.166 108.042 C 93.520 108.321,94.177 108.583,94.625 108.625 C 95.073 108.666,95.665 108.926,95.941 109.202 C 96.218 109.479,96.691 109.705,96.993 109.705 C 97.295 109.705,97.728 109.922,97.955 110.187 C 98.540 110.871,100.355 110.857,101.049 110.163 C 101.327 109.885,101.818 109.628,102.139 109.593 C 102.460 109.558,102.919 109.351,103.159 109.134 C 103.398 108.918,103.830 108.740,104.118 108.740 C 104.406 108.740,104.852 108.529,105.110 108.271 C 105.368 108.014,105.966 107.730,106.438 107.641 C 106.911 107.553,107.541 107.291,107.838 107.060 C 108.135 106.829,108.775 106.567,109.259 106.478 C 109.744 106.389,110.202 106.156,110.277 105.961 C 110.352 105.766,110.692 105.606,111.034 105.606 C 111.376 105.606,111.905 105.362,112.209 105.063 C 112.514 104.765,113.078 104.497,113.462 104.467 C 113.847 104.438,114.278 104.255,114.419 104.061 C 114.561 103.868,114.969 103.636,115.325 103.546 L 115.973 103.384 115.973 109.238 C 115.973 114.142,115.914 115.157,115.606 115.497 C 115.404 115.721,115.183 116.477,115.114 117.179 C 115.042 117.918,114.790 118.707,114.517 119.055 C 114.257 119.385,114.045 119.813,114.045 120.007 C 114.045 120.200,113.828 120.634,113.562 120.971 C 113.297 121.308,113.080 121.728,113.080 121.905 C 113.080 122.081,112.863 122.341,112.598 122.483 C 112.333 122.625,112.115 122.873,112.114 123.034 C 112.111 123.796,107.135 128.206,106.019 128.436 C 105.650 128.512,105.215 128.763,105.054 128.993 C 104.841 129.298,104.323 129.440,103.148 129.515 C 102.082 129.582,101.380 129.757,101.080 130.029 C 100.435 130.612,98.275 130.588,97.514 129.990 C 97.123 129.682,96.507 129.529,95.570 129.508 C 94.495 129.483,94.126 129.372,93.861 128.994 C 93.675 128.728,93.327 128.511,93.087 128.511 C 92.847 128.511,92.391 128.321,92.073 128.089 C 91.755 127.857,91.280 127.529,91.016 127.360 C 90.752 127.192,90.194 126.834,89.774 126.566 C 89.355 126.297,88.952 125.920,88.878 125.727 C 88.804 125.534,88.590 125.377,88.402 125.377 C 88.215 125.377,88.004 125.160,87.935 124.895 C 87.866 124.629,87.660 124.412,87.477 124.412 C 87.295 124.412,87.013 124.114,86.850 123.749 C 86.342 122.615,85.872 121.896,85.372 121.489 C 85.108 121.273,84.955 121.032,85.034 120.954 C 85.213 120.775,84.637 119.349,84.386 119.349 C 84.284 119.349,84.134 118.996,84.052 118.565 C 83.971 118.134,83.852 117.516,83.789 117.191 C 83.726 116.866,83.509 116.508,83.308 116.396 C 82.995 116.220,82.942 115.266,82.942 109.809 L 82.942 103.427 83.605 103.588 C 83.969 103.677,84.352 103.892,84.455 104.065 M213.968 124.756 C 213.327 125.224,213.135 135.934,213.751 136.874 L 214.116 137.432 286.197 137.432 L 358.277 137.432 358.664 136.841 C 359.189 136.041,359.096 125.456,358.559 124.810 C 358.090 124.245,214.740 124.192,213.968 124.756 M64.139 143.215 C 63.473 143.881,63.363 200.038,64.027 200.701 C 64.472 201.146,134.082 201.293,134.780 200.850 C 135.348 200.490,135.452 143.684,134.886 143.118 C 134.109 142.341,131.404 143.741,131.404 144.921 C 131.404 145.061,131.301 145.112,131.175 145.035 C 131.049 144.957,130.830 145.111,130.688 145.377 C 130.545 145.643,130.187 146.120,129.892 146.436 C 128.227 148.223,127.827 148.701,127.543 149.247 C 127.370 149.578,127.027 149.992,126.781 150.167 C 126.535 150.342,126.396 150.586,126.472 150.710 C 126.548 150.833,126.504 150.934,126.373 150.934 C 126.113 150.934,124.412 152.468,124.412 152.703 C 124.412 152.782,124.005 153.253,123.508 153.749 C 123.011 154.245,122.495 154.831,122.363 155.051 C 121.704 156.145,121.039 156.972,119.714 158.345 C 118.026 160.094,117.943 160.187,116.275 162.215 C 115.579 163.061,115.009 163.907,115.009 164.095 C 115.009 164.283,114.864 164.436,114.686 164.436 C 114.508 164.436,114.237 164.714,114.082 165.053 C 113.928 165.392,113.693 165.602,113.561 165.521 C 113.429 165.439,113.321 165.483,113.321 165.618 C 113.321 165.754,112.860 166.349,112.297 166.940 C 110.243 169.096,109.212 170.355,109.074 170.877 C 108.997 171.171,108.727 171.477,108.475 171.557 C 108.223 171.637,108.017 171.786,108.017 171.889 C 108.017 172.065,107.483 172.670,104.628 175.727 C 103.969 176.433,103.252 177.356,103.035 177.776 C 102.818 178.197,102.438 178.684,102.190 178.859 C 101.943 179.034,101.793 179.262,101.857 179.366 C 101.921 179.471,101.706 179.678,101.379 179.827 C 101.051 179.976,100.784 180.263,100.784 180.465 C 100.784 180.667,100.617 180.832,100.414 180.832 C 100.211 180.832,99.975 181.022,99.889 181.254 C 99.735 181.673,99.359 182.027,99.060 182.034 C 98.768 182.041,97.167 180.304,97.167 179.981 C 97.167 179.805,96.923 179.464,96.624 179.222 C 96.326 178.980,95.600 178.186,95.010 177.456 C 94.421 176.727,93.329 175.529,92.584 174.795 C 91.840 174.061,91.155 173.263,91.062 173.023 C 90.825 172.405,90.046 171.434,88.306 169.588 C 87.477 168.709,86.799 167.902,86.799 167.796 C 86.799 167.690,86.581 167.534,86.314 167.449 C 86.046 167.364,85.882 167.207,85.948 167.100 C 86.060 166.919,85.572 166.213,83.984 164.263 C 83.637 163.837,83.260 163.545,83.147 163.614 C 83.034 163.684,82.942 163.590,82.942 163.404 C 82.942 163.218,82.453 162.550,81.857 161.918 C 81.260 161.286,80.772 160.667,80.772 160.542 C 80.772 160.417,80.283 159.820,79.687 159.214 C 79.090 158.609,78.602 158.033,78.602 157.935 C 78.602 157.836,77.747 156.876,76.703 155.802 C 75.658 154.728,74.735 153.670,74.651 153.452 C 74.436 152.891,73.640 151.896,71.971 150.102 C 71.175 149.247,70.331 148.298,70.095 147.993 C 67.755 144.974,66.983 144.072,66.782 144.123 C 66.652 144.156,66.546 144.028,66.546 143.839 C 66.546 142.806,64.959 142.395,64.139 143.215 M83.125 142.999 C 81.845 143.734,82.277 144.994,84.569 147.209 C 85.133 147.754,85.594 148.310,85.594 148.445 C 85.594 148.579,85.811 148.886,86.076 149.126 C 86.341 149.366,86.558 149.704,86.558 149.878 C 86.558 150.052,86.775 150.310,87.040 150.452 C 87.306 150.594,87.523 150.842,87.525 151.003 C 87.526 151.164,88.014 151.726,88.610 152.253 C 89.205 152.779,89.693 153.402,89.693 153.637 C 89.693 153.872,89.910 154.200,90.175 154.366 C 90.440 154.531,90.657 154.762,90.657 154.878 C 90.657 154.994,91.091 155.511,91.621 156.026 C 92.152 156.540,92.586 157.024,92.586 157.101 C 92.586 157.337,94.111 158.774,94.301 158.716 C 94.399 158.686,94.545 158.961,94.625 159.327 C 94.706 159.694,95.202 160.464,95.728 161.040 C 96.254 161.615,96.685 162.132,96.685 162.188 C 96.685 163.611,100.579 164.575,101.142 163.291 C 101.273 162.993,101.517 162.749,101.685 162.749 C 101.852 162.749,101.989 162.655,101.989 162.541 C 101.989 162.305,102.990 160.964,104.335 159.400 C 104.835 158.819,105.461 158.089,105.726 157.779 C 105.992 157.468,106.480 156.818,106.811 156.333 C 107.143 155.848,107.902 154.927,108.499 154.288 C 110.195 152.470,111.454 150.970,112.183 149.897 C 112.869 148.889,113.273 148.416,114.225 147.507 C 114.524 147.223,114.768 146.873,114.768 146.729 C 114.768 146.586,114.978 146.338,115.236 146.177 C 115.700 145.887,115.741 145.744,115.781 144.250 C 115.825 142.636,116.836 142.729,99.365 142.744 C 89.318 142.754,83.391 142.846,83.125 142.999 M213.873 155.506 C 213.258 156.121,213.136 166.901,213.734 167.720 C 214.165 168.309,357.989 168.448,358.577 167.860 C 359.044 167.394,359.029 155.997,358.561 155.433 C 357.996 154.753,214.554 154.825,213.873 155.506 " stroke="none" fill="#6d0204" fill-rule="evenodd"></path><path id="path1" d="" stroke="none" fill="#6d0204" fill-rule="evenodd"></path></g></svg>